<?xml version="1.0" encoding="UTF-8"?>
<svg id="Layer_2" data-name="Layer 2" xmlns="http://www.w3.org/2000/svg" viewBox="0 0 243.83 170.81">
  <g id="Layer_1-2" data-name="Layer 1">
    <g>
      <path d="m124.57,25.85c8.96,0,17.92,0,26.89.01,2.73,0,4.7-1,4.51-3.99-.16-2.57-2.08-3.33-4.47-3.33-18.16.02-36.31.03-54.47,0-2.65,0-4.44,1.16-4.36,3.81.07,2.46,1.84,3.52,4.32,3.51,9.19-.04,18.39-.02,27.58-.01Z"/>
      <path d="m121.82,0c34.62,0,69.24,0,103.87,0,11.9,0,18.08,5.99,18.1,17.94.07,44.91.07,89.81,0,134.72-.02,12.29-6.08,18.14-18.41,18.14-69.07,0-138.14,0-207.22,0-11.92,0-18.08-5.96-18.1-17.93C-.02,107.97-.01,63.06.05,18.16.07,5.88,6.15,0,18.46,0,52.91,0,87.36,0,121.82,0Zm.12,163.62c33.93,0,67.86,0,101.79,0,10.7,0,12.89-2.18,12.89-12.95,0-43.53,0-87.05,0-130.58,0-1.37.05-2.75-.07-4.11-.49-5.73-3.54-8.68-9.27-8.78-5.65-.1-11.32.19-16.96-.11-3.33-.18-4.82,1.17-6.04,4.07-3.93,9.28-8.3,18.38-12.12,27.7-1.59,3.89-3.7,5.45-8.01,5.44-41.47-.14-82.94-.14-124.41,0-4.31.01-6.43-1.57-8.02-5.44-3.84-9.32-8.2-18.42-12.13-27.7-1.23-2.91-2.74-4.25-6.06-4.04-4.95.3-9.93.07-14.9.08-8.59.01-11.36,2.7-11.37,11.38-.03,44.55-.03,89.11,0,133.66,0,8.69,2.77,11.38,11.36,11.38,34.44,0,68.89,0,103.33,0ZM45.69,7.32c4.16,9.45,7.89,18.24,11.99,26.86.65,1.37,2.98,2.65,4.59,2.72,6.67.3,13.36.13,20.05.13,32.74,0,65.47.03,98.21-.08,1.76,0,4.55-.66,5.12-1.86,4.36-9.02,8.29-18.26,12.51-27.78H45.69Z"/>
      <path d="m121.92,55.55c30.34,0,60.67,0,91.01,0,9.09,0,12.34,3.19,12.35,12.38.05,24,.05,47.99,0,71.99-.02,9.19-3.26,12.38-12.35,12.38-60.67,0-121.35,0-182.02,0-9.09,0-12.34-3.19-12.36-12.37-.05-24-.05-47.99,0-71.99.02-9.19,3.27-12.38,12.35-12.38,30.34,0,60.67,0,91.01,0Zm.13,7.19c-30.15,0-60.29.08-90.44-.09-4.48-.03-5.98,1.33-5.95,5.82.16,23.64.16,47.27,0,70.91-.03,4.48,1.46,5.83,5.94,5.82,60.12-.13,120.24-.14,180.36.02,4.77.01,6.24-1.4,6.21-6.08-.17-23.46-.17-46.93,0-70.4.03-4.68-1.42-6.13-6.2-6.1-29.97.21-59.95.11-89.92.11Z"/>
      <path d="m62.44,22.21c-.06-3.79,2.75-6.71,6.48-6.73,3.69-.02,6.74,2.99,6.72,6.61-.02,3.39-3.03,6.49-6.44,6.63-3.6.16-6.69-2.83-6.75-6.52Z"/>
      <path d="m182.88,22c.02,3.73-2.91,6.74-6.56,6.72-3.52-.01-6.71-3.28-6.63-6.78.09-3.52,2.98-6.39,6.51-6.46,3.75-.08,6.66,2.76,6.68,6.52Z"/>
      <path d="m121.93,135.98c-17.65,0-35.29.12-52.94-.04-16.5-.15-29.88-12.12-31.55-27.91-1.82-17.13,8.37-31.74,24.89-35.54,2.14-.49,4.41-.6,6.63-.6,35.29-.04,70.59-.12,105.88.02,16.3.07,29.75,12,31.51,27.39,1.97,17.31-7.81,31.83-24.37,35.86-2.95.72-6.1.77-9.16.79-16.96.07-33.92.03-50.88.03Zm-31.3-56.67c14.65,16.75,14.32,32.94.21,49.16h62.57c-7.03-7.22-11-15.02-10.99-24.62.01-9.58,4.05-17.34,11.03-24.54h-62.82Zm83.86-.22c-13.82,0-24.77,10.87-24.83,24.65-.06,14.11,10.86,25.06,24.97,25.04,13.88-.02,24.79-10.83,24.88-24.65.09-14.03-10.9-25.04-25.01-25.04Zm-105.19,0c-13.45,0-24.24,10.66-24.24,23.94,0,13.16,11,24.2,24.16,24.23,13.3.04,24-10.72,24.03-24.15.03-13.56-10.41-24.03-23.94-24.03Z"/>
      <path d="m174.71,84.23c11.18.07,19.79,8.82,19.64,19.97-.15,11.16-8.87,19.56-20.17,19.43-10.88-.13-19.37-8.78-19.36-19.71,0-11.15,8.71-19.75,19.89-19.69Zm-.4,32.17c7.26.12,12.76-5.18,12.82-12.34.05-7-5.13-12.42-12.05-12.61-7.3-.19-12.89,4.98-13.07,12.08-.18,7.18,5.14,12.75,12.3,12.87Z"/>
      <path d="m69.48,84.23c11.12.07,19.66,8.82,19.54,20.04-.11,10.86-8.77,19.36-19.71,19.35-11.24,0-19.85-8.61-19.81-19.78.04-11.17,8.71-19.67,19.98-19.61Zm.05,7.22c-7.25-.12-12.75,5.18-12.81,12.35-.06,7,5.12,12.42,12.05,12.6,7.29.2,12.89-4.98,13.06-12.09.17-7.18-5.15-12.75-12.3-12.87Z"/>
    </g>
  </g>
</svg>