<?xml version="1.0" encoding="UTF-8"?>
<svg id="Layer_2" data-name="Layer 2" xmlns="http://www.w3.org/2000/svg" viewBox="0 0 284.15 170.48">
  <g id="Layer_1-2" data-name="Layer 1">
    <g>
      <path d="m142.38,0c44.19,0,88.38,0,132.57,0,8.77,0,9.2.41,9.2,8.9,0,50.9,0,101.79,0,152.69,0,8.3-.55,8.88-8.64,8.88-88.97,0-177.94,0-266.91,0-7.93,0-8.6-.64-8.6-8.32C0,110.87,0,59.58,0,8.29,0,.63.67,0,8.63,0,53.22,0,97.8,0,142.38,0ZM9.86,38.12v122.45h264.53V38.12H9.86Zm-.16-10.12h264.52V9.76H9.71v18.24Z"/>
      <path d="m90.8,140.3c12.41,0,24.82-.05,37.23.03,3.96.02,7.4-.83,9.05-4.8,1.59-3.83.24-7.04-2.43-10.03-18.12-20.31-36.24-40.62-54.2-61.07-3.2-3.64-6.65-5.28-11.52-5.12-8.73.3-17.47.03-26.21.1-6.41.05-9.31,2.96-9.32,9.29-.02,17.09-.05,34.19,0,51.28.04,11.29,8.49,20.06,19.78,20.23,12.53.19,25.07.04,37.61.04v.03Zm-49.2-72.97c9.53,0,18.38-.14,27.21.11,1.85.05,4.18,1.08,5.41,2.45,17.92,19.95,35.69,40.03,53.48,60.09.51.57.83,1.31,1.39,2.21-.94.08-1.43.17-1.92.17-24.17,0-48.33.05-72.5-.02-8.26-.03-13.03-5.01-13.06-13.38-.04-15.18-.01-30.37-.01-45.55,0-1.87,0-3.74,0-6.08Z"/>
      <path d="m220.27,67.32c9.73,0,19.46,0,29.19.01,2.96,0,5.1-1.09,4.89-4.33-.18-2.79-2.26-3.62-4.85-3.62-19.72.03-39.43.03-59.15,0-2.88,0-4.82,1.25-4.74,4.14.08,2.67,2,3.82,4.69,3.81,9.98-.05,19.97-.02,29.95-.01Z"/>
      <path d="m232.11,83.72c-5.68,0-11.36.06-17.04-.02-2.96-.04-5.19,1-5.11,4.14.07,2.91,2.26,3.84,5.05,3.83,11.49-.06,22.97-.04,34.46-.02,2.76,0,4.89-.9,4.91-3.94.02-3.02-2.06-4.02-4.84-4-5.81.03-11.61,0-17.42.01Z"/>
      <path d="m65.8,115.94c8.95.01,16.17-7.1,16.22-15.99.05-8.96-7.04-16.14-15.99-16.2-9.16-.06-16.56,7.19-16.49,16.17.07,8.88,7.3,16.02,16.26,16.03Zm7.99-16.14c.01,4.38-3.47,8.05-7.77,8.19-4.36.14-8.3-3.7-8.32-8.12-.02-4.41,3.88-8.28,8.26-8.18,4.31.09,7.82,3.73,7.83,8.12Z"/>
    </g>
  </g>
</svg>