<?xml version="1.0" encoding="UTF-8"?>
<svg id="Layer_2" data-name="Layer 2" xmlns="http://www.w3.org/2000/svg" viewBox="0 0 249.9 169.21">
  <g id="Layer_1-2" data-name="Layer 1">
    <g>
      <path d="m30.71,104.2c0,9.67.09,19.33-.04,29-.06,4.21,1.59,6.05,5.9,6.02,17.5-.11,35-.09,52.5-.01,4,.02,5.68-1.56,5.65-5.66-.11-19.5-.12-39,0-58.5.03-4.26-1.46-5.96-5.83-5.92-17.33.15-34.67.16-52,0-4.51-.04-6.33,1.54-6.25,6.09.18,9.66.05,19.33.05,29Zm56.6,26.09c0,.5-.01,1-.02,1.5h-49.16v-55.08h49.09c0,.44,0,.87,0,1.31-4.1,0-8.21-.19-12.29.03-14.24.78-24.62,12.43-24.32,27.11.28,13.61,11.62,24.85,25.42,25.12,3.76.08,7.53.01,11.29.01Zm.25-38.96c-7.76-3.35-14.22-2.25-19.28,3.98-3.73,4.61-3.88,11.88-.5,16.81,4.94,7.19,11.85,7.63,19.54,5.09v5.78c-15.59,1.31-22.94-1.31-27.5-9.67-3.7-6.77-2.94-15.41,2.08-21.5,6.96-8.45,16.33-7.15,25.65-6.6v6.11Zm-7.81,5.07c3.99-.16,7.74,3.36,7.91,7.41.16,4.05-3.28,7.73-7.39,7.88-4.29.16-7.63-3-7.74-7.34-.11-4.26,3.09-7.79,7.23-7.96Z"/>
      <path d="m242.47,0C203.29,0,164.12,0,124.95,0S46.61,0,7.43,0C.29,0,0,.27,0,7.26c0,51.54,0,103.07,0,154.61,0,6.74.62,7.34,7.5,7.34,39.15,0,78.3,0,117.45,0s78.3,0,117.45,0c6.88,0,7.5-.6,7.5-7.34,0-51.54,0-103.07,0-154.61,0-6.99-.28-7.26-7.43-7.26Zm.11,161.9H7.32V46.48h235.25v115.42ZM45.31,38.66c3.35-3.67,7.41-4,11.53-4.01,11.66-.03,23.33-.02,34.99-.02,11.04,0,22.08,0,33.11-.01,11.04,0,22.08.01,33.11.01,11.66,0,23.33-.02,34.99.02,4.12.01,8.18.34,11.53,4.01H45.31Zm197.43.47c-9.29,0-18.1.07-26.9-.09-1.03-.02-2.31-1.12-3-2.06-4.57-6.28-10.76-9.31-18.42-9.31-23.16-.01-46.31,0-69.47,0-23.16,0-46.31-.02-69.47,0-7.66,0-13.85,3.04-18.42,9.31-.69.94-1.97,2.04-3,2.06-8.8.16-17.61.09-26.9.09V7.45h235.58v31.67Z"/>
    </g>
  </g>
</svg>