<?xml version="1.0" encoding="UTF-8"?>
<svg id="Layer_2" data-name="Layer 2" xmlns="http://www.w3.org/2000/svg" viewBox="0 0 226.81 226.81">
  <defs>
    <style>
      .cls-1 {
        fill: #12100b;
      }

      .cls-2 {
        fill: none;
        stroke: #12100b;
        stroke-miterlimit: 10;
        stroke-width: 10.31px;
      }
    </style>
  </defs>
  <g id="Layer_1-2" data-name="Layer 1">
    <g>
      <path class="cls-1" d="m147.97,113.47c0,18.99-15.66,34.51-34.82,34.5-18.83-.01-34.31-15.73-34.31-34.86,0-18.86,15.76-34.36,35.03-34.23,18.72.13,34.12,15.75,34.1,34.59m-34.72-11.53c-6.48.04-11.35,5.02-11.3,11.62.03,6.49,5.01,11.35,11.62,11.32,6.49-.04,11.34-5.04,11.3-11.61-.04-6.51-5.01-11.35-11.62-11.33"/>
      <path class="cls-1" d="m180.63,137.14c-7.16,18.98-23.84,35.4-42.42,42.43-2-4.96-4.02-9.94-6.08-14.99,15.73-6.72,27.11-17.7,33.86-33.51,4.93,2.05,9.78,4.05,14.64,6.07"/>
      <path class="cls-1" d="m88.53,47.12c2.12,5.19,4.11,10.11,6.14,15.13-15.74,6.7-27.13,17.69-33.88,33.5-4.87-2.01-9.69-4.02-14.76-6.1,8.44-19.96,22.51-34.05,42.5-42.53"/>
      <path class="cls-2" d="m221.65,113.4c0,59.78-48.46,108.25-108.25,108.25S5.16,173.18,5.16,113.4,53.62,5.16,113.41,5.16s108.25,48.46,108.25,108.24Z"/>
    </g>
  </g>
</svg>