<?xml version="1.0" encoding="UTF-8"?>
<svg id="Layer_2" data-name="Layer 2" xmlns="http://www.w3.org/2000/svg" viewBox="0 0 197.02 197.75">
  <g id="Layer_1-2" data-name="Layer 1">
    <g>
      <path d="m115.71,127.68c5.96,0,13.07.52,20.04-.21,3.69-.38,7.84-2.17,10.6-4.65,6.24-5.6,13.15-7.92,21.39-7.72,10.26.25,10.26.06,13.3-9.98,10.96-36.2-6.86-75.62-41.19-91.11-1-.45-2.07-.75-4.11-1.48,33.94,24.99,45.53,56.87,35.18,96.85-1.24-.14-1.89-.11-2.48-.3-1.2-.39-2.36-.89-3.86-1.48,6.73-21.99,4.83-43.05-6.76-62.93-8.4-14.41-20.42-24.9-35.72-31.48C91.02-.19,55.31,8.57,33.35,34.75c-20.53,24.48-25.73,65.03-.03,97.47-1.42,1.21-2.86,2.44-4.53,3.87-5.41-5.99-9.33-12.8-12.48-20.06C-5.17,66.61,26.34,9.1,79.72,1.82c21.17-2.89,42.86-3.41,62.92,6.56,30.92,15.36,46.91,40.6,48.01,75.04.34,10.67-1.99,21.07-6.38,31.76,3.32,0,6.06.01,8.8,0,2.7-.02,3.95,1.28,3.95,4.01-.03,16.29-.04,32.58,0,48.87,0,3.18-1.53,4.29-4.53,4.27-8.08-.07-16.16,0-24.24-.03-4.97-.02-9.37,1.52-12.91,4.99-5.75,5.63-12.64,7.83-20.59,7.77-18.34-.13-36.68.08-55.02-.11-5.77-.06-10.49,1.41-14.34,5.84-4.39,5.04-10.05,7.06-16.77,6.97-14.49-.19-28.99-.05-43.48-.06-4.47,0-5.12-.65-5.12-5.14-.02-15.39,0-30.78,0-46.17,0-5.39.36-5.77,5.62-5.78,14.24-.01,28.47-.07,42.71.03,5.04.04,9.17-1.52,12.73-5.17,2.2-2.25,5.09-3.82,7.41-5.99,1.07-.99,1.78-2.59,2.17-4.05,4.39-16.13,23.77-22.28,36.05-11.01,3.58,3.29,5.67,8.22,9.01,13.25Zm74.74,38.7v-44.85c-9.39,0-18.49,0-27.58,0-2.95,0-4.17,1.21-4.12,4.44.19,12.31.08,24.62.08,36.93v3.48h31.63ZM6.5,147v44.22h31.37v-44.22H6.5Zm133.19-12.91c-9.5,0-18.81.1-28.11-.06-2.87-.05-3.73.83-3.7,3.71.14,12.54.05,25.08.07,37.62,0,.98.18,1.96.28,2.96h31.44v-44.23Zm-82.6,54.38c5.03-3.18,9.45-7.24,14.64-8.92,5.26-1.7,11.29-1.03,17.32-1.42v-35.43c0-8.62,0-8.42-8.66-8.69-6.17-.19-11.24,1.44-15.39,6.19-1.64,1.88-4.08,3.03-6,4.69-.84.73-1.83,1.91-1.84,2.89-.12,13.57-.08,27.15-.08,40.68Zm20-60.97h30.19c-1.33-7.52-7.63-12.46-15.64-12.3-7.41.15-13.55,5.26-14.55,12.3Zm69.1,48.62c4.32-2.43,6.53-4.87,6.37-9.68-.4-12.13-.12-24.29-.14-36.44,0-1.04-.16-2.08-.36-4.37-2.46,2.95-5.58,4.94-5.64,7.03-.43,14.27-.23,28.57-.23,43.46Zm-101.47,15.12h5.86v-44.12h-5.86v44.12Zm50.9-56.97v44h5.99v-44h-5.99Z"/>
      <path d="m44.31,105.44c-12.35-.05-22.04-9.86-22.01-22.29.03-12.22,10.12-22.18,22.34-22.06,12.23.12,22.31,10.31,22.16,22.39-.16,12.22-10.19,22.01-22.49,21.96Zm.01-37.9c-8.74.05-15.9,7.26-15.8,15.92.1,8.61,7.46,15.81,16.09,15.74,8.78-.07,15.71-7.18,15.64-16.03-.07-8.9-6.98-15.67-15.94-15.63Z"/>
      <path d="m139.89,105.44c-12.43.02-22.19-9.67-22.21-22.05-.03-12.35,9.76-22.24,22.06-22.31,12.17-.07,22.27,9.94,22.35,22.15.09,12.14-9.95,22.19-22.2,22.21Zm-.16-37.9c-8.83.02-15.87,7.07-15.83,15.84.04,8.63,7.33,15.85,15.97,15.82,8.81-.03,15.72-7.06,15.69-15.96-.02-8.92-6.88-15.72-15.84-15.7Z"/>
      <path d="m92.15,57.77c-12.4,0-22.16-9.73-22.16-22.12,0-12.37,9.78-22.16,22.15-22.17,12.26,0,22.31,9.97,22.31,22.15,0,12.16-10.05,22.13-22.3,22.13Zm15.76-22.13c0-8.93-6.85-15.78-15.78-15.78-8.78,0-15.93,7.09-15.92,15.79,0,8.63,7.25,15.84,15.93,15.84,8.84,0,15.77-6.96,15.77-15.85Z"/>
      <path d="m104.74,83.46c-.05,7.06-5.76,12.71-12.75,12.6-6.83-.1-12.74-6.15-12.62-12.91.12-7,5.84-12.51,12.92-12.46,7.1.05,12.5,5.59,12.45,12.77Zm-12.42,6.2c3.4-.11,6.27-3.16,6.18-6.53-.1-3.37-3.17-6.31-6.51-6.21-3.41.1-6.21,3.09-6.12,6.55.09,3.51,3.01,6.31,6.45,6.2Z"/>
      <path d="m165.64,127.89h5.67v5.85h-5.67v-5.85Z"/>
      <path d="m178.01,133.78v-5.78h5.95v5.78h-5.95Z"/>
      <path d="m165.63,153.3h5.68v5.88h-5.68v-5.88Z"/>
      <path d="m178.1,153.32h5.91v5.94h-5.91v-5.94Z"/>
      <path d="m12.99,159.56v-6.24h5.83v5.95c-1.72.09-3.55.18-5.83.29Z"/>
      <path d="m25.56,159.18v-5.74h5.79v5.74h-5.79Z"/>
      <path d="m12.97,178.75h5.95v5.94c-1.84.09-3.76.18-5.95.29v-6.22Z"/>
      <path d="m25.55,184.64v-5.8h5.82v5.8h-5.82Z"/>
      <path d="m120.49,146.73h-5.68v-5.8h5.68v5.8Z"/>
      <path d="m133.09,146.76h-5.8v-5.88h5.8v5.88Z"/>
      <path d="m114.66,172v-5.66h5.83v5.66h-5.83Z"/>
      <path d="m127.24,166.24h5.91v5.85h-5.91v-5.85Z"/>
      <path d="m76.33,165.73v-5.91h5.91v5.91h-5.91Z"/>
      <path d="m82.31,140.95v5.75h-5.91v-5.75h5.91Z"/>
      <path d="m69.83,150.27v5.73h-5.91v-5.73h5.91Z"/>
      <path d="m63.8,175.12v-5.66h5.87v5.66h-5.87Z"/>
    </g>
  </g>
</svg>