<?xml version="1.0" encoding="UTF-8"?>
<svg id="Layer_2" data-name="Layer 2" xmlns="http://www.w3.org/2000/svg" viewBox="0 0 241.01 164.58">
  <defs>
    <style>
      .cls-1 {
        fill: #fff;
      }
    </style>
  </defs>
  <g id="Layer_1-2" data-name="Layer 1">
    <g>
      <path d="m120.53,164.58c-39.62,0-79.25,0-118.87,0-1.66,0-1.63,0-1.62-1.72.03-5.17.07-10.33.07-15.5,0-47.04-.01-94.08-.02-141.12,0-1.67.03-3.34-.08-5C-.06.25.35,0,1.22,0c1.62.02,3.25,0,4.87,0,73.83,0,147.66,0,221.49,0,3.92,0,7.83,0,11.75,0,1.65,0,1.65.02,1.65,1.62,0,28.17.02,56.33.02,84.5,0,25.75-.03,51.5-.01,77.25,0,1.1-.45,1.2-1.34,1.2-39.71-.01-79.41-.01-119.12-.01h0ZM19.09,40.35c0-.38,0-.62,0-.87,0-10.04-.03-20.08,0-30.12,0-1.03-.27-1.38-1.32-1.36-2.79.06-5.58.06-8.37.02-.94-.01-1.35.22-1.32,1.26.08,2.66.08,5.33.08,8,0,45.45,0,90.9-.01,136.35,0,2.93-.03,2.93,2.93,2.93,73.45,0,146.89,0,220.34,0,.52,0,1.04,0,1.54,0V8.09c-3.42,0-6.74-.01-10.06,0-.89,0-.86.67-.86,1.33,0,9.37,0,18.75,0,28.12,0,.9,0,1.81,0,2.8H19.09Zm194.78-8.09c.06-.28.12-.4.12-.52.02-7.54.02-15.08.05-22.62,0-.74-.28-1.08-1.01-1.08-.46,0-.92-.02-1.37-.02-12.37,0-24.75.01-37.12.01-48.5,0-97,0-145.5,0-.65,0-1.29.06-1.88.08v24.15h186.72Z"/>
      <path class="cls-1" d="m19.09,40.35h202.93c0-.99,0-1.89,0-2.8,0-9.37,0-18.75,0-28.12,0-.67-.03-1.33.86-1.33,3.32-.02,6.64,0,10.06,0v148.47c-.51,0-1.03,0-1.54,0-73.45,0-146.89,0-220.34,0-2.96,0-2.93,0-2.93-2.93,0-45.45.01-90.9.01-136.35,0-2.67,0-5.33-.08-8-.03-1.04.38-1.27,1.32-1.26,2.79.04,5.58.05,8.37-.02,1.05-.02,1.33.33,1.32,1.36-.03,10.04,0,20.08,0,30.12,0,.24,0,.49,0,.87Zm101.39,97.25v.02c9.67,0,19.33,0,29,0,19.12,0,38.24,0,57.37,0,5.64,0,9.94-4.44,9.79-10.08-.03-1.21-.07-2.42-.07-3.62,0-12.5-.02-25,0-37.49,0-5.71.12-11.41.12-17.12,0-3.16-1.15-5.81-3.65-7.87-2.18-1.8-4.74-2.13-7.39-2.14-24.54-.02-49.08-.01-73.61-.01-32.25,0-64.49-.02-96.74.05-1.86,0-3.89.32-5.56,1.1-3.66,1.71-5.28,4.88-5.27,8.91.01,19.41.01,38.82.03,58.24,0,.74.03,1.51.2,2.23,1.14,4.99,4.86,7.78,10.31,7.78,28.5,0,56.99,0,85.49,0Z"/>
      <path class="cls-1" d="m213.87,32.25H27.15V8.11c.59-.03,1.24-.08,1.88-.08,48.5,0,97,0,145.5,0,12.37,0,24.75,0,37.12-.01.46,0,.92.03,1.37.02.73,0,1.01.34,1.01,1.08-.03,7.54-.04,15.08-.05,22.62,0,.12-.05.24-.12.52Zm-12.26-8.02v-7.94H39.55v7.94h162.06Z"/>
      <path d="m120.48,137.6c-28.5,0-56.99,0-85.49,0-5.45,0-9.16-2.79-10.31-7.78-.17-.72-.2-1.49-.2-2.23-.02-19.41-.02-38.82-.03-58.24,0-4.02,1.61-7.2,5.27-8.91,1.67-.78,3.69-1.1,5.56-1.1,32.25-.06,64.49-.05,96.74-.05,24.54,0,49.08,0,73.61.01,2.65,0,5.21.34,7.39,2.14,2.5,2.06,3.65,4.71,3.65,7.87,0,5.71-.11,11.41-.12,17.12-.02,12.5,0,25,0,37.49,0,1.21.04,2.42.07,3.62.16,5.64-4.15,10.08-9.79,10.08-19.12,0-38.24,0-57.37,0-9.67,0-19.33,0-29,0v-.02Zm31.05-8.02v-62.16h-8.04v43.19c-3.37,0-6.61,0-9.85,0-11.37,0-22.74,0-34.11-.01-1.98,0-1.98-.02-1.98-2.04,0-13.2,0-26.41,0-39.61,0-.49,0-.98,0-1.55h-7.96c-.02.27-.05.47-.05.67-.02,20.04-.03,40.07-.07,60.11,0,1.01.15,1.46,1.34,1.46,19.45-.05,38.91-.04,58.36-.05.78,0,1.57,0,2.37,0Zm-89.97-62.2c-2.08,0-3.72,0-5.37,0-7.04,0-14.07-.03-21.11.05-2.71.03-2.53-.36-2.54,2.64-.02,19.11-.01,38.23-.01,57.34,0,1.96.18,2.16,2.12,2.17,8.37.04,16.74.06,25.11.07.52,0,1.03-.12,1.68-.2-9.69-8.18-15.28-18.19-15.29-30.9-.01-12.75,5.61-22.82,15.4-31.17Zm118.37-.02l-.23.23c9.67,8.05,15.21,18.16,15.23,30.86.03,12.69-5.53,22.76-15.01,31,1.56.13,3.08.13,4.6.13,7.33,0,14.66.01,21.99-.02,1.98,0,2.02-.11,2.02-2.01,0-19.2,0-38.41,0-57.61,0-.37,0-.75,0-1.12.01-.87-.43-1.31-1.28-1.37-.46-.03-.91-.08-1.37-.08-6.12,0-12.25,0-18.37-.01-2.53,0-5.05,0-7.58,0Zm-44.5,35.03v-34.93c-.42-.04-.75-.09-1.07-.09-9.24-.02-18.49-.02-27.73-.06-.85,0-1.05.33-1.05,1.11,0,11.03-.01,22.07-.05,33.1,0,.84.32,1.07,1.1,1.07,9.2-.03,18.4-.03,27.61-.05.4,0,.8-.09,1.2-.14Zm24.26,26.81c1.29-.2,2.41-.31,3.49-.56,15.55-3.65,27.66-19.63,22.55-38.46-3.35-12.34-11.99-19.61-24.45-22.32-1.39-.3-1.66-.01-1.64,1.47.03,2.83.01,5.66.1,8.49.01.38.46.9.84,1.08.97.45,2.04.7,3.04,1.11,12.31,5.07,16.3,20.43,8,30.83-2.75,3.45-6.21,5.86-10.51,7.03-.53.15-1.35.69-1.36,1.07-.11,3.32-.06,6.64-.06,10.26Zm-78.3-61.6c-9.34,1.48-16.93,5.79-21.95,13.7-7.12,11.21-7.24,22.84-.15,34.11,5.01,7.96,12.49,12.47,21.97,13.89.03-.61.06-.89.06-1.17,0-2.91-.06-5.83,0-8.74.01-.81-.19-1.18-1-1.38-3.43-.85-6.33-2.63-8.93-5.01-8.18-7.51-8.31-21.01-.28-28.7,2.68-2.57,5.73-4.37,9.3-5.35.38-.1.94-.55.95-.84.07-3.4.04-6.8.04-10.5Zm78.43,42.38c4.53-1.04,8.29-6.55,8.15-11.73-.13-4.92-4.05-10.38-8.15-11.13v22.86Zm-78.5-22.92c-.11,0-.25-.05-.35-.02-.27.09-.54.21-.8.34-4.49,2.37-7.1,6.04-7.1,11.16,0,5.14,2.73,8.74,7.17,11.14.84.46,1.15.16,1.13-.71-.02-1.21-.05-2.41-.05-3.62,0-6.06,0-12.13,0-18.3Z"/>
      <path d="m201.61,24.24H39.55v-7.94h162.06v7.94Z"/>
      <path class="cls-1" d="m151.52,129.58c-.8,0-1.59,0-2.37,0-19.45,0-38.91,0-58.36.05-1.19,0-1.35-.45-1.34-1.46.04-20.04.05-40.07.07-60.11,0-.2.03-.4.05-.67h7.96c0,.58,0,1.07,0,1.55,0,13.2,0,26.41,0,39.61,0,2.02,0,2.04,1.98,2.04,11.37,0,22.74,0,34.11.01,3.24,0,6.48,0,9.85,0v-43.19h8.04v62.16Z"/>
      <path class="cls-1" d="m61.56,67.38c-9.79,8.35-15.42,18.42-15.4,31.17.01,12.71,5.6,22.72,15.29,30.9-.65.08-1.17.2-1.68.2-8.37-.01-16.74-.03-25.11-.07-1.95,0-2.12-.21-2.12-2.17,0-19.11-.01-38.23.01-57.34,0-3-.17-2.61,2.54-2.64,7.04-.09,14.07-.04,21.11-.05,1.64,0,3.29,0,5.37,0Z"/>
      <path class="cls-1" d="m179.93,67.36c2.53,0,5.05,0,7.58,0,6.12,0,12.25,0,18.37.01.46,0,.91.04,1.37.08.85.06,1.29.5,1.28,1.37,0,.37,0,.75,0,1.12,0,19.2,0,38.41,0,57.61,0,1.91-.04,2-2.02,2.01-7.33.03-14.66.01-21.99.02-1.52,0-3.03,0-4.6-.13,9.49-8.24,15.04-18.31,15.01-31-.03-12.7-5.56-22.81-15.23-30.86l.23-.23Z"/>
      <path class="cls-1" d="m135.43,102.39c-.4.05-.8.14-1.2.14-9.2.02-18.4.03-27.61.05-.78,0-1.1-.23-1.1-1.07.04-11.03.05-22.07.05-33.1,0-.77.2-1.11,1.05-1.11,9.24.04,18.49.04,27.73.06.33,0,.65.05,1.07.09v34.93Z"/>
      <path class="cls-1" d="m159.69,129.2c0-3.62-.05-6.94.06-10.26.01-.38.83-.92,1.36-1.07,4.3-1.17,7.76-3.58,10.51-7.03,8.3-10.4,4.3-25.76-8-30.83-1-.41-2.06-.66-3.04-1.11-.38-.18-.83-.7-.84-1.08-.09-2.83-.07-5.66-.1-8.49-.02-1.48.25-1.77,1.64-1.47,12.47,2.71,21.11,9.98,24.45,22.32,5.11,18.83-7.01,34.82-22.55,38.46-1.08.25-2.19.36-3.49.56Z"/>
      <path class="cls-1" d="m81.39,67.6c0,3.7.02,7.1-.04,10.5,0,.29-.57.74-.95.84-3.57.98-6.62,2.78-9.3,5.35-8.02,7.69-7.89,21.19.28,28.7,2.6,2.39,5.5,4.16,8.93,5.01.81.2,1.01.57,1,1.38-.05,2.91,0,5.83,0,8.74,0,.28-.03.57-.06,1.17-9.47-1.42-16.96-5.93-21.97-13.89-7.09-11.27-6.97-22.9.15-34.11,5.03-7.91,12.61-12.22,21.95-13.7Z"/>
      <path class="cls-1" d="m159.81,109.98v-22.86c4.1.75,8.02,6.21,8.15,11.13.14,5.18-3.63,10.69-8.15,11.73Z"/>
      <path class="cls-1" d="m81.31,87.06c0,6.17,0,12.23,0,18.3,0,1.21.03,2.41.05,3.62.02.87-.29,1.16-1.13.71-4.44-2.4-7.16-6-7.17-11.14,0-5.13,2.61-8.79,7.1-11.16.25-.13.52-.25.8-.34.11-.04.24,0,.35.02Z"/>
    </g>
  </g>
</svg>