<?xml version="1.0" encoding="UTF-8"?>
<svg id="Layer_2" data-name="Layer 2" xmlns="http://www.w3.org/2000/svg" viewBox="0 0 242.64 242.81">
  <defs>
    <style>
      .cls-1 {
        fill: #fff;
      }

      .cls-2 {
        fill: #1d1d1b;
      }

      .cls-3 {
        fill: none;
        stroke: #000;
        stroke-miterlimit: 10;
        stroke-width: 2.54px;
      }
    </style>
  </defs>
  <g id="Layer_1-2" data-name="Layer 1">
    <g>
      <path class="cls-2" d="m206.05,35.6c2.75-7.59,5.41-15.01,8.14-22.39,1.12-3.06,2.34-6.09,3.61-9.09,1.11-2.6,2.71-3.38,4.77-2.52,2.43.99,3.27,2.82,2.38,5.34-7.29,20.35-14.58,40.7-21.97,61.01-.71,1.97-.47,2.83,1.53,3.62,3.76,1.51,4.3,2.72,2.99,6.57-2.34,6.89-4.77,13.77-7.29,20.61-1.35,3.65-2.58,4.24-6.34,2.97-4.7-1.6-9.37-3.34-13.97-5.23-2.85-1.17-3.33-2.39-2.33-5.3,2.33-6.82,4.7-13.63,7.19-20.38,1.69-4.57,2.86-5.04,7.62-3.7.57.17,1.15.32,1.96.55,1.94-5.31,3.86-10.6,5.78-15.89.09-.24.09-.54.24-.74,3.41-5.05,1.21-8.27-2.91-11.88-19.4-17.05-41.64-27.33-67.52-29.21-24.83-1.79-47.97,3.73-68.9,17.38-25.99,16.95-42.79,40.62-49.03,70.98-7.03,34.4.36,65.87,22.53,93.39,18.86,23.4,43.49,37.13,73.26,40.82,46.22,5.74,90.59-17.73,112.49-58.89,10.26-19.24,14.17-39.78,12.54-61.46-1.31-17.66-6.97-33.85-15.87-49.01-.75-1.26-1.37-2.59-2.16-3.82-1.25-1.97-.4-3.48,1.06-4.72,1.65-1.4,3.58-1.51,5.02.25,1.66,2.06,3.25,4.23,4.54,6.53,11.95,21.1,17.12,43.71,15.75,67.99-2.86,51.27-41.46,99.06-96.38,109.88-62.5,12.32-123.33-25.86-139.56-87.57C-9.83,94.48,19.51,36.75,69.83,13.04,89.49,3.78,110.03.15,131.66,1.91c27.7,2.28,51.43,13.24,71.91,31.7.55.53,1.14,1.05,1.71,1.56.13.11.29.17.76.43m-14.29,39.93c-1.16,3.11-2.16,5.82-3.15,8.53q-2.41,6.69,4.46,8.83c.13.04.33-.08.7-.2,1.64-4.57,3.33-9.26,5.13-14.22-2.47-1-4.64-1.9-7.14-2.93"/>
      <path class="cls-3" d="m206.05,35.6c2.75-7.59,5.41-15.01,8.14-22.39,1.12-3.06,2.34-6.09,3.61-9.09,1.11-2.6,2.71-3.38,4.77-2.52,2.43.99,3.27,2.82,2.38,5.34-7.29,20.35-14.58,40.7-21.97,61.01-.71,1.97-.47,2.83,1.53,3.62,3.76,1.51,4.3,2.72,2.99,6.57-2.34,6.89-4.77,13.77-7.29,20.61-1.35,3.65-2.58,4.24-6.34,2.97-4.7-1.6-9.37-3.34-13.97-5.23-2.85-1.17-3.33-2.39-2.33-5.3,2.33-6.82,4.7-13.63,7.19-20.38,1.69-4.57,2.86-5.04,7.62-3.7.57.17,1.15.32,1.96.55,1.94-5.31,3.86-10.6,5.78-15.89.09-.24.09-.54.24-.74,3.41-5.05,1.21-8.27-2.91-11.88-19.4-17.05-41.64-27.33-67.52-29.21-24.83-1.79-47.97,3.73-68.9,17.38-25.99,16.95-42.79,40.62-49.03,70.98-7.03,34.4.36,65.87,22.53,93.39,18.86,23.4,43.49,37.13,73.26,40.82,46.22,5.74,90.59-17.73,112.49-58.89,10.26-19.24,14.17-39.78,12.54-61.46-1.31-17.66-6.97-33.85-15.87-49.01-.75-1.26-1.37-2.59-2.16-3.82-1.25-1.97-.4-3.48,1.06-4.72,1.65-1.4,3.58-1.51,5.02.25,1.66,2.06,3.25,4.23,4.54,6.53,11.95,21.1,17.12,43.71,15.75,67.99-2.86,51.27-41.46,99.06-96.38,109.88-62.5,12.32-123.33-25.86-139.56-87.57C-9.83,94.48,19.51,36.75,69.83,13.04,89.49,3.78,110.03.15,131.66,1.91c27.7,2.28,51.43,13.24,71.91,31.7.55.53,1.14,1.05,1.71,1.56.13.11.29.17.76.43Zm-14.29,39.93c-1.16,3.11-2.16,5.82-3.15,8.53q-2.41,6.69,4.46,8.83c.13.04.33-.08.7-.2,1.64-4.57,3.33-9.26,5.13-14.22-2.47-1-4.64-1.9-7.14-2.93Z"/>
      <path class="cls-2" d="m153.12,121.5c1.39,15.94-14.48,32.38-32.46,31.94-14.79-.36-31.58-13.13-31.31-32.58.26-17.07,14.58-31.46,31.7-31.42,18.26.03,32.09,13.87,32.07,32.07m-7.94-.07c.02-13.01-10.72-23.79-23.75-23.83-13.17-.04-23.85,10.69-23.87,23.99-.02,12.95,10.6,23.6,23.6,23.62,13.29.02,24-10.56,24.03-23.78"/>
      <path class="cls-3" d="m153.12,121.5c1.39,15.94-14.48,32.38-32.46,31.94-14.79-.36-31.58-13.13-31.31-32.58.26-17.07,14.58-31.46,31.7-31.42,18.26.03,32.09,13.87,32.07,32.07Zm-7.94-.07c.02-13.01-10.72-23.79-23.75-23.83-13.17-.04-23.85,10.69-23.87,23.99-.02,12.95,10.6,23.6,23.6,23.62,13.29.02,24-10.56,24.03-23.78Z"/>
      <path class="cls-2" d="m163.54,198.32c-1.22-1.08-2.77-1.86-3.25-3.07-.42-1.09.08-2.76.67-3.94.46-.9,1.64-1.46,2.58-2.06,10.24-6.6,18.68-15.02,25.36-25.2.33-.51.65-1,.99-1.5,1.91-2.7,3.69-3.34,5.77-2.06,2.32,1.41,2.75,3.38,1.07,6.21-1.57,2.65-3.27,5.24-5.15,7.68-6.4,8.39-13.95,15.58-22.88,21.23-1.51.94-3.14,1.65-5.15,2.7"/>
      <path class="cls-3" d="m163.54,198.32c-1.22-1.08-2.77-1.86-3.25-3.07-.42-1.09.08-2.76.67-3.94.46-.9,1.64-1.46,2.58-2.06,10.24-6.6,18.68-15.02,25.36-25.2.33-.51.65-1,.99-1.5,1.91-2.7,3.69-3.34,5.77-2.06,2.32,1.41,2.75,3.38,1.07,6.21-1.57,2.65-3.27,5.24-5.15,7.68-6.4,8.39-13.95,15.58-22.88,21.23-1.51.94-3.14,1.65-5.15,2.7Z"/>
      <path class="cls-2" d="m79.32,44.57c1.07,1.04,2.37,1.99,3.23,3.22,1.07,1.54.26,3.06-1,4.09-1.58,1.29-3.39,2.32-5.07,3.5-9.54,6.7-17.34,15.05-23.69,24.84-.82,1.26-2.57,2.5-3.97,2.61-1.12.08-2.98-1.38-3.39-2.54-.43-1.28,0-3.29.81-4.46,3.34-4.78,6.74-9.56,10.54-13.95,5.37-6.21,11.7-11.38,18.8-15.53,1.03-.6,2.16-1.04,3.74-1.79"/>
      <path class="cls-3" d="m79.32,44.57c1.07,1.04,2.37,1.99,3.23,3.22,1.07,1.54.26,3.06-1,4.09-1.58,1.29-3.39,2.32-5.07,3.5-9.54,6.7-17.34,15.05-23.69,24.84-.82,1.26-2.57,2.5-3.97,2.61-1.12.08-2.98-1.38-3.39-2.54-.43-1.28,0-3.29.81-4.46,3.34-4.78,6.74-9.56,10.54-13.95,5.37-6.21,11.7-11.38,18.8-15.53,1.03-.6,2.16-1.04,3.74-1.79Z"/>
      <path class="cls-2" d="m155.13,184.39c-.96-.88-2.39-1.63-2.86-2.78-.44-1.04-.04-2.58.38-3.76.26-.7,1.19-1.2,1.9-1.68,8.6-5.87,15.79-13.11,21.71-21.7.85-1.22,2.65-2.42,4.06-2.48,2.83-.12,4.73,3.09,3.15,5.46-3.23,4.82-6.51,9.73-10.55,13.83-4.29,4.36-9.45,7.88-14.29,11.66-.83.66-2.03.86-3.5,1.46"/>
      <path class="cls-3" d="m155.13,184.39c-.96-.88-2.39-1.63-2.86-2.78-.44-1.04-.04-2.58.38-3.76.26-.7,1.19-1.2,1.9-1.68,8.6-5.87,15.79-13.11,21.71-21.7.85-1.22,2.65-2.42,4.06-2.48,2.83-.12,4.73,3.09,3.15,5.46-3.23,4.82-6.51,9.73-10.55,13.83-4.29,4.36-9.45,7.88-14.29,11.66-.83.66-2.03.86-3.5,1.46Z"/>
      <path class="cls-2" d="m90.88,63.86c-.65.68-1.61,2.08-2.92,2.98-7.07,4.85-13.22,10.68-18.46,17.45-1.27,1.62-2.4,3.35-3.63,5.01-1.41,1.9-3.24,2.14-5.23,1.06-2-1.12-2.51-2.99-1.35-5.33,3.09-6.18,7.77-11.14,12.8-15.68,3.99-3.6,8.4-6.79,12.87-9.8,2.74-1.84,5.96.2,5.92,4.31"/>
      <path class="cls-3" d="m90.88,63.86c-.65.68-1.61,2.08-2.92,2.98-7.07,4.85-13.22,10.68-18.46,17.45-1.27,1.62-2.4,3.35-3.63,5.01-1.41,1.9-3.24,2.14-5.23,1.06-2-1.12-2.51-2.99-1.35-5.33,3.09-6.18,7.77-11.14,12.8-15.68,3.99-3.6,8.4-6.79,12.87-9.8,2.74-1.84,5.96.2,5.92,4.31Z"/>
      <path class="cls-1" d="m191.76,75.54c2.51,1.03,4.68,1.93,7.14,2.93-1.8,4.96-3.49,9.66-5.13,14.22-.38.12-.57.24-.7.2q-6.87-2.13-4.46-8.83c.99-2.71,1.99-5.42,3.15-8.53"/>
      <path class="cls-3" d="m191.76,75.54c2.51,1.03,4.68,1.93,7.14,2.93-1.8,4.96-3.49,9.66-5.13,14.22-.38.12-.57.24-.7.2q-6.87-2.13-4.46-8.83c.99-2.71,1.99-5.42,3.15-8.53Z"/>
      <path class="cls-1" d="m145.17,121.43c-.03,13.22-10.72,23.81-24.03,23.78-13-.03-23.64-10.67-23.6-23.62.04-13.3,10.7-24.03,23.87-23.98,13.04.04,23.77,10.81,23.75,23.82m-23.81-7.93c-4.35-.01-8.06,3.69-8.02,8.01.04,4.06,3.87,7.93,7.9,7.99,4.14.06,8.12-3.83,8.2-8,.08-4.25-3.7-7.98-8.08-8"/>
      <path class="cls-3" d="m145.17,121.43c-.03,13.22-10.72,23.81-24.03,23.78-13-.03-23.64-10.67-23.6-23.62.04-13.3,10.7-24.03,23.87-23.98,13.04.04,23.77,10.81,23.75,23.82Zm-23.81-7.93c-4.35-.01-8.06,3.69-8.02,8.01.04,4.06,3.87,7.93,7.9,7.99,4.14.06,8.12-3.83,8.2-8,.08-4.25-3.7-7.98-8.08-8Z"/>
      <path class="cls-2" d="m121.36,113.51c4.38.02,8.16,3.75,8.08,8-.08,4.17-4.06,8.06-8.2,8-4.03-.06-7.87-3.93-7.9-7.99-.04-4.31,3.67-8.02,8.02-8.01"/>
      <path class="cls-3" d="m121.36,113.51c4.38.02,8.16,3.75,8.08,8-.08,4.17-4.06,8.06-8.2,8-4.03-.06-7.87-3.93-7.9-7.99-.04-4.31,3.67-8.02,8.02-8.01Z"/>
    </g>
  </g>
</svg>