<?xml version="1.0" encoding="UTF-8"?>
<svg id="Layer_2" data-name="Layer 2" xmlns="http://www.w3.org/2000/svg" viewBox="0 0 250 250">
  <defs>
    <style>
      .cls-1 {
        fill: #fff;
      }
    </style>
  </defs>
  <g id="Layer_1-2" data-name="Layer 1">
    <g>
      <path class="cls-1" d="m250,250H0V0h250v250ZM23.4,124.84c0,30.77,0,61.54,0,92.31,0,6.5,2.89,9.42,9.34,9.42,61.53,0,123.06,0,184.59,0,6.31,0,9.23-2.93,9.23-9.28,0-61.54,0-123.08,0-184.62,0-6.34-2.93-9.29-9.22-9.29-61.61,0-123.22,0-184.83,0-6.15,0-9.1,2.96-9.1,9.15,0,30.77,0,61.54,0,92.31Z"/>
      <path d="m23.4,124.84c0-30.77,0-61.54,0-92.31,0-6.19,2.95-9.15,9.1-9.15,61.61,0,123.22,0,184.83,0,6.29,0,9.22,2.95,9.22,9.29,0,61.54,0,123.08,0,184.62,0,6.35-2.91,9.28-9.23,9.28-61.53,0-123.06,0-184.59,0-6.44,0-9.34-2.92-9.34-9.42,0-30.77,0-61.54,0-92.31Zm187.47,31.39c-4,0-7.81.11-11.61-.05-1.97-.08-2.96.56-3.82,2.37-16.25,34.11-54.71,51.8-90.81,41.84-40.7-11.22-65.01-51.71-55.8-92.93,10.81-48.39,65.06-74.63,109.7-53.03,16.8,8.13,29.21,20.65,37.27,37.49.32.66.93,1.67,1.43,1.68,4.52.13,9.04.08,13.5.08v-54.55H39.19v171.61h171.69v-54.52Zm-32.08-62.52c-11.85-21.85-40.58-37.26-70.38-29.01-30.19,8.37-49.03,36.83-45.41,68.57,3.32,29.09,29.3,53,58.93,54.15,15.37.6,29.22-3.78,41.39-13.19,6.3-4.87,11.56-10.7,15.59-18.01-4.95,0-9.42.01-13.89,0-5.65-.02-8.79-3.12-8.8-8.73-.01-15.05-.01-30.1,0-45.16,0-5.5,3.13-8.61,8.63-8.63,4.55-.02,9.09,0,13.93,0Zm-6.76,15.74v30.96h38.77v-30.96h-38.77Z"/>
      <path class="cls-1" d="m210.88,156.23v54.52H39.19V39.14h171.55v54.55c-4.46,0-8.98.05-13.5-.08-.5-.01-1.12-1.02-1.43-1.68-8.06-16.84-20.47-29.36-37.27-37.49-44.63-21.6-98.88,4.63-109.7,53.03-9.21,41.22,15.1,81.71,55.8,92.93,36.11,9.96,74.57-7.73,90.81-41.84.87-1.82,1.85-2.46,3.82-2.37,3.8.16,7.61.05,11.61.05Z"/>
      <path class="cls-1" d="m178.8,93.71c-4.84,0-9.38-.01-13.93,0-5.5.02-8.62,3.13-8.63,8.63-.02,15.05-.02,30.1,0,45.16,0,5.61,3.14,8.71,8.8,8.73,4.47.01,8.94,0,13.89,0-4.03,7.31-9.29,13.14-15.59,18.01-12.18,9.41-26.03,13.78-41.39,13.19-29.63-1.15-55.62-25.06-58.93-54.15-3.62-31.74,15.22-60.2,45.41-68.57,29.79-8.26,58.53,7.16,70.38,29.01Zm-53.86,7.82c-12.86,0-23.42,10.6-23.39,23.47.03,12.89,10.6,23.43,23.47,23.4,12.9-.03,23.4-10.57,23.39-23.48,0-12.88-10.56-23.4-23.47-23.4Z"/>
      <path class="cls-1" d="m172.04,109.45h38.77v30.96h-38.77v-30.96Z"/>
      <path d="m124.94,101.53c12.91,0,23.47,10.52,23.47,23.4,0,12.91-10.49,23.45-23.39,23.48-12.87.03-23.44-10.51-23.47-23.4-.03-12.87,10.53-23.47,23.39-23.47Zm7.84,23.5c.03-4.24-3.44-7.8-7.68-7.87-4.24-.07-7.84,3.39-7.93,7.62-.09,4.35,3.47,8,7.8,8,4.24,0,7.78-3.51,7.81-7.74Z"/>
      <path class="cls-1" d="m132.79,125.03c-.03,4.24-3.57,7.75-7.81,7.74-4.33,0-7.89-3.65-7.8-8,.09-4.23,3.69-7.69,7.93-7.62,4.25.07,7.71,3.63,7.68,7.87Z"/>
    </g>
  </g>
</svg>