<?xml version="1.0" encoding="UTF-8"?>
<svg id="Layer_2" data-name="Layer 2" xmlns="http://www.w3.org/2000/svg" viewBox="0 0 114.68 202.07">
  <g id="Layer_1-2" data-name="Layer 1">
    <g>
      <path d="m114.63,101.5c0,28.68.02,57.36-.01,86.04,0,7.92-3.07,12.53-9.34,14.13-1.5.38-3.12.39-4.69.39-28.81.02-57.62.02-86.43.01-9.29,0-14.03-4.65-14.08-14.07C-.02,167.73,0,147.47,0,127.21,0,89.72.02,52.22.06,14.73.07,6.69,2.97,2.17,9.23.49,10.84.05,12.6.02,14.29.02,42.97,0,71.65,0,100.33,0c9.58,0,14.24,4.58,14.28,14.27.08,20.92.06,41.84.07,62.75,0,8.16,0,16.31,0,24.47h-.05Zm-7.07,60.15V27.09H7.13v134.56h100.43Zm-100.75,6.83c0,6.35,0,12.26,0,18.17,0,7.39,1.26,8.65,8.72,8.66,27.88,0,55.76,0,83.64,0,1.31,0,2.93.38,3.87-.24,1.79-1.18,4.44-2.87,4.55-4.5.49-7.28.21-14.61.21-22.09H6.81ZM107.69,20.09c.08-1.15.17-1.93.18-2.71.16-9.87-.57-10.62-10.29-10.62-27.2,0-54.4,0-81.6,0-1.44,0-2.89,0-4.33.15-2.91.3-4.53,2.11-4.76,4.89-.23,2.69-.05,5.41-.05,8.29h100.85Z"/>
      <path d="m57.24,192c-2.23-.13-4.53.05-6.67-.46-4.61-1.11-7.1-5.53-6.64-11.14.38-4.64,3.68-8.09,8.37-8.41,3.27-.22,6.58-.23,9.85-.02,5.48.35,8.67,4.26,8.6,10.19-.07,5.55-3.5,9.37-8.78,9.67-1.57.09-3.16.01-4.73.01,0,.05,0,.1,0,.15Zm.4-13.56c-1.42,0-2.47.02-3.52,0-2.27-.06-3.43,1.05-3.49,3.29-.06,2.2.97,3.48,3.23,3.58,1.18.05,2.38.14,3.54.01,2.61-.28,6.48,1.3,6.58-3.34.1-5.06-4.08-3.07-6.34-3.54Z"/>
      <path d="m57.16,16.72c-5.25,0-10.5-.02-15.75,0-2.21,0-4.04-.58-4.08-3.15-.04-2.76,1.84-3.41,4.24-3.4,10.5.03,21,.03,31.5,0,2.39,0,4.31.6,4.27,3.37-.04,2.85-2.16,3.19-4.44,3.18-5.25-.02-10.5,0-15.75-.01Z"/>
    </g>
  </g>
</svg>