<?xml version="1.0" encoding="UTF-8"?>
<svg id="Layer_2" data-name="Layer 2" xmlns="http://www.w3.org/2000/svg" viewBox="0 0 242.97 243.04">
  <defs>
    <style>
      .cls-1 {
        fill: #fff;
      }

      .cls-2 {
        fill: #1d1d1b;
      }

      .cls-3 {
        fill: none;
        stroke: #000;
        stroke-miterlimit: 10;
        stroke-width: 4.94px;
      }
    </style>
  </defs>
  <g id="Layer_1-2" data-name="Layer 1">
    <g>
      <path class="cls-2" d="m159.89,234.54h75.39c.49,0,1,0,1.49,0,2.25.03,3.72,1.21,3.71,3.01,0,1.79-1.44,2.92-3.75,2.92-39.6,0-79.19.32-118.77-.13-26-.29-49.35-9.11-69.78-25.15-21.31-16.72-35.69-38.23-41.98-64.61-9.27-38.93-1.31-74.33,24.11-105.32C48.43,23.2,71.94,9.72,99.98,4.48c62.66-11.73,124.14,28.93,137.52,91.14,8.1,37.6-.28,71.61-24.36,101.52-13.78,17.11-31.37,29.13-52.07,36.58-.4.15-.8.29-1.21.43,0,.13,0,.25,0,.38M121.08,8.58c-62.36.18-112.65,50.8-112.53,113.27.13,62.38,50.87,112.95,113.12,112.72,62.41-.24,112.92-50.88,112.78-113.09-.14-62.55-50.88-113.09-113.37-112.91"/>
      <path class="cls-3" d="m159.89,234.54h75.39c.49,0,1,0,1.49,0,2.25.03,3.72,1.21,3.71,3.01,0,1.79-1.44,2.92-3.75,2.92-39.6,0-79.19.32-118.77-.13-26-.29-49.35-9.11-69.78-25.15-21.31-16.72-35.69-38.23-41.98-64.61-9.27-38.93-1.31-74.33,24.11-105.32C48.43,23.2,71.94,9.72,99.98,4.48c62.66-11.73,124.14,28.93,137.52,91.14,8.1,37.6-.28,71.61-24.36,101.52-13.78,17.11-31.37,29.13-52.07,36.58-.4.15-.8.29-1.21.43,0,.13,0,.25,0,.38ZM121.08,8.58c-62.36.18-112.65,50.8-112.53,113.27.13,62.38,50.87,112.95,113.12,112.72,62.41-.24,112.92-50.88,112.78-113.09-.14-62.55-50.88-113.09-113.37-112.91Z"/>
      <path class="cls-1" d="m121.08,8.58c62.49-.19,113.23,50.35,113.37,112.91.15,62.21-50.37,112.85-112.79,113.09-62.24.23-112.98-50.35-113.11-112.72-.12-62.47,50.17-113.09,112.53-113.27m.28,209.03c4.18-.32,8.4-.5,12.55-1.02,7.45-.94,14.69-2.76,21.69-5.47,1.83-.7,2.53-2.05,2.08-3.96-.5-2.04-.98-4.08-1.63-6.08-3.34-10.27-8.08-19.69-16.52-26.79-6.44-5.43-13.77-8.19-22.3-6.73-7.71,1.32-13.67,5.59-18.61,11.39-6.95,8.18-10.94,17.83-13.46,28.17-.51,2.11.35,3.4,2.59,4.23,10.84,3.97,22.01,6.07,33.59,6.28M25.48,121.39c.15,2.65.28,5.3.46,7.96.66,9.06,2.7,17.81,5.94,26.29.75,1.94,2.14,2.67,4.12,2.16,2.1-.53,4.19-1.09,6.25-1.78,10.11-3.38,19.39-8.15,26.42-16.44,5.55-6.53,8.31-14,6.74-22.66-1.26-6.98-5.1-12.54-10.25-17.21-8.21-7.47-18.13-11.63-28.74-14.3-2.69-.67-3.83-.05-4.81,2.59-3.93,10.77-6.04,21.89-6.12,33.39m192.15.15c-.32-3.89-.52-7.78-.96-11.65-.91-7.83-2.91-15.41-5.73-22.77-.71-1.85-1.94-2.4-3.85-1.87-2.39.65-4.78,1.27-7.13,2.05-10.02,3.35-19.11,8.2-25.97,16.48-5.4,6.51-7.96,13.92-6.35,22.43,1.35,7.03,5.25,12.62,10.47,17.32,8.25,7.44,18.16,11.6,28.78,14.3,2.03.51,3.45-.31,4.21-2.36,4.13-10.92,6.26-22.22,6.53-33.92M121.52,25.64c-11.8.06-23.12,2.15-34.03,6.31-2.11.8-2.83,2.05-2.25,4.2.76,2.86,1.49,5.75,2.53,8.52,3.52,9.52,8.29,18.26,16.43,24.71,6.45,5.13,13.74,7.54,22.01,5.96,6.96-1.33,12.52-5.16,17.19-10.33,7.45-8.24,11.68-18.12,14.22-28.79.55-2.3-.1-3.47-2.3-4.3-10.91-4.17-22.23-6.22-33.79-6.29m-30.17,95.83c-.02,16.71,13.26,30.1,29.96,30.17,16.68.08,30.29-13.45,30.31-30.1,0-16.41-13.61-30.12-29.97-30.16-16.75-.04-30.28,13.4-30.3,30.09"/>
      <path class="cls-3" d="m121.08,8.58c62.49-.19,113.23,50.35,113.37,112.91.15,62.21-50.37,112.85-112.79,113.09-62.24.23-112.98-50.35-113.11-112.72-.12-62.47,50.17-113.09,112.53-113.27Zm.28,209.03c4.18-.32,8.4-.5,12.55-1.02,7.45-.94,14.69-2.76,21.69-5.47,1.83-.7,2.53-2.05,2.08-3.96-.5-2.04-.98-4.08-1.63-6.08-3.34-10.27-8.08-19.69-16.52-26.79-6.44-5.43-13.77-8.19-22.3-6.73-7.71,1.32-13.67,5.59-18.61,11.39-6.95,8.18-10.94,17.83-13.46,28.17-.51,2.11.35,3.4,2.59,4.23,10.84,3.97,22.01,6.07,33.59,6.28ZM25.48,121.39c.15,2.65.28,5.3.46,7.96.66,9.06,2.7,17.81,5.94,26.29.75,1.94,2.14,2.67,4.12,2.16,2.1-.53,4.19-1.09,6.25-1.78,10.11-3.38,19.39-8.15,26.42-16.44,5.55-6.53,8.31-14,6.74-22.66-1.26-6.98-5.1-12.54-10.25-17.21-8.21-7.47-18.13-11.63-28.74-14.3-2.69-.67-3.83-.05-4.81,2.59-3.93,10.77-6.04,21.89-6.12,33.39Zm192.15.15c-.32-3.89-.52-7.78-.96-11.65-.91-7.83-2.91-15.41-5.73-22.77-.71-1.85-1.94-2.4-3.85-1.87-2.39.65-4.78,1.27-7.13,2.05-10.02,3.35-19.11,8.2-25.97,16.48-5.4,6.51-7.96,13.92-6.35,22.43,1.35,7.03,5.25,12.62,10.47,17.32,8.25,7.44,18.16,11.6,28.78,14.3,2.03.51,3.45-.31,4.21-2.36,4.13-10.92,6.26-22.22,6.53-33.92ZM121.52,25.64c-11.8.06-23.12,2.15-34.03,6.31-2.11.8-2.83,2.05-2.25,4.2.76,2.86,1.49,5.75,2.53,8.52,3.52,9.52,8.29,18.26,16.43,24.71,6.45,5.13,13.74,7.54,22.01,5.96,6.96-1.33,12.52-5.16,17.19-10.33,7.45-8.24,11.68-18.12,14.22-28.79.55-2.3-.1-3.47-2.3-4.3-10.91-4.17-22.23-6.22-33.79-6.29Zm-30.17,95.83c-.02,16.71,13.26,30.1,29.96,30.17,16.68.08,30.29-13.45,30.31-30.1,0-16.41-13.61-30.12-29.97-30.16-16.75-.04-30.28,13.4-30.3,30.09Z"/>
      <path class="cls-2" d="m121.36,217.61c-11.58-.21-22.75-2.3-33.59-6.29-2.25-.82-3.11-2.11-2.58-4.22,2.5-10.33,6.5-20,13.45-28.17,4.94-5.79,10.9-10.07,18.61-11.39,8.53-1.45,15.86,1.29,22.3,6.73,8.44,7.11,13.18,16.53,16.52,26.8.65,1.99,1.13,4.04,1.63,6.08.44,1.9-.25,3.24-2.08,3.95-7,2.73-14.24,4.54-21.69,5.48-4.16.52-8.37.69-12.55,1.01m29.7-11.42c-.71-2.23-1.3-4.31-2.04-6.32-2.71-7.38-6.13-14.35-11.98-19.82-9.88-9.27-21.66-9.16-31.42.23-4.08,3.92-7.11,8.57-9.32,13.73-1.69,3.93-3.07,8.01-4.63,12.11,20.01,7.1,39.53,7.06,59.39.08"/>
      <path class="cls-3" d="m121.36,217.61c-11.58-.21-22.75-2.3-33.59-6.29-2.25-.82-3.11-2.11-2.58-4.22,2.5-10.33,6.5-20,13.45-28.17,4.94-5.79,10.9-10.07,18.61-11.39,8.53-1.45,15.86,1.29,22.3,6.73,8.44,7.11,13.18,16.53,16.52,26.8.65,1.99,1.13,4.04,1.63,6.08.44,1.9-.25,3.24-2.08,3.95-7,2.73-14.24,4.54-21.69,5.48-4.16.52-8.37.69-12.55,1.01Zm29.7-11.42c-.71-2.23-1.3-4.31-2.04-6.32-2.71-7.38-6.13-14.35-11.98-19.82-9.88-9.27-21.66-9.16-31.42.23-4.08,3.92-7.11,8.57-9.32,13.73-1.69,3.93-3.07,8.01-4.63,12.11,20.01,7.1,39.53,7.06,59.39.08Z"/>
      <path class="cls-2" d="m25.48,121.39c.09-11.51,2.19-22.61,6.12-33.39.98-2.65,2.12-3.26,4.81-2.59,10.62,2.67,20.53,6.83,28.74,14.3,5.15,4.67,8.99,10.23,10.25,17.21,1.57,8.66-1.19,16.13-6.74,22.66-7.03,8.29-16.31,13.05-26.42,16.44-2.05.69-4.15,1.25-6.25,1.78-1.98.51-3.36-.22-4.12-2.16-3.24-8.48-5.27-17.22-5.93-26.29-.19-2.66-.32-5.31-.47-7.96m11.46-29.44c-7.23,19.85-7.12,39.43,0,59.19,2.26-.74,4.38-1.38,6.46-2.13,7.41-2.67,14.25-6.29,19.72-12.11,8.54-9.1,9.02-20.06,1.01-29.58-7.07-8.43-16.77-12.32-27.19-15.36"/>
      <path class="cls-3" d="m25.48,121.39c.09-11.51,2.19-22.61,6.12-33.39.98-2.65,2.12-3.26,4.81-2.59,10.62,2.67,20.53,6.83,28.74,14.3,5.15,4.67,8.99,10.23,10.25,17.21,1.57,8.66-1.19,16.13-6.74,22.66-7.03,8.29-16.31,13.05-26.42,16.44-2.05.69-4.15,1.25-6.25,1.78-1.98.51-3.36-.22-4.12-2.16-3.24-8.48-5.27-17.22-5.93-26.29-.19-2.66-.32-5.31-.47-7.96Zm11.46-29.44c-7.23,19.85-7.12,39.43,0,59.19,2.26-.74,4.38-1.38,6.46-2.13,7.41-2.67,14.25-6.29,19.72-12.11,8.54-9.1,9.02-20.06,1.01-29.58-7.07-8.43-16.77-12.32-27.19-15.36Z"/>
      <path class="cls-2" d="m217.64,121.54c-.26,11.7-2.41,23-6.54,33.93-.76,2.04-2.18,2.86-4.21,2.35-10.62-2.69-20.53-6.86-28.78-14.29-5.22-4.71-9.12-10.29-10.47-17.32-1.61-8.49.93-15.91,6.35-22.42,6.86-8.28,15.96-13.14,25.97-16.48,2.34-.78,4.73-1.4,7.13-2.06,1.91-.53,3.13.03,3.85,1.88,2.81,7.36,4.82,14.94,5.73,22.77.44,3.87.65,7.77.97,11.65m-11.68-29.59c-2.2.7-4.33,1.3-6.4,2.05-7.68,2.81-14.81,6.55-20.37,12.77-8.09,9.05-8.09,20.49.02,29.49,4.83,5.36,10.81,8.99,17.44,11.64,3.02,1.21,6.11,2.2,9.27,3.32,7.16-19.92,7.26-39.46.04-59.27"/>
      <path class="cls-3" d="m217.64,121.54c-.26,11.7-2.41,23-6.54,33.93-.76,2.04-2.18,2.86-4.21,2.35-10.62-2.69-20.53-6.86-28.78-14.29-5.22-4.71-9.12-10.29-10.47-17.32-1.61-8.49.93-15.91,6.35-22.42,6.86-8.28,15.96-13.14,25.97-16.48,2.34-.78,4.73-1.4,7.13-2.06,1.91-.53,3.13.03,3.85,1.88,2.81,7.36,4.82,14.94,5.73,22.77.44,3.87.65,7.77.97,11.65Zm-11.68-29.59c-2.2.7-4.33,1.3-6.4,2.05-7.68,2.81-14.81,6.55-20.37,12.77-8.09,9.05-8.09,20.49.02,29.49,4.83,5.36,10.81,8.99,17.44,11.64,3.02,1.21,6.11,2.2,9.27,3.32,7.16-19.92,7.26-39.46.04-59.27Z"/>
      <path class="cls-2" d="m121.52,25.64c11.56.07,22.87,2.11,33.79,6.29,2.22.84,2.85,2,2.3,4.3-2.55,10.67-6.77,20.55-14.21,28.79-4.69,5.16-10.24,9-17.2,10.33-8.27,1.6-15.55-.82-22.01-5.95-8.14-6.46-12.91-15.2-16.43-24.72-1.03-2.78-1.76-5.66-2.53-8.52-.58-2.17.15-3.4,2.25-4.2,10.91-4.16,22.23-6.24,34.03-6.32m-29.74,11.42c1.15,3.21,2.13,6.38,3.38,9.46,2.77,6.83,6.48,13.06,12.23,17.89,8.18,6.88,17.95,7.26,26.6,1.03,5.58-4.03,9.37-9.5,12.2-15.63,1.89-4.12,3.38-8.42,5.08-12.71-20.05-7.26-39.62-7.27-59.49-.04"/>
      <path class="cls-3" d="m121.52,25.64c11.56.07,22.87,2.11,33.79,6.29,2.22.84,2.85,2,2.3,4.3-2.55,10.67-6.77,20.55-14.21,28.79-4.69,5.16-10.24,9-17.2,10.33-8.27,1.6-15.55-.82-22.01-5.95-8.14-6.46-12.91-15.2-16.43-24.72-1.03-2.78-1.76-5.66-2.53-8.52-.58-2.17.15-3.4,2.25-4.2,10.91-4.16,22.23-6.24,34.03-6.32Zm-29.74,11.42c1.15,3.21,2.13,6.38,3.38,9.46,2.77,6.83,6.48,13.06,12.23,17.89,8.18,6.88,17.95,7.26,26.6,1.03,5.58-4.03,9.37-9.5,12.2-15.63,1.89-4.12,3.38-8.42,5.08-12.71-20.05-7.26-39.62-7.27-59.49-.04Z"/>
      <path class="cls-2" d="m91.35,121.47c.03-16.69,13.57-30.13,30.3-30.09,16.35.04,29.98,13.75,29.97,30.16-.02,16.66-13.61,30.18-30.31,30.1-16.68-.07-29.98-13.46-29.96-30.17m6.01-.03c0,13.39,10.66,24.19,23.94,24.21,13.4.03,24.29-10.75,24.3-24.1,0-13.28-10.8-24.09-24.09-24.15-13.27-.06-24.12,10.76-24.14,24.03"/>
      <path class="cls-3" d="m91.35,121.47c.03-16.69,13.57-30.13,30.3-30.09,16.35.04,29.98,13.75,29.97,30.16-.02,16.66-13.61,30.18-30.31,30.1-16.68-.07-29.98-13.46-29.96-30.17Zm6.01-.03c0,13.39,10.66,24.19,23.94,24.21,13.4.03,24.29-10.75,24.3-24.1,0-13.28-10.8-24.09-24.09-24.15-13.27-.06-24.12,10.76-24.14,24.03Z"/>
      <path class="cls-1" d="m151.05,206.19c-19.86,6.99-39.39,7.02-59.39-.08,1.56-4.1,2.94-8.18,4.63-12.11,2.22-5.15,5.24-9.8,9.32-13.73,9.76-9.39,21.54-9.49,31.42-.23,5.84,5.47,9.27,12.45,11.98,19.82.74,2.01,1.33,4.08,2.04,6.32"/>
      <path class="cls-3" d="m151.05,206.19c-19.86,6.99-39.39,7.02-59.39-.08,1.56-4.1,2.94-8.18,4.63-12.11,2.22-5.15,5.24-9.8,9.32-13.73,9.76-9.39,21.54-9.49,31.42-.23,5.84,5.47,9.27,12.45,11.98,19.82.74,2.01,1.33,4.08,2.04,6.32Z"/>
      <path class="cls-1" d="m36.94,91.95c10.42,3.05,20.12,6.93,27.19,15.36,8,9.52,7.53,20.48-1.01,29.58-5.47,5.82-12.3,9.45-19.72,12.11-2.08.75-4.2,1.39-6.46,2.13-7.12-19.76-7.23-39.34,0-59.19"/>
      <path class="cls-3" d="m36.94,91.95c10.42,3.05,20.12,6.93,27.19,15.36,8,9.52,7.53,20.48-1.01,29.58-5.47,5.82-12.3,9.45-19.72,12.11-2.08.75-4.2,1.39-6.46,2.13-7.12-19.76-7.23-39.34,0-59.19Z"/>
      <path class="cls-1" d="m205.97,91.95c7.22,19.81,7.12,39.36-.04,59.27-3.16-1.12-6.26-2.11-9.27-3.32-6.63-2.65-12.61-6.28-17.44-11.64-8.11-9.01-8.11-20.45-.02-29.49,5.56-6.22,12.69-9.96,20.37-12.77,2.07-.75,4.2-1.35,6.4-2.05"/>
      <path class="cls-3" d="m205.97,91.95c7.22,19.81,7.12,39.36-.04,59.27-3.16-1.12-6.26-2.11-9.27-3.32-6.63-2.65-12.61-6.28-17.44-11.64-8.11-9.01-8.11-20.45-.02-29.49,5.56-6.22,12.69-9.96,20.37-12.77,2.07-.75,4.2-1.35,6.4-2.05Z"/>
      <path class="cls-1" d="m91.78,37.06c19.87-7.23,39.44-7.22,59.49.04-1.7,4.29-3.19,8.59-5.08,12.71-2.83,6.13-6.62,11.6-12.2,15.63-8.65,6.24-18.43,5.86-26.6-1.03-5.75-4.83-9.46-11.06-12.23-17.89-1.25-3.08-2.24-6.25-3.38-9.46"/>
      <path class="cls-3" d="m91.78,37.06c19.87-7.23,39.44-7.22,59.49.04-1.7,4.29-3.19,8.59-5.08,12.71-2.83,6.13-6.62,11.6-12.2,15.63-8.65,6.24-18.43,5.86-26.6-1.03-5.75-4.83-9.46-11.06-12.23-17.89-1.25-3.08-2.24-6.25-3.38-9.46Z"/>
      <path class="cls-1" d="m97.36,121.43c.02-13.27,10.88-24.09,24.14-24.03,13.3.06,24.09,10.87,24.09,24.15,0,13.35-10.9,24.13-24.3,24.1-13.28-.03-23.95-10.83-23.94-24.21"/>
      <path class="cls-3" d="m97.36,121.43c.02-13.27,10.88-24.09,24.14-24.03,13.3.06,24.09,10.87,24.09,24.15,0,13.35-10.9,24.13-24.3,24.1-13.28-.03-23.95-10.83-23.94-24.21Z"/>
    </g>
  </g>
</svg>