<?xml version="1.0" encoding="UTF-8"?>
<svg id="Layer_2" data-name="Layer 2" xmlns="http://www.w3.org/2000/svg" viewBox="0 0 291.9 175.13">
  <g id="Layer_1-2" data-name="Layer 1">
    <g>
      <path d="m146.27,0c45.39,0,90.79,0,136.18,0,9.01,0,9.45.42,9.45,9.15,0,52.28,0,104.57,0,156.85,0,8.53-.57,9.12-8.87,9.12-91.4,0-182.79,0-274.19,0-8.14,0-8.83-.66-8.83-8.54C0,113.89,0,61.2,0,8.51,0,.65.69,0,8.87,0,54.67,0,100.47,0,146.27,0ZM10.13,39.16v125.79h271.75V39.16H10.13Zm-.16-10.4h271.73V10.02H9.97v18.74Z"/>
      <path d="m145.95,145.93c-32.84,0-65.68-.09-98.52.1-4.61.03-7.48-1.61-10.12-5.15-17.36-23.27-17.37-54.24-.01-77.45,2.64-3.53,5.51-5.16,10.12-5.14,65.68.15,131.36.15,197.04,0,4.6-.01,7.48,1.6,10.12,5.14,17.36,23.26,17.36,54.18,0,77.46-2.64,3.54-5.51,5.18-10.12,5.15-32.84-.19-65.68-.1-98.52-.1Zm48.4-77.42h-96.58v67.39h96.58v-67.39Zm29.27-.43c13.07,9.05,19.54,19.97,19.58,34.16.04,14.26-6.95,25.03-19.1,33.99,6.54,0,11.63-.35,16.64.11,5.3,0,6.65-1.55,8.67-4.97,10.63-17.96,11.26-36.2,2.09-54.93-2.91-5.95-6.57-9.76-13.97-8.48-3.91.67-8.03.12-13.9.12Zm-155.45,68.15c-12.88-9.09-19.45-19.95-19.47-34.16-.02-14.26,6.91-25.06,19.14-33.99-6.56,0-11.65.35-16.66-.11-4.34-.39-6.66,1.52-8.68,4.95-10.82,18.42-11.33,36.99-1.48,56,2.81,5.42,6.22,7.16,12.77,7.42,4.21.17,8.44-.11,14.38-.11Zm19.12-5.26v-13.75c-9.69-2.73-14.22-7.49-14.3-14.92-.08-7.51,4.12-12.06,14.19-15.44v-13.7c-16.66.39-29.3,13.75-28.81,30.04.46,15.37,13.62,28.14,28.92,27.76Zm117.32.02c16.32.31,29.6-13.7,28.9-30.24-.73-17.22-17.19-29.22-29.19-27.06,0,1.3,0,2.7,0,4.1,0,3.02,0,6.05,0,8.96,10.18,3.36,14.56,7.75,14.54,14.96-.02,9.48-6.2,13.71-14.25,15.58v13.69Zm-117.31-33.9c-6.22,4.37-6.09,6.61,0,9.6v-9.6Zm117.29,10.12c6.21-4.36,6.09-6.61,0-9.59v9.59Z"/>
    </g>
  </g>
</svg>