<svg width="29" height="30" viewBox="0 0 29 30" fill="none" xmlns="http://www.w3.org/2000/svg">
<path d="M19.0592 14.5288C19.0592 17.1981 16.9699 19.3621 14.3926 19.3621C11.8152 19.3621 9.72591 17.1981 9.72591 14.5288C9.72591 11.8594 11.8152 9.69548 14.3926 9.69548C16.9699 9.69548 19.0592 11.8594 19.0592 14.5288ZM19.0592 14.5288V16.3413C19.0592 18.0097 20.3651 19.3621 21.9759 19.3621C23.5867 19.3621 24.8926 18.0097 24.8926 16.3413V14.5288C24.8926 8.52272 20.1916 3.65381 14.3926 3.65381C8.59359 3.65381 3.89258 8.52272 3.89258 14.5288C3.89258 20.535 8.59359 25.4038 14.3926 25.4038H19.0592" stroke="black" stroke-width="2" stroke-linecap="round" stroke-linejoin="round"/>
</svg>
