<svg width="58" height="46" viewBox="0 0 58 46" fill="none" xmlns="http://www.w3.org/2000/svg">
<path fill-rule="evenodd" clip-rule="evenodd" d="M48.58 3.01036L3.6951 10.2391C2.77215 10.3877 2.14446 11.2564 2.2931 12.1793L7.04758 41.7012C7.19622 42.6241 8.06491 43.2518 8.98785 43.1032L53.8727 35.8745C54.7957 35.7258 55.4234 34.8571 55.2747 33.9342L50.5202 4.41237C50.3716 3.48942 49.5029 2.86172 48.58 3.01036ZM3.4382 8.64388C1.63426 8.93441 0.407392 10.6323 0.697916 12.4362L5.4524 41.9581C5.74293 43.762 7.44082 44.9889 9.24476 44.6983L54.1296 37.4696C55.9336 37.1791 57.1604 35.4812 56.8699 33.6773L52.1154 4.15546C51.8249 2.35152 50.127 1.12466 48.3231 1.41518L3.4382 8.64388Z" fill="black"/>
<path fill-rule="evenodd" clip-rule="evenodd" d="M47.8488 15.2743L8.20753 21.6585C8.08167 21.6788 7.99608 21.7973 8.01635 21.9231L10.661 38.3442C10.6812 38.4701 10.7997 38.5557 10.9256 38.5354L50.5669 32.1512C50.6927 32.1309 50.7783 32.0124 50.758 31.8866L48.1134 15.4655C48.0932 15.3396 47.9747 15.254 47.8488 15.2743ZM7.92616 19.9114C6.8354 20.0871 6.09358 21.1137 6.26924 22.2045L8.91386 38.6256C9.08953 39.7163 10.1162 40.4582 11.2069 40.2825L50.8482 33.8983C51.939 33.7226 52.6808 32.696 52.5052 31.6052L49.8605 15.1841C49.6849 14.0934 48.6582 13.3515 47.5675 13.5272L7.92616 19.9114Z" fill="black"/>
<path fill-rule="evenodd" clip-rule="evenodd" d="M18.5611 31.082C19.8996 30.8664 20.8099 29.6066 20.5943 28.2681C20.3788 26.9296 19.119 26.0193 17.7805 26.2348C16.442 26.4504 15.5317 27.7102 15.7472 29.0487C15.9628 30.3872 17.2226 31.2975 18.5611 31.082ZM18.8547 32.905C21.2 32.5273 22.7951 30.3198 22.4174 27.9745C22.0397 25.6291 19.8322 24.0341 17.4869 24.4118C15.1415 24.7895 13.5464 26.997 13.9242 29.3423C14.3019 31.6877 16.5093 33.2827 18.8547 32.905Z" fill="black"/>
<path fill-rule="evenodd" clip-rule="evenodd" d="M40.9126 27.4824C42.2511 27.2668 43.1615 26.007 42.9459 24.6685C42.7303 23.33 41.4705 22.4197 40.132 22.6352C38.7935 22.8508 37.8832 24.1106 38.0988 25.4491C38.3143 26.7876 39.5742 27.6979 40.9126 27.4824ZM41.2063 29.3054C43.5516 28.9277 45.1467 26.7202 44.769 24.3749C44.3912 22.0295 42.1838 20.4345 39.8384 20.8122C37.4931 21.1899 35.898 23.3974 36.2757 25.7427C36.6534 28.0881 38.8609 29.6831 41.2063 29.3054Z" fill="black"/>
<path fill-rule="evenodd" clip-rule="evenodd" d="M41.323 30.0235C44.0649 29.5819 45.9297 27.0012 45.4881 24.2593C45.0465 21.5174 42.4658 19.6526 39.7239 20.0942C36.982 20.5357 35.1172 23.1165 35.5588 25.8584C36.0004 28.6003 38.5811 30.465 41.323 30.0235ZM41.6166 31.8465C45.3654 31.2428 47.9149 27.7144 47.3112 23.9657C46.7074 20.2169 43.179 17.6674 39.4303 18.2711C35.6815 18.8748 33.132 22.4032 33.7357 26.152C34.3395 29.9007 37.8679 32.4503 41.6166 31.8465Z" fill="black"/>
<path fill-rule="evenodd" clip-rule="evenodd" d="M18.9714 33.6231C21.7133 33.1815 23.5781 30.6008 23.1365 27.8589C22.695 25.117 20.1142 23.2522 17.3723 23.6938C14.6304 24.1354 12.7657 26.7161 13.2072 29.458C13.6488 32.1999 16.2295 34.0647 18.9714 33.6231ZM19.2651 35.4461C23.0138 34.8424 25.5633 31.314 24.9596 27.5653C24.3559 23.8165 20.8275 21.267 17.0787 21.8707C13.33 22.4744 10.7804 26.0028 11.3842 29.7516C11.9879 33.5003 15.5163 36.0499 19.2651 35.4461Z" fill="black"/>
<path fill-rule="evenodd" clip-rule="evenodd" d="M39.6988 19.9422L17.3479 23.5418C14.5221 23.9969 12.6002 26.6566 13.0553 29.4824C13.5104 32.3082 16.1701 34.2301 18.9959 33.775L41.3468 30.1754C44.1726 29.7203 46.0945 27.0606 45.6394 24.2348C45.1843 21.409 42.5246 19.4871 39.6988 19.9422ZM17.0787 21.8707C13.33 22.4744 10.7804 26.0028 11.3842 29.7516C11.9879 33.5003 15.5163 36.0499 19.2651 35.4461L41.616 31.8465C45.3647 31.2428 47.9143 27.7144 47.3105 23.9656C46.7068 20.2169 43.1784 17.6674 39.4297 18.2711L17.0787 21.8707Z" fill="black"/>
<path d="M8.56603 9.78396L8.24219 9.52443L10.0072 9.24017L13.4216 14.4046C13.8466 14.7893 13.9931 14.7957 14.2601 14.8188L39.7659 10.7111C40.0696 10.5374 40.2361 10.3792 40.4852 10.0164L42.0523 4.0793L43.9331 3.7764L43.6273 4.18187L41.7599 11.2953C41.5469 11.7754 41.3561 11.9712 40.8231 12.1141L13.7547 16.4735C13.146 16.4325 12.8473 16.3017 12.4384 15.7652L8.56603 9.78396Z" fill="black"/>
<path fill-rule="evenodd" clip-rule="evenodd" d="M41.9422 4.04973C41.9538 4.00561 41.9903 3.9725 42.0354 3.96524L43.9161 3.66235C43.9627 3.65486 44.009 3.67639 44.0334 3.71674C44.0577 3.75709 44.055 3.80817 44.0266 3.84578L43.7346 4.23307L41.8729 11.3245C41.8714 11.3305 41.8693 11.3364 41.8668 11.342C41.7581 11.587 41.6492 11.7737 41.4901 11.9168C41.3303 12.0607 41.1298 12.1516 40.8544 12.2255C40.8506 12.2265 40.8468 12.2273 40.8429 12.228L13.7745 16.5873C13.7659 16.5887 13.7571 16.5891 13.7484 16.5885C13.4383 16.5677 13.1927 16.5232 12.9699 16.4075C12.7467 16.2915 12.5576 16.1099 12.3481 15.8351C12.3463 15.8327 12.3446 15.8303 12.343 15.8278L8.48073 9.86223L8.17145 9.61437C8.13584 9.58583 8.12039 9.53899 8.13203 9.49487C8.14367 9.45075 8.18022 9.41763 8.22527 9.41037L9.99029 9.12612C10.0351 9.11891 10.0799 9.13858 10.1049 9.17641L13.5112 14.3287C13.7142 14.5113 13.8431 14.5968 13.9468 14.6411C14.0467 14.6837 14.1294 14.6914 14.2572 14.7025L39.7281 10.6004C39.998 10.4436 40.1504 10.2997 40.3802 9.96733L41.9422 4.04973ZM42.1462 4.1812L40.5983 10.0457C40.5949 10.0585 40.5893 10.0706 40.5818 10.0816C40.3249 10.4557 40.1463 10.6272 39.8247 10.8111C39.8126 10.818 39.7994 10.8227 39.7857 10.8249L14.2798 14.9326C14.2705 14.9341 14.261 14.9345 14.2516 14.9337C14.2455 14.9331 14.2395 14.9326 14.2335 14.9321C14.1093 14.9215 13.9923 14.9115 13.8562 14.8533C13.7155 14.7933 13.5613 14.6854 13.3455 14.4901C13.3384 14.4836 13.332 14.4763 13.3267 14.4682L9.95345 9.36584L8.51875 9.5969L8.63964 9.69379C8.64928 9.70152 8.65763 9.71075 8.66434 9.72112L12.5343 15.6987C12.7325 15.9582 12.8965 16.1092 13.0763 16.2027C13.2546 16.2953 13.4593 16.3369 13.7509 16.3573L40.8003 12.001C41.0546 11.9323 41.2146 11.8542 41.3358 11.7452C41.4571 11.636 41.5493 11.4871 41.6521 11.2569L43.5171 4.15245C43.5209 4.13792 43.5275 4.12427 43.5366 4.11227L43.6696 3.93584L42.1462 4.1812Z" fill="black"/>
<path d="M39.4559 7.50199C39.5833 8.29285 39.0454 9.03723 38.2546 9.1646C37.4637 9.29196 36.7193 8.7541 36.5919 7.96323C36.4646 7.17237 37.0024 6.428 37.7933 6.30063C38.5842 6.17326 39.3285 6.71113 39.4559 7.50199Z" fill="black"/>
<path d="M16.8211 11.1475C16.9485 11.9384 16.4106 12.6827 15.6198 12.8101C14.8289 12.9375 14.0846 12.3996 13.9572 11.6087C13.8298 10.8179 14.3677 10.0735 15.1585 9.94614C15.9494 9.81877 16.6938 10.3566 16.8211 11.1475Z" fill="black"/>
<path d="M20.3684 10.6605C20.2965 10.2143 20.6 9.79428 21.0463 9.72241L32.8363 7.82363C33.2825 7.75176 33.7025 8.05526 33.7744 8.5015V8.5015C33.8463 8.94774 33.5428 9.36775 33.0965 9.43962L21.3065 11.3384C20.8603 11.4103 20.4403 11.1068 20.3684 10.6605V10.6605Z" fill="black"/>
</svg>
