<svg width="48" height="48" viewBox="0 0 48 48" fill="none" xmlns="http://www.w3.org/2000/svg">
<path fill-rule="evenodd" clip-rule="evenodd" d="M24.2905 45.4914C36.226 45.4914 45.9016 35.8158 45.9016 23.8804C45.9016 11.9449 36.226 2.26935 24.2905 2.26935C12.3551 2.26935 2.6795 11.9449 2.6795 23.8804C2.6795 35.8158 12.3551 45.4914 24.2905 45.4914ZM24.2905 47.4482C37.3067 47.4482 47.8584 36.8965 47.8584 23.8804C47.8584 10.8642 37.3067 0.3125 24.2905 0.3125C11.2744 0.3125 0.722656 10.8642 0.722656 23.8804C0.722656 36.8965 11.2744 47.4482 24.2905 47.4482Z" fill="black"/>
<path fill-rule="evenodd" clip-rule="evenodd" d="M24.2901 14.9275C26.6825 14.9275 28.6219 12.9881 28.6219 10.5957C28.6219 8.20335 26.6825 6.26394 24.2901 6.26394C21.8977 6.26394 19.9583 8.20335 19.9583 10.5957C19.9583 12.9881 21.8977 14.9275 24.2901 14.9275ZM24.2901 16.9874C27.8201 16.9874 30.6817 14.1257 30.6817 10.5957C30.6817 7.06574 27.8201 4.2041 24.2901 4.2041C20.7601 4.2041 17.8984 7.06574 17.8984 10.5957C17.8984 14.1257 20.7601 16.9874 24.2901 16.9874Z" fill="black"/>
<path fill-rule="evenodd" clip-rule="evenodd" d="M24.2901 42.2576C26.6825 42.2576 28.6219 40.3182 28.6219 37.9258C28.6219 35.5334 26.6825 33.594 24.2901 33.594C21.8977 33.594 19.9583 35.5334 19.9583 37.9258C19.9583 40.3182 21.8977 42.2576 24.2901 42.2576ZM24.2901 44.3175C27.8201 44.3175 30.6817 41.4558 30.6817 37.9258C30.6817 34.3958 27.8201 31.5342 24.2901 31.5342C20.7601 31.5342 17.8984 34.3958 17.8984 37.9258C17.8984 41.4558 20.7601 44.3175 24.2901 44.3175Z" fill="black"/>
<path fill-rule="evenodd" clip-rule="evenodd" d="M37.9522 28.8328C40.3446 28.8328 42.284 26.8934 42.284 24.501C42.284 22.1086 40.3446 20.1692 37.9522 20.1692C35.5598 20.1692 33.6204 22.1086 33.6204 24.501C33.6204 26.8934 35.5598 28.8328 37.9522 28.8328ZM37.9522 30.8927C41.4822 30.8927 44.3438 28.031 44.3438 24.501C44.3438 20.971 41.4822 18.1094 37.9522 18.1094C34.4222 18.1094 31.5605 20.971 31.5605 24.501C31.5605 28.031 34.4222 30.8927 37.9522 30.8927Z" fill="black"/>
<path fill-rule="evenodd" clip-rule="evenodd" d="M10.6162 28.8328C13.0086 28.8328 14.948 26.8934 14.948 24.501C14.948 22.1086 13.0086 20.1692 10.6162 20.1692C8.22386 20.1692 6.28445 22.1086 6.28445 24.501C6.28445 26.8934 8.22386 28.8328 10.6162 28.8328ZM10.6162 30.8927C14.1463 30.8927 17.0079 28.031 17.0079 24.501C17.0079 20.971 14.1463 18.1094 10.6162 18.1094C7.08624 18.1094 4.22461 20.971 4.22461 24.501C4.22461 28.031 7.08624 30.8927 10.6162 30.8927Z" fill="black"/>
<path fill-rule="evenodd" clip-rule="evenodd" d="M24.2164 26.3096C25.2155 26.3096 26.0254 25.4997 26.0254 24.5006C26.0254 23.5016 25.2155 22.6917 24.2164 22.6917C23.2174 22.6917 22.4075 23.5016 22.4075 24.5006C22.4075 25.4997 23.2174 26.3096 24.2164 26.3096ZM24.2164 28.3694C26.3531 28.3694 28.0852 26.6373 28.0852 24.5006C28.0852 22.364 26.3531 20.6318 24.2164 20.6318C22.0798 20.6318 20.3477 22.364 20.3477 24.5006C20.3477 26.6373 22.0798 28.3694 24.2164 28.3694Z" fill="black"/>
</svg>
