<svg width="54" height="40" viewBox="0 0 54 40" fill="none" xmlns="http://www.w3.org/2000/svg">
<path fill-rule="evenodd" clip-rule="evenodd" d="M7.55257 2.74285L2.11722 28.1748L46.4678 37.6534L51.9031 12.2215L7.55257 2.74285ZM6.97583 0.835349C6.55339 0.745065 6.13775 1.01433 6.04746 1.43677L0.209723 28.7515C0.119439 29.1739 0.388706 29.5896 0.811145 29.6799L47.0445 39.5609C47.4669 39.6512 47.8826 39.3819 47.9729 38.9595L53.8106 11.6448C53.9009 11.2223 53.6316 10.8067 53.2092 10.7164L6.97583 0.835349Z" fill="black"/>
<path d="M6.91016 5.7002L51.3646 15.2011L50.9476 17.1523L6.49313 7.65144L6.91016 5.7002Z" fill="black"/>
<path fill-rule="evenodd" clip-rule="evenodd" d="M44.2032 17.9725C44.2926 17.9913 44.3783 18.025 44.4565 18.0723L45.8175 18.8951C46.0033 19.0075 46.1364 19.1896 46.187 19.4007C46.884 22.3052 47.0699 24.5837 46.5876 26.7662C46.1064 28.9435 44.9794 30.9361 43.2223 33.3018C43.0899 33.4802 42.8901 33.5965 42.6697 33.6236L41.0912 33.8183C41.0015 33.8293 40.9105 33.8253 40.8221 33.8064L8.60181 26.9203C8.51964 26.9027 8.4407 26.8725 8.36779 26.8308L7.05129 26.0765C6.84959 25.961 6.70706 25.7645 6.65979 25.5369C6.07275 22.7104 5.86232 20.4625 6.29611 18.3069C6.73169 16.1426 7.79847 14.1585 9.60246 11.8182C9.72109 11.6643 9.89097 11.558 10.0813 11.5186L11.6273 11.1989C11.7366 11.1763 11.8495 11.1764 11.9588 11.1994L44.2032 17.9725ZM11.7905 12.824L10.7073 13.0481C9.09977 15.1735 8.2428 16.8678 7.88868 18.6274C7.5358 20.3809 7.66555 22.2789 8.1777 24.8496L9.06533 25.3582L41.028 32.1893L42.1237 32.0542C43.7019 29.892 44.6098 28.1875 45.0014 26.4157C45.3923 24.6466 45.2863 22.7281 44.6846 20.1086L43.7341 19.5339L11.7905 12.824Z" fill="black"/>
<mask id="mask0_112_1516" style="mask-type:alpha" maskUnits="userSpaceOnUse" x="9" y="13" width="15" height="14">
<path fill-rule="evenodd" clip-rule="evenodd" d="M15.5671 24.9234C18.0583 25.4558 20.5096 23.8679 21.042 21.3766C21.5744 18.8853 19.9865 16.4341 17.4952 15.9016C15.0039 15.3692 12.5527 16.9571 12.0203 19.4484C11.4878 21.9397 13.0758 24.3909 15.5671 24.9234ZM15.1647 26.8062C18.6958 27.5609 22.1701 25.3101 22.9248 21.779C23.6795 18.2478 21.4287 14.7735 17.8976 14.0188C14.3665 13.2641 10.8921 15.5149 10.1374 19.046C9.38276 22.5772 11.6335 26.0515 15.1647 26.8062Z" fill="#FF0000"/>
</mask>
<g mask="url(#mask0_112_1516)">
<path d="M11.5039 12.6523L20.0037 14.4689L17.2708 27.2563L8.77097 25.4397L11.5039 12.6523Z" fill="black"/>
<path d="M18.2773 14.0996L20.0275 14.4737L17.2946 27.261L15.5444 26.887L18.2773 14.0996Z" fill="black"/>
</g>
<mask id="mask1_112_1516" style="mask-type:alpha" maskUnits="userSpaceOnUse" x="29" y="18" width="14" height="14">
<path fill-rule="evenodd" clip-rule="evenodd" d="M37.2884 20.1313C34.7971 19.5989 32.3459 21.1868 31.8135 23.6781C31.281 26.1694 32.869 28.6206 35.3603 29.1531C37.8516 29.6855 40.3028 28.0975 40.8352 25.6063C41.3677 23.115 39.7797 20.6638 37.2884 20.1313ZM37.6908 18.2485C34.1597 17.4938 30.6853 19.7446 29.9307 23.2757C29.176 26.8069 31.4267 30.2812 34.9579 31.0359C38.489 31.7906 41.9634 29.5398 42.718 26.0087C43.4727 22.4775 41.2219 19.0032 37.6908 18.2485Z" fill="#FF0000"/>
</mask>
<g mask="url(#mask1_112_1516)">
<path d="M41.3516 32.4023L32.8517 30.5857L35.5847 17.7984L44.0845 19.615L41.3516 32.4023Z" fill="black"/>
<path d="M34.582 30.9561L32.8319 30.582L35.5648 17.7946L37.315 18.1687L34.582 30.9561Z" fill="black"/>
</g>
<mask id="mask2_112_1516" style="mask-type:alpha" maskUnits="userSpaceOnUse" x="32" y="21" width="8" height="7">
<path fill-rule="evenodd" clip-rule="evenodd" d="M36.1801 23.2712C35.472 23.1199 34.7753 23.5712 34.624 24.2793C34.4727 24.9873 34.924 25.684 35.6321 25.8353C36.3401 25.9866 37.0368 25.5353 37.1881 24.8273C37.3394 24.1192 36.8881 23.4225 36.1801 23.2712ZM36.5825 21.3884C34.8346 21.0148 33.1148 22.129 32.7412 23.8769C32.3676 25.6248 33.4818 27.3446 35.2297 27.7181C36.9776 28.0917 38.6974 26.9776 39.0709 25.2297C39.4445 23.4818 38.3304 21.762 36.5825 21.3884Z" fill="#FF0000"/>
</mask>
<g mask="url(#mask2_112_1516)">
<path d="M38.3945 28.3945L34.1871 27.4953L35.5399 21.1656L39.7473 22.0648L38.3945 28.3945Z" fill="black"/>
<path d="M35.043 27.6777L34.1767 27.4926L35.5294 21.1629L36.3958 21.348L35.043 27.6777Z" fill="black"/>
</g>
<mask id="mask3_112_1516" style="mask-type:alpha" maskUnits="userSpaceOnUse" x="12" y="17" width="8" height="7">
<path fill-rule="evenodd" clip-rule="evenodd" d="M15.7223 21.5794C16.4303 21.7307 17.127 21.2794 17.2783 20.5713C17.4297 19.8633 16.9783 19.1666 16.2703 19.0153C15.5622 18.8639 14.8656 19.3153 14.7142 20.0233C14.5629 20.7314 15.0142 21.428 15.7223 21.5794ZM15.3199 23.4622C17.0678 23.8358 18.7876 22.7216 19.1611 20.9737C19.5347 19.2258 18.4206 17.506 16.6727 17.1325C14.9248 16.7589 13.205 17.873 12.8314 19.6209C12.4578 21.3688 13.572 23.0886 15.3199 23.4622Z" fill="#FF0000"/>
</mask>
<g mask="url(#mask3_112_1516)">
<path d="M13.5078 16.4561L17.7152 17.3553L16.3624 23.685L12.155 22.7858L13.5078 16.4561Z" fill="black"/>
<path d="M16.8594 17.1729L17.7257 17.358L16.3729 23.6877L15.5066 23.5026L16.8594 17.1729Z" fill="black"/>
</g>
</svg>
