<svg width="57" height="47" viewBox="0 0 57 47" fill="none" xmlns="http://www.w3.org/2000/svg">
<path fill-rule="evenodd" clip-rule="evenodd" d="M18.3509 23.0165C19.1632 23.2432 20.0054 22.7686 20.2321 21.9563C20.4588 21.1441 19.9842 20.3019 19.1719 20.0752C18.3597 19.8484 17.5175 20.3231 17.2907 21.1353C17.064 21.9476 17.5387 22.7898 18.3509 23.0165ZM17.941 24.4851C19.5643 24.9382 21.2476 23.9896 21.7007 22.3663C22.1538 20.7429 21.2052 19.0597 19.5819 18.6066C17.9585 18.1535 16.2753 19.1021 15.8222 20.7254C15.369 22.3487 16.3177 24.032 17.941 24.4851Z" fill="black"/>
<path fill-rule="evenodd" clip-rule="evenodd" d="M36.7832 32.3237C39.728 33.1457 42.7815 31.4248 43.6034 28.48C44.4254 25.5353 42.7045 22.4817 39.7598 21.6598C36.815 20.8378 33.7615 22.5587 32.9395 25.5034C32.1176 28.4482 33.8384 31.5017 36.7832 32.3237ZM36.3733 33.7923C40.1291 34.8406 44.0237 32.6458 45.072 28.8899C46.1204 25.1341 43.9255 21.2395 40.1697 20.1912C36.4139 19.1428 32.5193 21.3377 31.4709 25.0935C30.4226 28.8494 32.6174 32.7439 36.3733 33.7923Z" fill="black"/>
<path fill-rule="evenodd" clip-rule="evenodd" d="M37.8607 28.4628C38.6729 28.6895 39.5152 28.2149 39.7419 27.4026C39.9686 26.5904 39.4939 25.7482 38.6817 25.5214C37.8695 25.2947 37.0272 25.7694 36.8005 26.5816C36.5738 27.3939 37.0485 28.2361 37.8607 28.4628ZM37.4508 29.9314C39.0741 30.3845 40.7574 29.4359 41.2105 27.8126C41.6636 26.1892 40.7149 24.506 39.0916 24.0528C37.4683 23.5997 35.785 24.5484 35.3319 26.1717C34.8788 27.795 35.8274 29.4783 37.4508 29.9314Z" fill="black"/>
<path fill-rule="evenodd" clip-rule="evenodd" d="M22.9691 5.58266C22.9903 5.62248 22.9923 5.66898 22.9665 5.71158C22.9641 5.71565 22.9582 5.73099 22.9551 5.76582C22.9523 5.7986 22.9525 5.84139 22.956 5.89389C22.9631 5.99874 22.9829 6.13492 23.0122 6.29266C23.0707 6.60773 23.1657 7.00135 23.2667 7.38713C23.3677 7.77261 23.4743 8.14894 23.5556 8.42899C23.5963 8.569 23.6307 8.68488 23.6549 8.76573C23.667 8.80616 23.6765 8.83783 23.6831 8.85938C23.686 8.86922 23.6884 8.87695 23.6901 8.88244C23.9152 9.2261 24.0231 9.34047 24.1963 9.41427L39.9017 13.798C40.0234 13.804 40.1191 13.7933 40.2183 13.7629C40.3193 13.7319 40.4267 13.6796 40.5712 13.5981L42.9344 11.228C42.953 11.2094 42.9801 11.2023 43.0054 11.2093L45.6314 11.9423C45.6682 11.9526 45.6907 11.9896 45.683 12.027C45.6752 12.0644 45.6398 12.0894 45.602 12.0842C45.4141 12.0583 45.2798 12.0587 45.1572 12.0842C45.037 12.1093 44.9231 12.1594 44.7768 12.2408L41.5394 15.6562C41.5358 15.6599 41.5319 15.6633 41.5277 15.6662C41.3139 15.8125 41.1417 15.9082 40.9642 15.9707C40.7865 16.0332 40.6073 16.0611 40.3815 16.0765C40.3733 16.0771 40.365 16.0762 40.3571 16.074L22.67 11.1371C22.6617 11.1348 22.654 11.1311 22.6471 11.1261C22.4684 10.9975 22.3327 10.882 22.2131 10.7369C22.0938 10.592 21.993 10.4207 21.8803 10.183C21.878 10.1782 21.8762 10.1731 21.8751 10.1679L20.8355 5.55681C20.7826 5.45364 20.7287 5.37441 20.6487 5.29461C20.5655 5.21156 20.4521 5.12594 20.2775 5.01273C20.2488 4.99411 20.2369 4.95796 20.2491 4.92598C20.2613 4.89399 20.2941 4.87485 20.328 4.88004L20.317 4.95181C20.328 4.88004 20.3279 4.88003 20.328 4.88004L20.336 4.88128C20.3413 4.8821 20.3491 4.88332 20.3593 4.88492C20.3796 4.88811 20.4094 4.89283 20.4471 4.89894C20.5227 4.91116 20.6303 4.92894 20.759 4.9512C21.0161 4.99572 21.3575 5.05824 21.6934 5.13016C22.0286 5.20193 22.3614 5.28365 22.6 5.3669C22.7182 5.40814 22.8192 5.45171 22.886 5.49757C22.9188 5.5201 22.9506 5.54796 22.9691 5.58266ZM20.6175 5.07432C20.654 5.08049 20.693 5.08716 20.7342 5.09429C20.9903 5.13862 21.3296 5.20078 21.663 5.27216C21.9972 5.3437 22.3225 5.4239 22.5522 5.50401C22.6681 5.54445 22.7538 5.58291 22.8038 5.61729C22.8222 5.62992 22.8322 5.63958 22.8372 5.64559C22.8208 5.67725 22.8137 5.71588 22.8105 5.75321C22.8067 5.79626 22.8073 5.84722 22.8112 5.90367C22.8188 6.01673 22.8397 6.15924 22.8694 6.31917C22.9289 6.63945 23.0249 7.03708 23.1262 7.42392C23.2276 7.81107 23.3346 8.18873 23.4162 8.46952C23.457 8.60994 23.4915 8.72619 23.5158 8.80736C23.5279 8.84794 23.5375 8.87976 23.5441 8.90145C23.5474 8.91229 23.5499 8.9206 23.5516 8.92621L23.5542 8.93471C23.5542 8.93474 23.5542 8.93475 23.6236 8.91352L23.5542 8.93471C23.5562 8.94125 23.5591 8.94752 23.5629 8.95325C23.7943 9.30733 23.9229 9.45697 24.1442 9.54989C24.147 9.55107 24.1499 9.55207 24.1528 9.55288L39.8704 13.9401C39.8755 13.9415 39.8807 13.9423 39.886 13.9426C40.0254 13.9502 40.1405 13.9386 40.2609 13.9017C40.3796 13.8653 40.5005 13.805 40.6514 13.7196C40.6571 13.7164 40.6624 13.7123 40.667 13.7077L43.0073 11.3606L45.1068 11.9466C44.9706 11.978 44.8445 12.0364 44.6962 12.1195C44.6899 12.123 44.6841 12.1276 44.679 12.1329L41.4393 15.5507C41.2339 15.6908 41.0751 15.7777 40.916 15.8337C40.7585 15.8891 40.597 15.9157 40.3841 15.9308L22.7215 11.0007C22.5535 10.8791 22.4316 10.7736 22.3252 10.6445C22.2176 10.5139 22.1235 10.3563 22.0149 10.1281L20.9752 5.516C20.9738 5.51017 20.9718 5.50453 20.9691 5.49919C20.9096 5.38162 20.8465 5.28686 20.7513 5.19181C20.7123 5.15294 20.6683 5.11436 20.6175 5.07432Z" fill="black"/>
<path fill-rule="evenodd" clip-rule="evenodd" d="M39.995 20.4566L20.4355 14.997C16.8543 13.9974 13.1409 16.0902 12.1413 19.6713C11.1418 23.2525 13.2345 26.9659 16.8157 27.9655L36.3752 33.425C39.9563 34.4246 43.6697 32.3319 44.6693 28.7507C45.6689 25.1696 43.5761 21.4562 39.995 20.4566ZM20.8454 13.5284C16.4532 12.3024 11.8987 14.8692 10.6727 19.2614C9.44677 23.6536 12.0135 28.2081 16.4057 29.4341L35.9653 34.8936C40.3575 36.1196 44.9119 33.5529 46.1379 29.1606C47.3639 24.7684 44.7971 20.214 40.4049 18.988L20.8454 13.5284Z" fill="black"/>
<path fill-rule="evenodd" clip-rule="evenodd" d="M17.2715 26.8784C20.2162 27.7003 23.2698 25.9795 24.0917 23.0347C24.9137 20.0899 23.1928 17.0364 20.2481 16.2145C17.3033 15.3925 14.2498 17.1134 13.4278 20.0581C12.6059 23.0029 14.3267 26.0564 17.2715 26.8784ZM16.8616 28.347C20.6174 29.3953 24.512 27.2005 25.5603 23.4446C26.6087 19.6888 24.4138 15.7942 20.658 14.7459C16.9021 13.6975 13.0076 15.8924 11.9592 19.6482C10.9109 23.4041 13.1057 27.2986 16.8616 28.347Z" fill="black"/>
<path fill-rule="evenodd" clip-rule="evenodd" d="M53.4853 14.2025L12.3023 2.70727C11.7615 2.55634 11.2008 2.87233 11.0499 3.41305L3.35986 30.9636C3.20893 31.5043 3.52492 32.065 4.06564 32.2159L45.2487 43.7112C45.7894 43.8621 46.3501 43.5461 46.501 43.0054L54.1911 15.4548C54.342 14.9141 54.026 14.3534 53.4853 14.2025ZM12.7707 1.02887C11.3031 0.619209 9.78118 1.47689 9.37152 2.94457L1.68146 30.4951C1.2718 31.9628 2.12949 33.4847 3.59716 33.8943L44.7802 45.3896C46.2479 45.7992 47.7697 44.9415 48.1794 43.4739L55.8695 15.9233C56.2791 14.4557 55.4214 12.9338 53.9538 12.5241L12.7707 1.02887Z" fill="black"/>
<path d="M13.9317 31.0684C13.9856 30.8753 14.1858 30.7624 14.379 30.8164L37.2412 37.1978C37.4343 37.2517 37.5472 37.4519 37.4933 37.6451L37.1264 38.9595C37.0725 39.1526 36.8722 39.2655 36.6791 39.2116L13.8169 32.8301C13.6237 32.7762 13.5109 32.576 13.5648 32.3829L13.9317 31.0684Z" fill="black"/>
<path d="M20.9047 5.53236C20.791 5.30771 20.6693 5.18038 20.3173 4.9522C20.3173 4.9522 23.0849 5.3764 22.9048 5.67441C22.7247 5.97243 23.624 8.91391 23.624 8.91391C23.8551 9.26752 23.9735 9.3997 24.1727 9.48334L39.8903 13.8705C40.1551 13.8849 40.3161 13.8266 40.616 13.6568L42.9862 11.2797L45.6122 12.0126C45.2272 11.9595 45.0389 12.0113 44.7321 12.1832L41.487 15.6066C41.0648 15.8957 40.8219 15.9742 40.377 16.0045L22.6898 11.0675C22.3378 10.8142 22.169 10.622 21.9463 10.1523L20.9047 5.53236Z" fill="black"/>
</svg>
