<svg width="23" height="40" viewBox="0 0 23 40" fill="none" xmlns="http://www.w3.org/2000/svg">
<path fill-rule="evenodd" clip-rule="evenodd" d="M19.9437 1.44511H3.06446C2.25911 1.44511 1.60624 2.09798 1.60624 2.90333V36.667C1.60624 37.4723 2.25911 38.1252 3.06446 38.1252H19.9437C20.749 38.1252 21.4019 37.4723 21.4019 36.667V2.90333C21.4019 2.09798 20.749 1.44511 19.9437 1.44511ZM3.06446 0.264648C1.60716 0.264648 0.425781 1.44603 0.425781 2.90333V36.667C0.425781 38.1243 1.60716 39.3057 3.06446 39.3057H19.9437C21.401 39.3057 22.5824 38.1243 22.5824 36.667V2.90333C22.5824 1.44603 21.401 0.264648 19.9437 0.264648H3.06446Z" fill="black"/>
<path d="M1.51758 4.12402H21.4085V5.80198H1.51758V4.12402Z" fill="black"/>
<path d="M1.51758 31.2588H21.4085V32.9367H1.51758V31.2588Z" fill="black"/>
<path d="M7.64648 2.94053C7.64648 2.59098 7.92985 2.30762 8.27939 2.30762H14.9015C15.2511 2.30762 15.5344 2.59098 15.5344 2.94053V2.94053C15.5344 3.29007 15.2511 3.57344 14.9015 3.57344H8.27939C7.92985 3.57344 7.64648 3.29007 7.64648 2.94053V2.94053Z" fill="black"/>
<path fill-rule="evenodd" clip-rule="evenodd" d="M12.3251 34.7733H10.8217C10.4574 34.7733 10.162 35.0687 10.162 35.4331C10.162 35.7974 10.4574 36.0928 10.8217 36.0928H12.3251C12.6894 36.0928 12.9848 35.7974 12.9848 35.4331C12.9848 35.0687 12.6894 34.7733 12.3251 34.7733ZM10.8217 33.5234C9.76708 33.5234 8.91211 34.3784 8.91211 35.4331C8.91211 36.4877 9.76708 37.3427 10.8217 37.3427H12.3251C13.3797 37.3427 14.2347 36.4877 14.2347 35.4331C14.2347 34.3784 13.3797 33.5234 12.3251 33.5234H10.8217Z" fill="black"/>
</svg>
