<svg width="73" height="57" viewBox="0 0 73 57" fill="none" xmlns="http://www.w3.org/2000/svg">
<path fill-rule="evenodd" clip-rule="evenodd" d="M21.7756 3.94209L19.5106 22.1777L46.3026 25.5054L48.5676 7.26985L21.7756 3.94209ZM21.4221 2.04787C20.7359 1.96264 20.1106 2.4498 20.0254 3.13597L17.6164 22.5311C17.5311 23.2173 18.0183 23.8426 18.7044 23.9279L46.6561 27.3997C47.3422 27.4849 47.9676 26.9977 48.0528 26.3116L50.4618 6.91639C50.547 6.23023 50.0599 5.60489 49.3737 5.51966L21.4221 2.04787Z" fill="black"/>
<path fill-rule="evenodd" clip-rule="evenodd" d="M5.17595 24.7722L2.91096 43.0078L29.703 46.3355L31.968 28.0999L5.17595 24.7722ZM4.82249 22.8779C4.13633 22.7927 3.51099 23.2799 3.42576 23.966L1.01674 43.3612C0.931517 44.0474 1.41867 44.6727 2.10484 44.7579L30.0565 48.2297C30.7426 48.315 31.368 47.8278 31.4532 47.1416L33.8622 27.7465C33.9474 27.0603 33.4603 26.435 32.7741 26.3497L4.82249 22.8779Z" fill="black"/>
<path fill-rule="evenodd" clip-rule="evenodd" d="M34.2032 33.7594L41.3595 50.6843L66.2259 40.1702L59.0697 23.2453L34.2032 33.7594ZM32.95 32.2956C32.3131 32.5649 32.0152 33.2995 32.2844 33.9363L39.8958 51.9375C40.165 52.5744 40.8996 52.8724 41.5364 52.6031L67.4791 41.6339C68.116 41.3647 68.414 40.6301 68.1447 39.9933L60.5334 21.992C60.2641 21.3552 59.5296 21.0572 58.8927 21.3265L32.95 32.2956Z" fill="black"/>
<path d="M9.20312 28.2119L26.9961 30.4219L25.415 43.1511L7.62208 40.941L9.20312 28.2119Z" fill="black"/>
<path d="M25.9336 7.25391L43.7265 9.46392L42.1455 22.193L24.3525 19.983L25.9336 7.25391Z" fill="black"/>
<path d="M39.459 34.5488L55.9731 27.5663L60.9685 39.3806L44.4543 46.3631L39.459 34.5488Z" fill="black"/>
</svg>
