<svg width="48" height="41" viewBox="0 0 48 41" fill="none" xmlns="http://www.w3.org/2000/svg">
<path fill-rule="evenodd" clip-rule="evenodd" d="M10.7593 1.96109L1.99705 25.2439L37.5632 38.6288L46.3254 15.346L10.7593 1.96109ZM10.5555 0.508849C10.253 0.395015 9.91553 0.547941 9.8017 0.850418L0.544811 25.4477C0.430977 25.7502 0.583904 26.0876 0.886382 26.2015L37.7669 40.081C38.0694 40.1949 38.4069 40.0419 38.5207 39.7395L47.7776 15.1422C47.8915 14.8397 47.7385 14.5022 47.4361 14.3884L10.5555 0.508849Z" fill="black"/>
<path fill-rule="evenodd" clip-rule="evenodd" d="M16.5377 16.2646C16.5449 16.2654 16.552 16.2671 16.5588 16.2697L19.0028 17.1895C19.0481 17.2065 19.0711 17.2572 19.054 17.3025L18.6638 18.3394C18.6467 18.3848 18.5961 18.4077 18.5507 18.3906L16.5892 17.6524C15.6206 17.5015 14.8816 17.5534 14.3008 17.8356C13.7216 18.1171 13.2854 18.6348 12.9375 19.4466C12.6662 20.3746 12.647 21.0245 12.8889 21.5899C13.1319 22.1579 13.6448 22.6566 14.4797 23.2659L16.4386 24.0031C16.4839 24.0201 16.5069 24.0708 16.4898 24.1161L16.0829 25.1974C16.0658 25.2428 16.0152 25.2657 15.9698 25.2487L13.5258 24.3289C13.5178 24.3259 13.5103 24.3218 13.5036 24.3166C12.4965 23.5513 11.848 22.8163 11.5526 21.9679C11.2568 21.1182 11.3202 20.1696 11.7048 18.9883C11.7057 18.9856 11.7067 18.983 11.7079 18.9804C12.2436 17.7534 12.918 17.0096 13.7324 16.6059C14.5451 16.2032 15.4845 16.1456 16.5377 16.2646ZM16.5072 16.4378C15.4738 16.3221 14.5771 16.3833 13.8104 16.7632C13.0437 17.1432 12.3944 17.8483 11.8704 19.0467C11.4934 20.2063 11.4403 21.1113 11.7184 21.9101C11.9964 22.7085 12.6102 23.4156 13.5996 24.1691L15.9495 25.0534L16.2946 24.1365L14.4067 23.426C14.3993 23.4232 14.3923 23.4194 14.3859 23.4148C13.5422 22.8 12.9915 22.276 12.7275 21.6589C12.4618 21.0381 12.4929 20.3394 12.7705 19.3922C12.7715 19.3888 12.7727 19.3856 12.7741 19.3824C13.1325 18.5439 13.5933 17.9843 14.2241 17.6777C14.8529 17.3722 15.6362 17.3252 16.6252 17.4804C16.6311 17.4813 16.6369 17.4828 16.6425 17.4849L18.5304 18.1954L18.8588 17.3229L16.5072 16.4378Z" fill="black"/>
<path d="M8.80664 6.58984L44.5901 20.0565L44.1506 21.2243L8.36717 7.7576L8.80664 6.58984Z" fill="black"/>
<path fill-rule="evenodd" clip-rule="evenodd" d="M16.2349 7.41428C16.2401 7.41476 16.2453 7.41594 16.2502 7.41778L38.2277 15.6888C38.2292 15.6893 38.2306 15.6899 38.2321 15.6906C38.6222 15.8746 38.9105 16.0538 39.172 16.2847C39.4329 16.5152 39.665 16.7953 39.9445 17.1782C39.9472 17.1819 39.9495 17.1859 39.9513 17.1902L40.5078 18.5212C40.5168 18.5427 40.5121 18.5675 40.4959 18.5844C40.4797 18.6012 40.4551 18.6067 40.4332 18.5985L38.8333 17.9964C38.8153 17.9896 38.8018 17.9744 38.7971 17.9558C38.7366 17.7124 38.6618 17.5392 38.5375 17.3872C38.413 17.2349 38.2357 17.0998 37.9626 16.9384L16.0952 8.70886C15.7848 8.65045 15.5568 8.62442 15.3537 8.64265C15.1514 8.6608 14.9704 8.72326 14.7556 8.84798C14.7404 8.8568 14.7221 8.85833 14.7056 8.85214L13.0876 8.24321C13.0646 8.23456 13.0495 8.21248 13.0497 8.18792C13.0499 8.16337 13.0654 8.14156 13.0886 8.13332L13.5636 7.96408C13.9699 7.70856 14.3163 7.54033 14.7229 7.45176C15.1306 7.36296 15.5946 7.35512 16.2349 7.41428ZM16.2163 7.5301C15.5853 7.47221 15.137 7.48134 14.7478 7.56611C14.3578 7.65107 14.0231 7.81289 13.6205 8.06655C13.6169 8.06884 13.613 8.07072 13.609 8.07216L13.2783 8.18995L14.7211 8.73289C14.9372 8.61052 15.1284 8.54536 15.3432 8.52608C15.5643 8.50624 15.8068 8.53533 16.1219 8.5948C16.1252 8.59543 16.1285 8.59634 16.1316 8.59753L38.0086 16.8307C38.0118 16.8319 38.0148 16.8333 38.0177 16.835C38.2974 17 38.49 17.1441 38.6281 17.3131C38.7616 17.4764 38.8412 17.6592 38.9031 17.8976L40.3475 18.4412L39.8459 17.2417C39.57 16.864 39.3447 16.5935 39.0945 16.3724C38.844 16.1512 38.5664 15.9778 38.1843 15.7975L16.2163 7.5301Z" fill="black"/>
<path fill-rule="evenodd" clip-rule="evenodd" d="M11.3941 14.076L8.19397 22.5792L15.8301 25.453L19.0303 16.9497L11.3941 14.076ZM11.642 12.9188C11.1278 12.7252 10.5541 12.9852 10.3605 13.4994L7.03677 22.3313C6.84325 22.8455 7.10323 23.4192 7.61744 23.6128L15.5822 26.6102C16.0964 26.8037 16.6702 26.5438 16.8637 26.0295L20.1875 17.1977C20.381 16.6835 20.121 16.1097 19.6068 15.9162L11.642 12.9188Z" fill="black"/>
<path fill-rule="evenodd" clip-rule="evenodd" d="M15.8154 21.7279C16.3749 21.9384 16.9991 21.6556 17.2097 21.0961C17.4202 20.5366 17.1374 19.9124 16.5779 19.7019C16.0184 19.4913 15.3942 19.7742 15.1837 20.3337C14.9731 20.8931 15.256 21.5173 15.8154 21.7279ZM15.3414 22.9876C16.5965 23.4599 17.997 22.8253 18.4694 21.5702C18.9417 20.315 18.3071 18.9146 17.052 18.4422C15.7968 17.9698 14.3964 18.6044 13.924 19.8596C13.4516 21.1148 14.0862 22.5152 15.3414 22.9876Z" fill="black"/>
<path d="M13.5903 8.01685L13.1092 8.18825L14.7272 8.79719C15.1682 8.54113 15.484 8.53358 16.112 8.65212L37.989 16.8853C38.5442 17.2127 38.7314 17.4449 38.8549 17.9414L40.4548 18.5435L39.8983 17.2126C39.341 16.4491 38.9815 16.108 38.2081 15.7434L16.2305 7.47236C14.9551 7.35452 14.4015 7.50574 13.5903 8.01685Z" fill="black"/>
<path d="M16.5274 16.3521L18.8825 17.2384L18.9714 17.2718L18.5812 18.3087L16.6112 17.5673C14.6492 17.2595 13.561 17.7641 12.8543 19.4171C12.3039 21.295 12.7528 22.1169 14.4372 23.344L16.4072 24.0854L16.0003 25.1667L13.5562 24.2469C11.5538 22.7252 11.025 21.3585 11.7878 19.0157C12.8478 16.5879 14.4363 16.1156 16.5274 16.3521Z" fill="black"/>
</svg>
