<svg width="50" height="32" viewBox="0 0 50 32" fill="none" xmlns="http://www.w3.org/2000/svg">
<path fill-rule="evenodd" clip-rule="evenodd" d="M3.26523 1.81065L1.92959 27.5225L46.8952 29.8583L48.2309 4.14646L3.26523 1.81065ZM2.73991 0.129154C2.16623 0.0993534 1.67701 0.540251 1.64721 1.11393L0.248092 28.0478C0.218291 28.6215 0.659192 29.1107 1.23287 29.1405L47.4205 31.5398C47.9942 31.5696 48.4834 31.1287 48.5132 30.555L49.9123 3.62113C49.9421 3.04746 49.5012 2.55824 48.9276 2.52844L2.73991 0.129154Z" fill="black"/>
<path d="M2.85156 4.85254L48.1546 7.20587L48.064 8.94829L2.76105 6.59496L2.85156 4.85254Z" fill="black"/>
<path d="M32.7001 12.5554C32.7201 12.1699 33.0488 11.8737 33.4343 11.8937L43.6408 12.4239C44.0263 12.4439 44.3225 12.7726 44.3025 13.1581V13.1581C44.2825 13.5436 43.9538 13.8399 43.5683 13.8199L33.3618 13.2897C32.9763 13.2697 32.68 12.9409 32.7001 12.5554V12.5554Z" fill="black"/>
<path d="M36.5223 16.8699C36.5424 16.4844 36.8711 16.1881 37.2566 16.2081L43.4273 16.5287C43.8128 16.5487 44.1091 16.8775 44.0891 17.263V17.263C44.069 17.6485 43.7403 17.9447 43.3548 17.9247L37.1841 17.6042C36.7986 17.5841 36.5023 17.2554 36.5223 16.8699V16.8699Z" fill="black"/>
<path fill-rule="evenodd" clip-rule="evenodd" d="M11.864 18.7261C12.4871 18.7585 13.0184 18.2796 13.0508 17.6566C13.0831 17.0335 12.6043 16.5022 11.9813 16.4698C11.3582 16.4375 10.8269 16.9163 10.7945 17.5394C10.7621 18.1624 11.241 18.6937 11.864 18.7261ZM11.7783 20.3759C13.3125 20.4556 14.6208 19.2765 14.7005 17.7423C14.7802 16.2081 13.6011 14.8998 12.0669 14.8201C10.5328 14.7404 9.22446 15.9195 9.14476 17.4537C9.06507 18.9879 10.2442 20.2962 11.7783 20.3759Z" fill="black"/>
<path fill-rule="evenodd" clip-rule="evenodd" d="M7.74867 10.0576C7.81444 10.037 7.88334 10.0284 7.95215 10.0319L13.261 10.3077C13.2938 10.3094 13.3263 10.3139 13.3583 10.3211C13.6791 10.3932 13.9378 10.4707 14.1769 10.581C14.4189 10.6926 14.6172 10.827 14.8253 10.9872C14.862 11.0155 14.8951 11.048 14.9241 11.0841L24.1962 22.6454C24.2474 22.7093 24.2845 22.7832 24.3052 22.8625C24.4682 23.4879 24.5461 24.0755 24.3234 24.5825C24.0902 25.1136 23.6022 25.3961 23.0795 25.6069C23.001 25.6385 22.9165 25.6527 22.8319 25.6483L9.06595 24.9332C9.00842 24.9302 8.95166 24.9187 8.89752 24.899C8.01261 24.5773 7.33066 24.2259 6.81276 23.6844C6.29092 23.1388 5.98791 22.4553 5.74752 21.5758C5.7312 21.5161 5.72452 21.4542 5.72773 21.3924L6.23279 11.6698C6.23643 11.5996 6.25277 11.5307 6.281 11.4663C6.44135 11.1009 6.61505 10.7917 6.86515 10.549C7.12457 10.2973 7.42135 10.1599 7.74867 10.0576ZM8.00136 11.1986C7.83218 11.2591 7.74333 11.3167 7.67474 11.3833C7.59455 11.4611 7.50533 11.5871 7.38805 11.8392L6.89359 21.358C7.10423 22.0999 7.33501 22.5486 7.65289 22.8809C7.97612 23.2189 8.43852 23.4884 9.21409 23.7768L22.7594 24.4804C23.1257 24.319 23.2219 24.1997 23.259 24.1151C23.3069 24.0061 23.3327 23.7875 23.2098 23.2735L14.062 11.8672C13.9175 11.759 13.8082 11.6911 13.6899 11.6366C13.5622 11.5777 13.4029 11.5247 13.1505 11.466L8.00136 11.1986Z" fill="black"/>
</svg>
