<svg width="259" height="46" viewBox="0 0 259 46" fill="none" xmlns="http://www.w3.org/2000/svg">
<path d="M144.617 26.8015C144.912 26.7217 145.003 26.6761 145.1 26.6704C146.416 26.6135 146.433 26.6078 146.961 27.8042C148.714 31.7694 150.451 35.7346 152.198 39.6998C152.437 40.2353 152.613 40.8107 152.993 41.2893C153.458 41.1639 153.492 40.7252 153.64 40.4005C155.019 37.2956 156.375 34.1792 157.742 31.0686C158.236 29.9406 158.753 28.824 159.235 27.6902C159.723 26.5337 159.734 26.6647 160.881 26.659C160.977 26.659 161.079 26.6704 161.17 26.6932C161.403 26.7559 161.476 26.9268 161.386 27.1376C160.676 28.767 159.967 30.3907 159.252 32.0143C157.43 36.1618 155.615 40.3151 153.782 44.4626C153.589 44.9069 153.481 45.4083 152.987 45.8014C150.167 39.5004 147.432 33.1993 144.623 26.8072L144.617 26.8015Z" fill="white"/>
<path d="M16.8386 12.1668C17.9831 12.1668 19.1224 12.1563 20.2669 12.1668C20.7205 12.1721 20.8418 12.2934 20.8471 12.7468C20.8576 14.8032 20.8471 16.8597 20.8576 18.9161C20.8576 19.2694 20.6941 19.5119 20.4568 19.7439C15.9525 24.1626 10.1137 24.2997 5.72016 21.1412C2.02809 18.489 0.393033 14.7189 1.01014 10.1473C1.34242 7.67961 2.49751 5.54937 4.28026 3.80933C6.80668 1.34163 9.86055 0.239604 13.3838 0.524339C15.578 0.703616 17.5348 1.53673 19.2648 2.89713C19.7184 3.25568 19.7289 3.35586 19.423 3.78824C19.3703 3.86206 19.3122 3.93588 19.2489 3.99915C18.9589 4.28389 18.8797 4.80063 18.4525 4.90081C18.0095 5.00627 17.7458 4.56335 17.424 4.34189C13.3997 1.6 7.46598 2.36984 4.56507 7.00468C1.45846 11.9612 3.73172 17.5557 7.85101 19.765C11.0737 21.4945 14.233 21.3627 17.3238 19.4434C17.5928 19.2746 17.8354 19.0637 18.0886 18.8686C18.3998 18.6313 18.5844 18.3361 18.5475 17.9353C18.5475 17.8879 18.5527 17.8457 18.5475 17.7982C18.442 16.7226 18.7743 15.6258 18.3681 14.5712C17.3765 14.3656 16.3744 14.508 15.3776 14.4763C14.6497 14.45 13.9166 14.4711 13.1834 14.4658C12.8511 14.4658 12.6929 14.2812 12.6823 13.9596C12.6823 13.9121 12.6823 13.8699 12.6823 13.8225C12.7034 12.0192 12.4397 12.1668 14.2436 12.1615C15.1138 12.1615 15.9788 12.1615 16.8491 12.1615L16.8386 12.1668Z" fill="white"/>
<path d="M97.2576 23.3252C96.9622 23.0036 96.651 22.6872 96.3662 22.355C92.0306 17.2351 87.6951 12.1098 83.3648 6.98462C83.2752 6.87917 83.1961 6.76316 83.0906 6.6788C83.0325 6.63134 82.9165 6.61025 82.8479 6.63134C82.7794 6.65243 82.695 6.74207 82.6897 6.80535C82.6686 7.21663 82.6633 7.62791 82.6633 8.0392C82.6633 12.5159 82.6633 16.9925 82.6633 21.4692C82.6633 21.833 82.6633 22.2021 82.6581 22.5659C82.6581 22.9139 82.4576 23.0405 82.1359 23.0352C80.2424 23.0088 80.4586 23.3147 80.4586 21.5272C80.4534 14.9519 80.4586 8.37139 80.4586 1.79613C80.4586 1.35321 80.4798 0.915562 80.4903 0.34082C80.9281 0.593918 81.1232 0.89447 81.35 1.15811C85.6908 6.27279 90.0317 11.3927 94.3778 16.5074C94.5254 16.6814 94.6731 16.8554 94.8419 17.0083C94.8894 17.0558 95.0212 17.0558 95.0898 17.0241C95.1531 16.9925 95.2164 16.8976 95.2217 16.8238C95.2428 16.5496 95.2427 16.2754 95.2427 16.0012C95.2427 11.6616 95.2427 7.32209 95.2427 2.98252C95.2427 2.57124 95.2427 2.15996 95.2427 1.74867C95.2427 0.625555 95.1847 0.641373 96.3767 0.6361C97.5846 0.6361 97.4633 0.720466 97.4685 1.80668C97.4685 8.70358 97.4685 15.6005 97.4685 22.4974C97.4685 22.7505 97.574 23.0352 97.2734 23.3199L97.2576 23.3252Z" fill="white"/>
<path d="M116.988 0.830062C117.299 0.592783 117.626 0.650785 117.943 0.650785C122.057 0.650785 126.171 0.650785 130.285 0.650785C130.469 0.650785 130.649 0.650785 130.833 0.666603C131.087 0.687695 131.276 0.808971 131.287 1.07261C131.308 1.53135 131.308 1.98482 131.287 2.44356C131.276 2.77047 131.065 2.91811 130.744 2.91811C130.422 2.91811 130.106 2.92339 129.784 2.92339C126.856 2.92339 123.934 2.92339 121.007 2.92339C120.78 2.92339 120.548 2.92339 120.322 2.92339C119.145 2.9023 119.151 2.9603 119.156 4.03069C119.166 5.44909 119.156 6.86221 119.156 8.28061C119.156 8.41771 119.156 8.5548 119.156 8.69189C119.182 9.235 119.246 9.31409 119.815 9.31936C122.009 9.32991 124.203 9.31936 126.398 9.32464C126.809 9.32464 127.22 9.31409 127.632 9.32464C128.096 9.34046 128.223 9.44064 128.223 9.87829C128.223 11.7291 128.47 11.5445 126.698 11.5498C124.689 11.5551 122.674 11.5498 120.664 11.5498C120.343 11.5498 120.026 11.5392 119.704 11.5603C119.298 11.5867 119.182 11.7238 119.161 12.1773C119.156 12.3143 119.161 12.4514 119.161 12.5885C119.161 14.9666 119.161 17.3447 119.161 19.7174C119.161 19.9442 119.161 20.1762 119.182 20.4029C119.203 20.6771 119.388 20.8037 119.636 20.8195C120 20.8406 120.369 20.83 120.733 20.83C123.75 20.83 126.767 20.83 129.784 20.83C130.106 20.83 130.422 20.8195 130.744 20.8353C131.166 20.8564 131.271 20.9777 131.298 21.4364C131.308 21.6631 131.308 21.8951 131.298 22.1219C131.287 23.0183 131.287 23.0341 130.375 23.0341C126.171 23.0393 121.962 23.0341 117.758 23.0341C117.574 23.0341 117.384 23.0446 117.215 22.9919C117.109 22.9603 116.988 22.8337 116.962 22.723C116.914 22.5542 116.925 22.3591 116.925 22.1799C116.925 15.2302 116.925 8.28588 116.925 1.33626C116.925 1.15698 116.962 0.977702 116.978 0.824789L116.988 0.830062Z" fill="white"/>
<path d="M44.2168 11.7718C44.2168 8.52902 44.2168 5.28621 44.2168 2.03813C44.2168 1.71648 44.2168 1.40011 44.2273 1.07847C44.2379 0.809553 44.3961 0.672459 44.6598 0.661913C44.797 0.65664 44.9341 0.651367 45.0712 0.651367C49.2749 0.651367 53.4786 0.651367 57.6823 0.651367C57.8194 0.651367 57.9566 0.65664 58.0937 0.661913C58.3521 0.677731 58.5315 0.799007 58.5367 1.06792C58.5526 1.47921 58.5578 1.89049 58.5473 2.30177C58.5315 2.81851 58.4365 2.91342 57.8774 2.91342C54.908 2.9187 51.9385 2.90288 48.969 2.92924C48.1673 2.93979 47.3392 2.7236 46.5586 3.09797C46.3318 3.85727 46.4742 4.63238 46.4531 5.39694C46.4268 6.49369 46.4373 7.59045 46.4531 8.6872C46.4584 9.23031 46.5322 9.30413 47.1072 9.3094C48.6631 9.31995 50.2138 9.3094 51.7697 9.31467C52.8668 9.31467 53.9639 9.31467 55.0609 9.32522C55.3246 9.32522 55.4987 9.45704 55.4987 9.73123C55.4987 11.8615 55.831 11.5293 53.8742 11.5451C51.8646 11.5609 49.8551 11.5451 47.8456 11.5451C47.5238 11.5451 47.2074 11.5451 46.8856 11.5662C46.6166 11.582 46.4848 11.756 46.4637 12.0144C46.4479 12.1937 46.4584 12.3782 46.4531 12.5628C46.4531 14.983 46.4531 17.4032 46.4531 19.8288C46.4531 20.0133 46.4531 20.1926 46.469 20.3771C46.4901 20.6408 46.6377 20.799 46.8962 20.8095C47.2601 20.8306 47.624 20.8253 47.9933 20.8253C51.0524 20.8253 54.1168 20.8253 57.1759 20.8253C57.4977 20.8253 57.8142 20.8306 58.1359 20.8411C58.4154 20.8517 58.5262 21.031 58.5473 21.2841C58.5578 21.4212 58.5578 21.5583 58.5526 21.6953C58.542 23.1507 58.6897 23.0347 57.2445 23.0347C53.3151 23.0347 49.3857 23.0347 45.4563 23.0347C45.182 23.0347 44.9077 23.0347 44.6335 23.0241C44.3539 23.0188 44.2326 22.8501 44.2273 22.5917C44.2168 22.2279 44.2168 21.8588 44.2168 21.495C44.2168 18.2522 44.2168 15.0094 44.2168 11.7613V11.7718Z" fill="white"/>
<path d="M39.6122 9.14048C39.6122 11.4711 39.6122 13.8017 39.6122 16.1323C39.6122 19.0798 38.2197 21.1995 35.6195 22.4755C30.9675 24.7587 25.4874 21.7004 25.134 16.7018C25.1076 16.3379 25.0918 15.9741 25.0918 15.605C25.0918 11.0334 25.0918 6.46187 25.0918 1.8903C25.0918 1.61611 25.0918 1.34192 25.1129 1.06774C25.134 0.867367 25.2764 0.746091 25.4716 0.719726C25.6509 0.693362 25.8355 0.693362 26.0148 0.693362C27.5127 0.693362 27.3598 0.608996 27.3598 2.0063C27.3598 6.35114 27.3598 10.6907 27.3598 15.0355C27.3598 15.4943 27.3809 15.9477 27.3862 16.4065C27.4231 19.0956 29.9284 21.0677 32.5656 20.9622C34.8019 20.8726 36.6691 19.4173 37.2387 17.3767C37.4022 16.7914 37.3811 16.2008 37.3811 15.6103C37.3811 11.1758 37.3811 6.74133 37.3864 2.30686C37.3864 0.498266 37.1385 0.714454 38.9792 0.703908C39.5542 0.703908 39.6016 0.746091 39.6016 1.32611C39.6069 3.9309 39.6016 6.53569 39.6016 9.14048H39.6122Z" fill="white"/>
<path d="M185.208 9.01351C185.208 6.68291 185.208 4.3523 185.208 2.0217C185.208 1.70005 185.208 1.38368 185.224 1.06204C185.234 0.86167 185.355 0.729849 185.566 0.719303C185.888 0.703484 186.205 0.692939 186.526 0.698211C187.413 0.708757 187.434 0.719303 187.434 1.62623C187.434 6.06071 187.434 10.4952 187.434 14.9244C187.434 15.3357 187.439 15.747 187.434 16.1582C187.407 18.9423 189.807 21.0198 192.529 20.9513C194.385 20.9038 195.852 20.0918 196.854 18.4783C197.307 17.7506 197.429 16.9492 197.481 16.1266C197.513 15.5782 197.492 15.0298 197.492 14.4815C197.492 10.3686 197.492 6.25581 197.492 2.14298C197.492 1.91624 197.492 1.68424 197.492 1.4575C197.502 0.961855 197.764 0.707 198.278 0.692939C198.367 0.692939 198.462 0.692939 198.552 0.692939C199.828 0.682393 199.749 0.692939 199.749 1.8846C199.749 6.49836 199.749 11.1174 199.749 15.7311C199.749 18.1039 198.974 20.1234 197.075 21.6209C193.399 24.5263 187.977 23.3451 185.925 19.3009C185.503 18.473 185.245 17.6083 185.234 16.6802C185.213 14.5342 185.208 12.3829 185.197 10.2368C185.197 9.82553 185.197 9.41425 185.197 9.00297L185.208 9.01351Z" fill="white"/>
<path d="M111.434 2.85021C111.033 3.03476 110.722 3.13494 110.463 3.30894C109.783 3.77296 109.229 3.75186 108.522 3.23512C107.288 2.32819 105.226 2.70257 104.155 4.20006C103.454 5.17554 103.332 7.20031 104.735 8.45526C105.078 8.76108 105.474 8.98781 105.89 9.17236C107.056 9.69438 108.211 10.2375 109.377 10.7595C110.136 11.1022 110.801 11.5873 111.365 12.1884C114.113 15.1254 113.443 19.2488 110.954 21.5056C108.122 24.0735 103.971 23.7465 101.507 21.0152C101.328 20.8148 101.186 20.5776 101.028 20.3508C100.869 20.1241 100.906 19.9185 101.144 19.7814C101.302 19.6917 101.486 19.6495 101.639 19.5546C102.383 19.0959 102.963 19.1012 103.644 19.8183C104.83 21.0679 106.36 21.2367 107.948 20.6883C109.551 20.1399 110.511 18.9852 110.812 17.3189C111.149 15.484 110.157 13.6068 108.348 12.6946C107.13 12.0777 105.875 11.5188 104.64 10.9388C103.58 10.4431 102.742 9.7102 102.103 8.7189C100.226 5.81355 101.951 1.15762 106.022 0.551239C108.185 0.229595 109.952 0.988887 111.418 2.83966L111.434 2.85021Z" fill="white"/>
<path d="M152.49 0.814167C152.564 1.11472 152.369 1.33618 152.258 1.57346C149.927 6.52995 147.601 11.4812 145.259 16.4271C144.821 17.3499 144.558 18.2779 144.621 19.3166C144.684 20.3659 144.642 21.4152 144.632 22.4698C144.626 22.9233 144.521 23.0287 144.051 23.0287C142.01 23.0182 142.263 23.3135 142.242 21.352C142.242 20.851 142.242 20.3448 142.242 19.8439C142.242 17.7242 142.226 17.7295 141.309 15.7944C139.057 11.0541 136.825 6.30849 134.584 1.56291C134.473 1.32563 134.389 1.06726 134.283 0.798349C134.484 0.750893 134.615 0.698164 134.742 0.698164C136.857 0.724529 136.382 0.365974 137.268 2.23257C139.104 6.10812 140.918 9.99422 142.749 13.875C142.923 14.2441 143.128 14.5974 143.339 14.9929C143.73 14.782 143.835 14.434 143.978 14.1281C145.792 10.2948 147.596 6.45085 149.405 2.61749C149.442 2.53312 149.489 2.45403 149.526 2.36966C150.106 1.12175 151.094 0.601495 152.49 0.808894V0.814167Z" fill="white"/>
<path d="M246.112 35.5678C246.112 38.3097 246.112 41.0516 246.112 43.7882C246.112 43.9569 246.175 44.1889 245.938 44.2417C245.737 44.2891 245.626 44.1046 245.516 43.9675C243.543 41.6316 241.565 39.2957 239.593 36.9651C238.174 35.2936 236.755 33.6221 235.341 31.9506C235.225 31.8135 235.115 31.6659 234.983 31.5394C234.925 31.4866 234.825 31.4497 234.751 31.455C234.566 31.4603 234.556 31.6237 234.545 31.7503C234.529 32.1141 234.534 32.4832 234.529 32.847C234.529 36.1795 234.529 39.5172 234.529 42.8496C234.529 43.1713 234.529 43.4877 234.513 43.8093C234.503 44.0097 234.371 44.1626 234.171 44.1679C233.807 44.1837 233.443 44.1731 233.079 44.1362C232.979 44.1257 232.852 43.9886 232.804 43.8778C232.752 43.7618 232.778 43.6089 232.778 43.4718C232.778 37.9881 232.778 32.5096 232.778 27.0258C232.778 26.9361 232.778 26.8412 232.799 26.7516C232.804 26.72 232.862 26.683 232.899 26.6778C232.978 26.6672 233.1 26.6461 233.142 26.6883C233.48 27.0574 233.801 27.4423 234.128 27.822C237.23 31.4761 240.331 35.1302 243.432 38.7895C243.58 38.9635 243.733 39.1323 243.881 39.3063C243.976 39.4117 244.102 39.4697 244.229 39.4065C244.292 39.3748 244.355 39.2694 244.361 39.1903C244.382 38.9161 244.387 38.6419 244.387 38.3677C244.387 34.9878 244.387 31.6079 244.387 28.228C244.387 27.9064 244.376 27.59 244.392 27.2683C244.413 26.7674 244.535 26.6725 245.078 26.6672C245.215 26.6672 245.352 26.6672 245.489 26.6672C245.996 26.6936 246.101 26.7885 246.106 27.3474C246.112 30.0893 246.106 32.8312 246.106 35.5678H246.112Z" fill="white"/>
<path d="M142.397 44.4736C140.952 42.7758 139.655 41.2519 138.362 39.7281C136.179 37.1496 133.995 34.5712 131.812 31.9928C131.664 31.8188 131.516 31.6448 131.347 31.4919C131.3 31.4444 131.173 31.4391 131.105 31.4708C131.042 31.5024 130.984 31.6026 130.978 31.6711C130.957 31.9453 130.962 32.2195 130.962 32.4937C130.962 35.9211 130.962 39.3484 130.962 42.7758C130.962 43.1396 130.973 43.5087 130.936 43.8725C130.926 43.978 130.794 44.152 130.709 44.1573C130.303 44.1836 129.892 44.1784 129.48 44.1467C129.396 44.1414 129.285 43.9622 129.264 43.8514C129.227 43.63 129.238 43.398 129.238 43.166C129.238 37.9089 129.238 32.6572 129.238 27.4001C129.238 27.1787 129.254 26.9519 129.269 26.6514C129.718 26.7041 129.892 27.0574 130.103 27.2999C131.917 29.4143 133.71 31.5446 135.514 33.6695C137.017 35.4465 138.515 37.2287 140.019 39.0057C140.108 39.1111 140.198 39.2166 140.303 39.301C140.404 39.3853 140.525 39.4855 140.657 39.3748C140.715 39.3273 140.768 39.2377 140.773 39.1639C140.789 38.8897 140.789 38.6155 140.789 38.3413C140.789 35.0036 140.789 31.6711 140.789 28.3334C140.789 28.0592 140.789 27.785 140.789 27.5108C140.804 26.7094 140.841 26.6725 141.648 26.6672C142.45 26.6619 142.487 26.683 142.487 27.5161C142.487 32.9524 142.487 38.3888 142.487 43.8303C142.487 43.9622 142.445 44.0887 142.381 44.4789L142.397 44.4736Z" fill="white"/>
<path d="M228.848 23.0391C227.524 23.0391 226.2 23.0444 224.876 23.0391C224.428 23.0391 224.328 22.9126 224.301 22.4644C224.296 22.3748 224.301 22.2798 224.301 22.1902C224.301 20.7824 224.212 20.8562 225.625 20.8245C226.29 20.8087 227.102 21.1462 227.587 20.6189C228.009 20.1602 227.74 19.3903 227.74 18.7628C227.756 14.012 227.745 9.26115 227.745 4.51558C227.745 4.19394 227.756 3.87757 227.745 3.55592C227.724 3.055 227.613 2.939 227.07 2.92845C226.342 2.91263 225.609 2.92845 224.876 2.91263C224.449 2.90209 224.333 2.76499 224.306 2.32207C224.301 2.23243 224.306 2.13752 224.306 2.04788C224.322 0.719123 224.122 0.687486 225.625 0.692759C227.819 0.703304 230.008 0.692759 232.202 0.692759C232.476 0.692759 232.751 0.692759 233.025 0.71385C233.231 0.724396 233.357 0.850944 233.368 1.05659C233.384 1.46787 233.399 1.87915 233.389 2.29043C233.373 2.79663 233.257 2.90209 232.724 2.9179C232.039 2.93372 231.353 2.9179 230.667 2.92845C230.103 2.939 230.019 3.02336 229.997 3.5401C229.987 3.76683 229.997 3.99884 229.997 4.22557C229.997 9.34025 229.997 14.4549 229.997 19.5696C229.997 19.8438 229.998 20.118 230.013 20.3922C230.029 20.6558 230.177 20.814 230.441 20.8193C231.216 20.8351 231.991 20.8193 232.767 20.8404C233.283 20.8509 233.394 20.9511 233.389 21.4995C233.384 23.2553 233.621 23.0286 231.88 23.0444C230.878 23.0497 229.871 23.0444 228.869 23.0444L228.848 23.0391Z" fill="white"/>
<path d="M174.391 43.9733C174.069 44.2475 173.784 44.1842 173.515 44.1842C170.367 44.1842 167.212 44.1842 164.064 44.1842C163.879 44.1842 163.694 44.1948 163.515 44.1631C163.32 44.1315 163.204 44.0049 163.204 43.794C163.204 43.5198 163.193 43.2456 163.193 42.9715C163.193 37.9464 163.193 32.9267 163.193 27.9016C163.193 27.6274 163.178 27.3532 163.209 27.0791C163.236 26.8312 163.394 26.673 163.663 26.6678C163.89 26.6678 164.122 26.6572 164.349 26.6572C167.318 26.6572 170.287 26.6572 173.252 26.6572C173.526 26.6572 173.8 26.6572 174.069 26.6994C174.175 26.7205 174.307 26.8523 174.343 26.9631C174.401 27.1318 174.396 27.3216 174.401 27.5009C174.412 28.3656 174.354 28.4342 173.484 28.4342C171.11 28.4447 168.737 28.4342 166.358 28.4342C166.036 28.4342 165.72 28.4342 165.398 28.45C165.145 28.4605 164.955 28.5924 164.95 28.8613C164.944 30.2744 164.95 31.6928 164.96 33.1059C164.96 33.3063 165.129 33.4223 165.33 33.4329C165.646 33.4487 165.968 33.4539 166.289 33.4539C167.888 33.4539 169.486 33.4487 171.084 33.4539C172.033 33.4592 172.054 33.4909 172.039 34.4821C172.039 34.5718 172.028 34.6667 172.028 34.7563C172.017 34.9725 171.886 35.0938 171.69 35.1096C171.374 35.136 171.052 35.1465 170.736 35.1465C169.048 35.1465 167.355 35.1465 165.667 35.1518C165.045 35.1518 164.939 35.2573 164.939 35.8636C164.929 37.8251 164.929 39.7919 164.939 41.7534C164.939 42.3914 165.024 42.4758 165.641 42.4811C167.239 42.4916 168.837 42.4811 170.435 42.4863C171.574 42.4863 172.719 42.4863 173.858 42.4863C174.18 42.4863 174.38 42.634 174.396 42.9609C174.412 43.3195 174.396 43.6727 174.396 43.9522L174.391 43.9733Z" fill="white"/>
<path d="M52.9731 33.2481C52.9731 35.0304 52.9731 36.8126 52.9731 38.5948C52.9731 39.913 52.6092 41.1152 51.8022 42.1751C50.568 43.7939 48.1313 44.917 45.5204 44.105C43.5742 43.4986 41.8495 41.8534 41.6016 39.3014C41.5699 38.985 41.5488 38.6634 41.5488 38.3417C41.5488 34.8194 41.5488 31.3025 41.5488 27.7802C41.5488 27.5956 41.5541 27.4164 41.5488 27.2318C41.5488 26.9049 41.6965 26.7098 42.0235 26.694C42.2978 26.6782 42.5721 26.6782 42.8463 26.694C43.0995 26.7098 43.2736 26.8522 43.2788 27.1211C43.2894 27.4849 43.2946 27.854 43.2946 28.2178C43.2946 31.4659 43.2946 34.7087 43.2946 37.9568C43.2946 38.4103 43.2999 38.8743 43.3685 39.3225C43.6217 41.0836 45.0088 42.3807 46.7705 42.5495C48.6798 42.7287 50.3148 41.7743 50.9478 40.1239C51.1798 39.5123 51.1957 38.8743 51.1957 38.2363C51.1957 35.0831 51.1957 31.9246 51.1957 28.7715C51.1957 28.2231 51.1957 27.6747 51.2115 27.1263C51.2168 26.8574 51.3961 26.7203 51.644 26.694C51.8233 26.6729 52.0079 26.6782 52.1925 26.6834C52.8887 26.694 52.9626 26.7625 52.9626 27.4849C52.9679 29.4042 52.9626 31.3235 52.9626 33.2481H52.9731Z" fill="white"/>
<path d="M105.332 30.0894C101.292 27.0206 97.1725 28.4232 95.1471 30.7801C92.6893 33.638 92.8844 37.4292 95.0733 40.0498C97.0037 42.3646 101.17 43.9886 105.279 40.8987C106.724 42.3541 106.535 42.2433 104.989 43.1714C101.039 45.5441 96.1334 44.2628 93.5543 40.9778C90.1048 36.5908 91.3601 29.9312 96.8718 27.3739C100.042 25.9027 103.09 26.3509 105.917 28.3757C106.297 28.6499 106.329 28.8134 106.076 29.1614C105.859 29.4514 105.622 29.7256 105.332 30.0894Z" fill="white"/>
<path d="M0.915428 26.8787C1.11585 26.7943 1.15278 26.7627 1.20024 26.7574C2.57158 26.652 2.58213 26.6467 3.13067 27.8806C4.73936 31.5083 6.3375 35.1413 7.94091 38.769C8.16243 39.2647 8.3945 39.7603 8.63185 40.2823C9.10127 40.1452 9.15401 39.7498 9.28587 39.4492C10.5465 36.6177 11.7859 33.7703 13.036 30.9335C13.5159 29.8473 14.0275 28.7769 14.4811 27.6802C14.9347 26.5834 14.9558 26.71 16.132 26.7205C16.1742 26.7205 16.2217 26.7311 16.2639 26.7416C16.4749 26.8049 16.5592 26.9525 16.4749 27.1476C16.1004 28.0282 15.7153 28.9088 15.3303 29.7841C13.3419 34.2924 11.3587 38.7954 9.36499 43.2984C9.20148 43.6675 9.09072 44.0735 8.67932 44.4373C6.0474 38.5897 3.5157 32.7632 0.910156 26.8734L0.915428 26.8787Z" fill="white"/>
<path d="M256.983 28.3909C256.708 28.5491 256.555 28.6493 256.397 28.7336C255.849 29.0236 255.379 29.0711 254.767 28.6967C253.523 27.9374 251.872 28.4595 251.244 29.6722C250.606 30.9008 251.117 32.509 252.415 33.1892C253.222 33.611 254.071 33.9485 254.904 34.3281C255.743 34.7078 256.529 35.1613 257.146 35.8625C259.029 37.9875 258.66 41.0721 256.888 42.8227C254.377 45.301 250.812 44.626 249.06 42.3218C248.944 42.1689 248.892 42.0054 248.913 41.7787C249.055 41.6996 249.219 41.6258 249.366 41.5203C249.983 41.0774 250.448 41.1723 251.001 41.7365C252.262 43.0125 254.335 42.7489 255.5 41.7312C257.093 40.3445 257.014 37.6711 255.131 36.4004C254.33 35.8573 253.412 35.562 252.563 35.1138C252.12 34.8765 251.64 34.7025 251.218 34.4389C249.403 33.2894 248.755 31.3332 249.493 29.3137C250.179 27.4418 252.204 26.2554 254.219 26.6192C255.326 26.8143 256.281 27.3258 256.977 28.3962L256.983 28.3909Z" fill="white"/>
<path d="M37.0251 28.423C36.7878 28.5495 36.5346 28.6603 36.3078 28.8079C35.8278 29.119 35.4375 29.0399 34.9364 28.7446C33.6864 28.0064 32.3784 28.3228 31.5292 29.3668C30.775 30.2948 30.7908 32.2353 32.3889 33.1422C33.101 33.5482 33.871 33.8435 34.6147 34.1968C35.0683 34.4077 35.5483 34.587 35.9649 34.8559C37.7793 36.0054 38.7287 37.6505 38.4334 39.8176C38.138 41.9953 36.8721 43.4559 34.7729 44.1677C32.563 44.9112 30.2739 43.8197 29.2401 42.4541C29.103 42.2695 28.9764 42.0797 28.9869 41.8055C29.1294 41.7211 29.2876 41.642 29.4405 41.5419C30.0471 41.1517 30.4849 41.1728 31.0756 41.7475C32.832 43.4664 36.1654 42.5595 36.6875 39.7702C36.9302 38.4889 36.4291 37.4343 35.4639 36.6117C35.0894 36.2901 34.62 36.0739 34.1717 35.8524C33.3541 35.4464 32.5102 35.0984 31.7033 34.6819C30.4163 34.0175 29.5619 32.9998 29.3245 31.534C29.0555 29.9205 29.91 27.7006 32.0883 26.8359C33.6548 26.2137 36.1707 26.762 37.0251 28.4335V28.423Z" fill="white"/>
<path d="M190.945 41.9106C191.267 41.5257 191.689 41.4519 192.037 41.2568C192.269 41.125 192.47 41.1672 192.654 41.3464C192.818 41.5046 192.971 41.6734 193.145 41.8263C194.664 43.1498 197.053 42.6699 198.118 41.1619C199.221 39.5958 198.815 37.434 197.137 36.3636C196.336 35.8521 195.429 35.5041 194.569 35.0823C194.157 34.8819 193.725 34.7185 193.345 34.4706C190.724 32.7675 190.929 30.052 192.09 28.391C193.503 26.3662 196.299 25.9602 198.261 27.4841C198.546 27.7056 198.846 27.927 199.015 28.3752C198.699 28.739 198.198 28.8392 197.765 29.0238C197.66 29.0712 197.491 29.029 197.375 28.9816C197.211 28.913 197.058 28.797 196.911 28.6969C195.513 27.7319 193.757 28.7338 193.287 29.762C192.707 31.0275 193.203 32.5829 194.569 33.2368C195.27 33.5742 195.972 33.8906 196.679 34.2228C197.09 34.4179 197.517 34.5866 197.913 34.8134C200.376 36.237 201.193 39.2004 199.827 41.6997C198.498 44.1358 195.429 45.0954 192.971 43.8352C192.106 43.3923 191.351 42.8281 190.945 41.9212V41.9106Z" fill="white"/>
<path d="M22.4837 44.1838C21.4815 44.1838 20.4741 44.1891 19.472 44.1838C19.2294 44.1838 19.0342 44.0836 19.0289 43.7884C19.0289 43.5142 19.0184 43.24 19.0289 42.9658C19.0395 42.7074 19.1766 42.5334 19.4456 42.5281C20.0364 42.5123 20.6324 42.5123 21.2231 42.5018C21.5501 42.4965 21.7189 42.3172 21.7241 41.9903C21.7241 41.7636 21.7241 41.5316 21.7241 41.3048C21.7241 37.424 21.7241 33.5485 21.7241 29.6676C21.7241 29.4409 21.7242 29.2089 21.7189 28.9822C21.7136 28.6553 21.5501 28.4707 21.2231 28.4654C20.6745 28.4549 20.126 28.4654 19.5828 28.4496C19.1503 28.4338 19.0448 28.3072 19.0237 27.8538C19.0131 27.6692 19.0184 27.49 19.0237 27.3054C19.0395 26.8414 19.145 26.7254 19.5669 26.699C19.7463 26.6885 19.9309 26.6937 20.1155 26.6937C21.8033 26.6937 23.4911 26.6885 25.1789 26.6937C26.1283 26.6937 26.1441 26.7254 26.123 27.7167C26.123 27.7641 26.123 27.8063 26.123 27.8538C26.1019 28.3231 26.0122 28.4338 25.5745 28.4496C25.0734 28.4654 24.5723 28.4496 24.0713 28.4654C23.5702 28.4812 23.47 28.6078 23.4436 29.1456C23.4331 29.3724 23.4436 29.6044 23.4436 29.8311C23.4436 33.617 23.4436 37.4082 23.4436 41.1941C23.4436 41.4208 23.4383 41.6528 23.4436 41.8796C23.47 42.3858 23.5755 42.4912 24.1187 42.5071C24.6673 42.5281 25.2158 42.5123 25.7591 42.544C25.8698 42.5492 26.0597 42.6705 26.0702 42.7496C26.1072 43.1556 26.1335 43.5722 26.0913 43.9729C26.0755 44.1469 25.8276 44.1944 25.6377 44.1944C24.5881 44.1944 23.5385 44.1944 22.4889 44.1944L22.4837 44.1838Z" fill="white"/>
<path d="M206.685 44.1786C205.636 44.1786 204.586 44.1786 203.537 44.1786C203.283 44.1786 203.109 44.052 203.115 43.7673C203.115 43.4931 203.109 43.2189 203.12 42.9447C203.13 42.6811 203.289 42.5281 203.547 42.5229C204.048 42.5071 204.549 42.5229 205.05 42.5071C205.715 42.4912 205.778 42.4332 205.799 41.8216C205.81 41.5474 205.799 41.2732 205.799 40.999C205.799 37.3027 205.799 33.6065 205.799 29.9155C205.799 29.6887 205.805 29.4567 205.799 29.23C205.778 28.5393 205.715 28.4812 204.992 28.4602C204.491 28.4443 203.99 28.4496 203.489 28.4285C203.283 28.4232 203.141 28.2862 203.13 28.0911C203.115 27.7272 203.115 27.3634 203.146 27.0048C203.157 26.9047 203.304 26.8045 203.41 26.7359C203.479 26.6937 203.589 26.699 203.679 26.699C205.641 26.699 207.603 26.6885 209.565 26.699C210.108 26.699 210.188 26.8045 210.203 27.3423C210.209 27.569 210.214 27.8011 210.198 28.0278C210.177 28.2914 210.008 28.4338 209.75 28.4391C209.201 28.4549 208.653 28.4391 208.109 28.4654C207.677 28.4812 207.54 28.6183 207.519 29.0349C207.503 29.3091 207.513 29.5833 207.513 29.8575C207.513 33.5959 207.513 37.3397 207.513 41.0781C207.513 41.3523 207.503 41.6265 207.513 41.9007C207.535 42.3489 207.651 42.486 208.073 42.4965C208.621 42.5176 209.17 42.5018 209.713 42.5123C210.05 42.5123 210.198 42.7074 210.198 43.0343C210.198 43.2611 210.188 43.4931 210.198 43.7198C210.219 44.0889 209.987 44.1891 209.686 44.1944C208.684 44.1996 207.677 44.1944 206.675 44.1944V44.1838L206.685 44.1786Z" fill="white"/>
<path d="M73.3874 35.388C73.3874 32.9203 73.3874 30.4579 73.3874 27.9902C73.3874 27.716 73.3769 27.4418 73.3979 27.1676C73.4085 27.0463 73.4718 26.8987 73.5562 26.8143C73.7566 26.6298 74.7693 26.614 75.0014 26.7932C75.0963 26.8671 75.1701 27.0147 75.1754 27.136C75.2018 27.4998 75.1912 27.8636 75.1912 28.2327C75.1912 32.5723 75.1912 36.9119 75.1912 41.2514C75.1912 42.5854 75.1649 42.5011 76.4729 42.5011C78.2557 42.5011 80.0331 42.4958 81.8159 42.5011C82.6123 42.5011 82.6334 42.5433 82.6334 43.3816C82.6334 43.5187 82.6281 43.6558 82.6228 43.7929C82.6228 44.0038 82.5068 44.1251 82.3011 44.1568C82.164 44.1778 82.0268 44.1884 81.895 44.1884C79.2894 44.1884 76.6892 44.1937 74.0836 44.1884C73.4612 44.1884 73.3874 44.1093 73.3874 43.4713C73.3821 40.7769 73.3874 38.0824 73.3874 35.388Z" fill="white"/>
<path fill-rule="evenodd" clip-rule="evenodd" d="M247.07 0.513998C240.741 0.466542 235.609 5.60231 235.657 11.8717C235.599 17.925 240.456 23.1873 246.939 23.2189C253.162 23.2506 258.368 18.4364 258.363 11.8665C258.358 5.25957 253.131 0.561454 247.07 0.513998ZM247.029 20.9465C252.119 20.9307 256.027 16.9391 256.112 11.9088H256.106C256.059 6.84159 252.124 2.77622 246.971 2.79204C241.844 2.80786 237.931 6.81523 237.904 11.8297C237.878 16.9233 241.897 20.9623 247.029 20.9465Z" fill="white"/>
<path fill-rule="evenodd" clip-rule="evenodd" d="M74.3236 22.9868H76.6707L76.6654 22.9815C76.6698 22.6066 76.5302 22.4014 76.4011 22.2115C76.3759 22.1745 76.3511 22.138 76.3278 22.101C75.8268 21.31 75.3231 20.5218 74.8194 19.7335C74.3157 18.9452 73.812 18.1569 73.3109 17.3659C73.1367 17.093 72.9752 16.8075 72.8149 16.5243C72.7956 16.4902 72.7764 16.4561 72.7571 16.4221C72.6516 16.2376 72.7254 16.0583 72.8573 15.9265C72.9652 15.8186 73.0902 15.7255 73.2157 15.632C73.2743 15.5884 73.3329 15.5447 73.39 15.4994C75.9112 13.4429 76.9397 10.8012 76.428 7.59534C75.8268 3.82525 72.5672 0.967357 68.9015 0.78808C67.6685 0.731078 66.4331 0.734254 65.1968 0.737431C64.6034 0.738956 64.0098 0.740482 63.4161 0.735352H63.279C62.8571 0.761716 62.7516 0.877719 62.7305 1.33646V1.88483V21.9059C62.7305 23.0395 62.741 23.0395 63.8592 23.0395C64.9985 23.0395 64.9985 23.0395 65.009 21.9322V19.6016C65.009 19.4349 65.0072 19.2675 65.0055 19.0999C65.002 18.7642 64.9985 18.4277 65.009 18.0936C65.0301 17.424 65.1145 17.3396 65.8318 17.3238C66.2889 17.3133 66.7407 17.3185 67.1977 17.3237L67.2031 17.3238L67.2662 17.3245C68.1157 17.335 68.9695 17.3454 69.7981 17.155C70.3045 17.0443 70.5577 17.2499 70.795 17.6349L70.7953 17.6353C71.5442 18.8374 72.293 20.0394 73.0735 21.2204C73.1856 21.3907 73.2887 21.5677 73.392 21.7449C73.6533 22.1933 73.9153 22.6429 74.3236 22.9868ZM65.0053 4.27863V8.93983L65 8.93456V13.5958C65 13.9174 65 14.2338 65.0106 14.5554C65.0211 14.8718 65.1793 15.0616 65.5169 15.0616C65.8085 15.0616 66.1 15.0637 66.3916 15.0657C67.1496 15.071 67.9076 15.0763 68.6657 15.0458C71.1183 14.9509 74.0983 13.0105 74.2776 9.35639C74.4411 6.09249 72.3736 3.71443 69.4832 3.07641C68.4325 2.84807 67.3459 2.89759 66.2619 2.94698C65.9691 2.96032 65.6766 2.97365 65.385 2.9815C65.1846 2.98678 65.0527 3.12387 65.0369 3.32424C65.0158 3.64061 65.0053 3.96225 65.0053 4.27863Z" fill="white"/>
<path fill-rule="evenodd" clip-rule="evenodd" d="M204.632 1.99584V11.7243H204.627V21.4527V21.4558C204.627 21.8186 204.627 22.1867 204.632 22.5494C204.637 22.8869 204.822 23.0398 205.149 23.0398C205.777 23.035 206.405 23.043 207.033 23.0509C208.459 23.0691 209.885 23.0872 211.31 22.9555C213.451 22.7551 215.355 21.9536 217.053 20.6196C218.952 19.1326 220.192 17.2239 220.883 14.9302C221.421 13.1427 221.468 11.3183 221.072 9.52548C220.677 7.73271 219.891 6.08757 218.657 4.67972C216.605 2.3333 214.052 0.972902 210.935 0.798897C209.649 0.726252 208.36 0.731173 207.071 0.736096C206.488 0.73832 205.906 0.740545 205.323 0.735623C205.298 0.735623 205.272 0.735076 205.245 0.734524C205.13 0.73211 205.011 0.729612 204.917 0.772533C204.812 0.819989 204.68 0.941264 204.669 1.04145C204.632 1.35255 204.632 1.67419 204.632 1.99584ZM206.886 11.8986V11.9039V19.2964C206.886 19.3771 206.886 19.4575 206.885 19.5377C206.884 19.7772 206.883 20.0152 206.891 20.2561C206.902 20.5672 207.039 20.7887 207.377 20.7887C207.627 20.7905 207.878 20.7944 208.128 20.7982C209.295 20.8161 210.458 20.8339 211.617 20.6516C216.243 19.9186 220.04 15.5474 218.864 9.93712C218.179 6.67322 216.079 4.46917 212.883 3.37769C211.484 2.89928 210.047 2.929 208.612 2.9587C208.18 2.96763 207.749 2.97655 207.319 2.97168C207.055 2.97168 206.912 3.15095 206.902 3.40932C206.886 3.77315 206.886 4.14225 206.886 4.50608V11.8986Z" fill="white"/>
<path fill-rule="evenodd" clip-rule="evenodd" d="M172.666 0.545305C172.637 0.533407 172.609 0.521603 172.586 0.508203V0.50293C172.572 0.506814 172.555 0.508552 172.538 0.510253C172.509 0.513168 172.482 0.515972 172.475 0.529294C169.389 7.50001 166.309 14.4655 163.229 21.4362C163.098 21.7309 162.981 22.0309 162.864 22.3305C162.815 22.4544 162.767 22.5783 162.717 22.7017C162.704 22.7382 162.71 22.7828 162.715 22.8214C162.716 22.8274 162.717 22.8332 162.717 22.8388C162.726 22.8735 162.738 22.9046 162.769 22.982C162.775 22.9987 162.783 23.0176 162.791 23.0391H164.389C164.701 23.0391 164.885 22.8968 165.006 22.6015C165.125 22.3085 165.254 22.0211 165.382 21.7342C165.534 21.3962 165.685 21.0589 165.819 20.7138C166.024 20.1865 166.325 19.9598 166.942 19.9651C169.27 19.9904 171.596 19.9884 173.921 19.9864C174.977 19.9854 176.034 19.9845 177.09 19.9861C177.255 19.9861 177.426 19.9765 177.598 19.9668C178.088 19.9392 178.587 19.9111 178.973 20.1021C179.395 20.3094 179.547 20.7896 179.698 21.269C179.763 21.4725 179.827 21.6758 179.912 21.858C180.222 22.5241 180.298 22.8148 180.485 22.9404C180.679 23.0714 180.995 23.0231 181.821 23.0339C181.98 23.0376 182.142 23.0197 182.306 23.0015C182.371 22.9943 182.436 22.9871 182.502 22.9811C182.502 22.9223 182.506 22.8658 182.511 22.8126C182.52 22.7085 182.528 22.6168 182.496 22.5435C179.274 15.2406 176.046 7.93766 172.807 0.640024C172.789 0.59685 172.727 0.570861 172.666 0.545305ZM177.268 17.5222C177.448 17.53 177.63 17.538 177.777 17.3869L177.771 17.3922C177.873 17.1156 177.755 16.8955 177.64 16.681C177.606 16.6175 177.572 16.5544 177.545 16.4905C176.321 13.6959 175.087 10.9065 173.847 8.1172C173.515 7.36846 173.172 6.62498 172.824 5.88151C172.745 5.70223 172.481 5.70751 172.392 5.88151C172.223 6.20843 172.065 6.53535 171.917 6.86754C170.849 9.293 169.788 11.7156 168.725 14.1396C168.344 15.0091 167.963 15.8788 167.581 16.7489C167.574 16.7659 167.567 16.783 167.56 16.8001C167.514 16.9096 167.467 17.0197 167.444 17.1338C167.407 17.3342 167.486 17.4818 167.708 17.5029C167.845 17.5187 167.982 17.5187 168.119 17.5187H177.149C177.188 17.5187 177.228 17.5204 177.268 17.5222Z" fill="white"/>
<path fill-rule="evenodd" clip-rule="evenodd" d="M220.799 44.3475C226.295 44.3897 229.803 39.8761 229.745 35.5313C229.834 30.7699 225.915 26.6201 220.926 26.5727C216.548 26.5305 212.044 29.8682 211.975 35.4047C211.917 40.377 215.741 44.3106 220.799 44.3475ZM213.721 35.5108C213.742 39.4865 217.049 42.6502 220.904 42.5817C224.765 42.608 228.035 39.4021 228.009 35.4264C227.983 31.9305 225.356 28.3133 220.82 28.3449C216.268 28.3766 213.705 32.0254 213.721 35.5108Z" fill="white"/>
<path fill-rule="evenodd" clip-rule="evenodd" d="M126.193 35.4041C126.135 30.0574 121.821 26.5721 117.237 26.5668V26.5615C112.327 26.6512 108.376 30.6058 108.402 35.5307C108.429 40.213 112.126 44.3943 117.364 44.3469C122.538 44.3047 126.251 40.2657 126.193 35.4041ZM117.262 42.596C121.222 42.6119 124.481 39.3441 124.425 35.4749C124.471 32.022 121.828 28.3224 117.267 28.3488C112.974 28.3751 110.12 31.6496 110.163 35.5357C110.21 39.9965 113.844 42.5802 117.262 42.596Z" fill="white"/>
<path fill-rule="evenodd" clip-rule="evenodd" d="M187.914 44.1841C188.113 44.1907 188.311 44.1973 188.498 44.0937C188.583 43.8761 188.476 43.7221 188.368 43.5655C188.348 43.5362 188.327 43.5067 188.308 43.4767C188.156 43.2381 188.004 42.9996 187.852 42.7612C187.243 41.809 186.635 40.8569 186.04 39.8912C185.982 39.7967 185.909 39.7062 185.836 39.6154C185.644 39.3769 185.449 39.1363 185.518 38.8155C185.575 38.5627 185.791 38.4277 186.008 38.292C186.112 38.2267 186.217 38.1613 186.304 38.0826C189.817 34.8978 188.846 29.857 185.439 27.7373C184.279 27.0149 182.992 26.746 181.652 26.7143C180.602 26.6932 179.548 26.7038 178.498 26.7143C177.754 26.7196 177.723 26.7618 177.702 27.4894C177.698 27.6408 177.699 27.7945 177.7 27.9474C177.701 28.0236 177.702 28.0995 177.702 28.1749V42.844V43.6666C177.702 43.9829 177.833 44.1833 178.182 44.1833C178.257 44.1833 178.333 44.1845 178.409 44.1856C178.562 44.188 178.716 44.1903 178.867 44.1833C179.316 44.1675 179.432 44.0673 179.432 43.6138C179.436 43.1154 179.436 42.6169 179.435 42.1185C179.434 41.5202 179.433 40.9219 179.442 40.3236C179.447 39.8596 179.558 39.7541 180.006 39.7436C180.315 39.7351 180.625 39.7408 180.935 39.7464C181.591 39.7584 182.246 39.7704 182.876 39.6487C183.588 39.5116 183.883 39.7805 184.189 40.2708C184.417 40.6359 184.649 40.9978 184.88 41.3594C185.315 42.0371 185.749 42.7137 186.151 43.4082C186.489 43.9935 186.895 44.2888 187.57 44.1939C187.684 44.1765 187.799 44.1803 187.914 44.1841ZM179.439 31.8129C179.44 32.2547 179.441 32.6962 179.441 33.1372H179.436V36.7016C179.436 36.7473 179.436 36.793 179.436 36.8386C179.435 37.0671 179.434 37.2957 179.452 37.5242C179.473 37.8511 179.673 38.0093 179.99 38.0093C180.213 38.007 180.435 38.0083 180.658 38.0096C181.437 38.0141 182.217 38.0187 182.996 37.867C185.465 37.3818 186.926 35.0671 186.762 32.9948C186.535 30.0948 184.304 28.6025 182.385 28.5129C181.609 28.476 180.829 28.476 180.053 28.4865C179.542 28.4918 179.441 28.5973 179.441 29.1615C179.434 30.044 179.437 30.9288 179.439 31.8129Z" fill="white"/>
<path fill-rule="evenodd" clip-rule="evenodd" d="M57.6601 38.7659C56.8881 40.5199 56.1139 42.2786 55.3359 44.0463L55.3412 44.0358C55.7495 44.2015 56.0866 44.1875 56.4046 44.1743C56.5015 44.1703 56.5966 44.1664 56.6914 44.1676C56.9341 44.1676 57.1134 44.0516 57.2136 43.809C57.3149 43.5685 57.4223 43.3291 57.53 43.0892C57.6465 42.8296 57.7633 42.5694 57.8729 42.3063C58.01 41.9688 58.2579 41.8159 58.6113 41.8159H59.1599H67.1084C67.1536 41.8159 67.199 41.8157 67.2446 41.8155C67.4275 41.8146 67.6125 41.8138 67.794 41.8264C68.0841 41.8475 68.3056 41.9635 68.4269 42.2588C68.5687 42.6077 68.7205 42.954 68.8719 43.2996C68.9403 43.4555 69.0085 43.6112 69.0757 43.7669C69.197 44.0516 69.408 44.1887 69.7139 44.1834C69.7777 44.1824 69.8418 44.1815 69.9059 44.1807C70.1599 44.1773 70.4159 44.1739 70.6686 44.1571C70.8268 44.1465 70.9006 44.0041 70.869 43.867C70.8333 43.7199 70.7674 43.5765 70.7033 43.4369C70.6916 43.4114 70.6799 43.3861 70.6686 43.3609C69.9633 41.7591 69.2584 40.1573 68.5536 38.5556C66.8339 34.6476 65.1146 30.7403 63.3899 26.8357C63.3601 26.7695 63.2929 26.722 63.2078 26.6619C63.1574 26.6263 63.1007 26.5862 63.0418 26.5352C61.2448 30.6224 59.4581 34.6813 57.6601 38.7659ZM61.9677 39.9636C62.3486 39.9625 62.7297 39.9613 63.1114 39.9613L63.1062 39.956H65.5746C65.6957 39.956 65.8174 39.9572 65.9393 39.9584C66.1837 39.9607 66.4288 39.9631 66.6716 39.956C67.1463 39.9402 67.2624 39.782 67.1147 39.376C67.0356 39.1651 66.9459 38.9542 66.8562 38.7433C66.5883 38.1371 66.3208 37.531 66.0534 36.925C65.3995 35.4434 64.746 33.9626 64.0872 32.4844C63.8498 31.9413 63.6019 31.4034 63.3435 30.8709C63.3119 30.8076 63.1958 30.7549 63.122 30.7549C63.0534 30.7549 62.9585 30.8287 62.9268 30.892C62.5471 31.7382 62.1763 32.5845 61.8054 33.4307C61.6818 33.7129 61.5581 33.995 61.4342 34.2771C61.1898 34.8343 60.9448 35.3909 60.6999 35.9475C60.2099 37.0606 59.72 38.1738 59.2348 39.2916C59.0238 39.7873 59.1345 39.956 59.6831 39.9613C60.4459 39.9683 61.2064 39.966 61.9677 39.9636Z" fill="white"/>
</svg>
