<svg width="306" height="48" viewBox="0 0 306 48" fill="none" xmlns="http://www.w3.org/2000/svg">
<path d="M191.869 28.6267C192.164 28.5469 192.255 28.5013 192.351 28.4956C193.668 28.4387 193.685 28.433 194.213 29.6294C195.966 33.5946 197.703 37.5598 199.45 41.525C199.689 42.0605 199.865 42.6359 200.245 43.1145C200.71 42.9891 200.744 42.5504 200.892 42.2257C202.271 39.1208 203.627 36.0044 204.994 32.8938C205.488 31.7658 206.005 30.6491 206.487 29.5154C206.975 28.3589 206.986 28.4899 208.132 28.4842C208.229 28.4842 208.331 28.4956 208.422 28.5184C208.655 28.5811 208.728 28.752 208.638 28.9628C207.928 30.5922 207.219 32.2159 206.504 33.8395C204.682 37.987 202.866 42.1402 201.034 46.2878C200.841 46.7321 200.733 47.2335 200.239 47.6266C197.419 41.3256 194.684 35.0245 191.875 28.6324L191.869 28.6267Z" fill="white"/>
<path d="M17.8872 42.7977C18.019 42.9032 18.1773 42.9032 18.3144 42.9348C19.0475 43.093 19.786 43.209 20.5349 43.2775C20.5666 43.2775 20.6035 43.2775 20.6351 43.2881C20.7881 43.3092 20.9147 43.2723 21.0413 43.1721C21.3155 42.9506 21.6003 42.7503 21.8852 42.5341C24.132 40.8415 26.3789 39.1489 28.6258 37.4563C30.936 35.7163 33.2462 33.9709 35.5564 32.2309C36.3897 31.6034 37.2231 30.976 38.0564 30.3485C38.1777 30.2589 38.299 30.185 38.4467 30.1429C38.8423 30.0268 39.2115 30.2641 39.2695 30.6754C39.2801 30.7545 39.2748 30.8336 39.2748 30.9127C39.2748 32.2994 39.2748 33.6809 39.2748 35.0677C39.2748 35.1152 39.2748 35.1573 39.2748 35.2048C39.2748 35.4473 39.1799 35.6372 38.9794 35.7848C38.5311 36.1117 38.0881 36.4492 37.645 36.7867C35.9625 38.0469 34.2852 39.3018 32.6027 40.562C31.4476 41.4268 30.2978 42.2915 29.1427 43.151C29.09 43.1932 29.0372 43.2354 28.9845 43.2775C28.9634 43.2934 28.9634 43.3197 28.9845 43.3408C28.9898 43.3461 29.0003 43.3566 29.0108 43.3566C29.0794 43.3566 29.148 43.3672 29.2165 43.3672C30.2292 43.3672 31.2366 43.3672 32.2493 43.3672C32.4445 43.3672 32.5922 43.3144 32.7451 43.1984C34.2114 42.0911 35.6829 40.9891 37.1545 39.8871C37.4604 39.6551 37.7716 39.4231 38.0775 39.1911C38.2041 39.0962 38.336 39.0118 38.4995 38.9802C38.8898 38.9011 39.2273 39.1383 39.2801 39.5391C39.2906 39.6076 39.2801 39.6762 39.2801 39.7447C39.2801 41.142 39.2801 42.5393 39.2801 43.9366C39.2801 44.0052 39.2801 44.0737 39.2748 44.1423C39.2273 44.4692 38.9267 44.7276 38.6155 44.7118C38.3043 44.6959 38.0406 44.4534 38.0037 44.1317C37.9931 44.0421 37.9984 43.9525 37.9984 43.8576C37.9984 43.0297 37.9984 42.2019 37.9984 41.3688C37.9984 41.2791 37.9984 41.1895 37.9984 41.0946C37.9984 41.0418 37.9457 41.0102 37.9035 41.0366C37.8349 41.0788 37.7716 41.1262 37.7083 41.1737C36.2684 42.2599 34.8232 43.3408 33.3886 44.4323C33.1301 44.6274 32.8664 44.7223 32.5447 44.717C30.7408 44.7065 28.937 44.717 27.1279 44.717C27.0593 44.717 26.9908 44.717 26.9222 44.717C26.4528 44.6959 26.1838 44.3427 26.2734 43.8786C26.3104 43.6994 26.4211 43.5781 26.5583 43.4726C26.8378 43.2617 27.1173 43.0508 27.4022 42.8399C30.6037 40.4302 33.8 38.0258 37.0015 35.6161C37.2916 35.3999 37.5764 35.1732 37.8718 34.9622C37.9668 34.8937 37.9984 34.8199 37.9984 34.7039C37.9984 33.8971 37.9984 33.0904 37.9984 32.2836C37.9984 32.252 37.9879 32.2098 37.972 32.194C37.9298 32.1571 37.8876 32.194 37.8507 32.2151C37.2811 32.6475 36.7114 33.0746 36.1418 33.5069C34.0215 35.1046 31.9012 36.7023 29.7862 38.3052C27.5762 39.9715 25.3663 41.643 23.1563 43.3092C22.6658 43.6783 22.1752 44.0474 21.69 44.4165C21.4421 44.601 21.1731 44.6801 20.8619 44.6432C20.3556 44.5747 19.8492 44.5325 19.3429 44.4639C18.3197 44.3163 17.3123 44.1001 16.326 43.8048C16.1572 43.7521 16.0148 43.6677 15.8987 43.5412C15.6192 43.2406 15.6825 42.7977 15.9779 42.5815C16.4262 42.2546 16.8692 41.9171 17.3123 41.585C20.7037 39.0329 24.0898 36.4808 27.4813 33.934C30.5562 31.6245 33.6312 29.315 36.7062 27.0055C37.0965 26.7102 37.4815 26.4149 37.8771 26.1249C37.9668 26.0564 38.0089 25.9826 38.0089 25.8718C38.0089 25.0651 38.0089 24.2583 38.0089 23.4516C38.0089 23.3409 37.9509 23.3145 37.856 23.3883C37.4129 23.7205 36.9699 24.058 36.5216 24.3902C34.2325 26.1197 31.9381 27.8492 29.649 29.5734C27.3494 31.3082 25.0498 33.0482 22.7502 34.783C20.4347 36.5336 18.114 38.2841 15.7985 40.0295C14.9282 40.6833 14.058 41.3424 13.1877 41.9962C13.1613 42.0173 13.135 42.0384 13.1086 42.0595C12.866 42.2388 12.6181 42.2652 12.3491 42.1122C11.8269 41.817 11.2995 41.5269 10.7931 41.2C8.89436 39.9873 7.22238 38.5161 5.7772 36.7919C4.67485 35.4737 3.73601 34.0448 2.96595 32.5051C2.26446 31.1025 1.71592 29.6367 1.33089 28.1181C1.08827 27.1637 0.908941 26.1935 0.798179 25.2075C0.645222 23.9051 0.608302 22.6027 0.692692 21.3003C0.745435 20.5093 0.829826 19.7184 0.96696 18.938C1.16739 17.8096 1.44693 16.7023 1.81614 15.6109C2.42796 13.8075 3.26132 12.1149 4.31092 10.5278C5.74028 8.37122 7.49664 6.51517 9.57475 4.96495C11.0463 3.8682 12.6286 2.97181 14.327 2.27052C15.5137 1.78014 16.7321 1.39522 17.9874 1.11576C18.6203 0.978669 19.2532 0.873212 19.8967 0.783573C20.978 0.635933 22.0645 0.59375 23.1563 0.59375C28.2197 0.59375 33.2831 0.59375 38.3465 0.59375C38.4625 0.59375 38.5733 0.59375 38.6893 0.59375C39.0427 0.625387 39.3064 0.904849 39.3064 1.24231C39.3064 1.60614 39.0427 1.90142 38.6841 1.93306C38.5733 1.9436 38.4573 1.93306 38.3412 1.93306C33.2462 1.93306 28.1459 1.93306 23.0508 1.93306C22.708 1.93306 22.3704 1.93306 22.0276 1.9436C21.094 1.96469 20.171 2.07015 19.2532 2.22306C18.1878 2.39707 17.1435 2.66071 16.1203 3.00345C15.1076 3.34091 14.1265 3.75747 13.1824 4.24784C11.4735 5.13895 9.91231 6.24098 8.50405 7.56447C6.89009 9.08833 5.54512 10.8231 4.48497 12.7688C3.80985 14.0079 3.27186 15.2998 2.86574 16.6549C2.5229 17.7991 2.27501 18.9591 2.13787 20.1455C2.00074 21.3214 1.95327 22.4972 2.02184 23.6783C2.0904 24.8805 2.24863 26.0722 2.51235 27.2481C2.82354 28.6243 3.27186 29.953 3.85205 31.2396C4.61156 32.9111 5.57677 34.456 6.74768 35.8692C8.17704 37.5987 9.84375 39.0593 11.7478 40.2456C11.9588 40.3775 12.1803 40.4987 12.386 40.6358C12.5179 40.7255 12.6286 40.7149 12.7552 40.6147C13.1508 40.3089 13.5516 40.0084 13.9472 39.7078C16.5633 37.7358 19.1847 35.7584 21.8008 33.7864C24.9601 31.4031 28.1195 29.0145 31.2788 26.6259C33.5257 24.928 35.7726 23.2354 38.0142 21.5428C38.1144 21.469 38.2146 21.3899 38.3254 21.3372C38.8212 21.0999 39.2853 21.3846 39.3012 21.933C39.3117 22.3179 39.3012 22.7028 39.3012 23.093C39.3012 24.0896 39.3012 25.0915 39.3012 26.088C39.3012 26.1671 39.3012 26.2462 39.3012 26.3253C39.3064 26.5837 39.201 26.784 38.99 26.937C38.7896 27.0846 38.5891 27.2375 38.3887 27.3851C35.6038 29.4732 32.8137 31.5665 30.0288 33.6546C27.7608 35.3577 25.4928 37.0608 23.2249 38.764C21.537 40.0295 19.8492 41.3002 18.1614 42.5657C18.0718 42.6343 17.9768 42.6923 17.9135 42.7924L17.8872 42.7977Z" fill="#B94A95" stroke="#B94A95" stroke-width="0.85" stroke-miterlimit="10"/>
<path d="M282.909 13.6969C282.861 7.4275 287.993 2.29174 294.322 2.33919C300.383 2.38665 305.61 7.08477 305.615 13.6917C305.62 20.2616 300.414 25.0758 294.191 25.0441C287.708 25.0125 282.851 19.7502 282.909 13.6969Z" fill="white"/>
<path d="M64.0905 13.992C65.2351 13.992 66.3743 13.9815 67.5189 13.992C67.9725 13.9973 68.0938 14.1186 68.099 14.572C68.1096 16.6284 68.099 18.6849 68.1096 20.7413C68.1096 21.0945 67.9461 21.3371 67.7087 21.5691C63.2044 25.9878 57.3657 26.1249 52.9721 22.9664C49.28 20.3142 47.645 16.5441 48.2621 11.9725C48.5944 9.5048 49.7495 7.37457 51.5322 5.63453C54.0586 3.16683 57.1125 2.0648 60.6358 2.34953C62.8299 2.52881 64.7867 3.36192 66.5167 4.72232C66.9703 5.08088 66.9809 5.18106 66.675 5.61343C66.6222 5.68725 66.5642 5.76107 66.5009 5.82435C66.2108 6.10908 66.1317 6.62582 65.7045 6.72601C65.2614 6.83146 64.9977 6.38854 64.676 6.16708C60.6516 3.4252 54.7179 4.19503 51.817 8.82988C48.7104 13.7864 50.9837 19.3809 55.103 21.5902C58.3256 23.3197 61.485 23.1879 64.5758 21.2686C64.8447 21.0998 65.0874 20.8889 65.3405 20.6938C65.6517 20.4565 65.8363 20.1613 65.7994 19.7605C65.7994 19.7131 65.8047 19.6709 65.7994 19.6234C65.6939 18.5478 66.0262 17.451 65.6201 16.3964C64.6285 16.1908 63.6264 16.3332 62.6295 16.3015C61.9016 16.2752 61.1685 16.2962 60.4354 16.291C60.1031 16.291 59.9448 16.1064 59.9343 15.7848C59.9343 15.7373 59.9343 15.6951 59.9343 15.6477C59.9554 13.8444 59.6917 13.992 61.4955 13.9867C62.3658 13.9867 63.2308 13.9867 64.1011 13.9867L64.0905 13.992Z" fill="white"/>
<path d="M144.51 25.1504C144.214 24.8288 143.903 24.5124 143.618 24.1802C139.283 19.0603 134.947 13.935 130.617 8.80982C130.527 8.70436 130.448 8.58836 130.343 8.50399C130.285 8.45654 130.168 8.43545 130.1 8.45654C130.031 8.47763 129.947 8.56727 129.942 8.63054C129.921 9.04182 129.915 9.45311 129.915 9.86439C129.915 14.341 129.915 18.8177 129.915 23.2944C129.915 23.6582 129.915 24.0273 129.91 24.3911C129.91 24.7391 129.71 24.8657 129.388 24.8604C127.494 24.834 127.711 25.1399 127.711 23.3524C127.705 16.7771 127.711 10.1966 127.711 3.62132C127.711 3.1784 127.732 2.74076 127.742 2.16602C128.18 2.41911 128.375 2.71967 128.602 2.98331C132.943 8.09798 137.284 13.2179 141.63 18.3326C141.777 18.5066 141.925 18.6806 142.094 18.8335C142.141 18.881 142.273 18.881 142.342 18.8493C142.405 18.8177 142.468 18.7228 142.474 18.649C142.495 18.3748 142.495 18.1006 142.495 17.8264C142.495 13.4868 142.495 9.14728 142.495 4.80772C142.495 4.39644 142.495 3.98515 142.495 3.57387C142.495 2.45075 142.437 2.46657 143.629 2.4613C144.837 2.4613 144.715 2.54566 144.72 3.63187C144.72 10.5288 144.72 17.4257 144.72 24.3226C144.72 24.5757 144.826 24.8604 144.525 25.1451L144.51 25.1504Z" fill="white"/>
<path d="M123.923 24.812H121.576C121.006 24.3322 120.721 23.6467 120.325 23.0456C119.545 21.8645 118.796 20.6623 118.047 19.4601C117.81 19.0751 117.556 18.8695 117.05 18.9802C116.201 19.1753 115.325 19.1595 114.455 19.149C113.996 19.1437 113.543 19.1384 113.084 19.149C112.366 19.1648 112.282 19.2491 112.261 19.9188C112.245 20.4197 112.261 20.9259 112.261 21.4268C112.261 22.2019 112.261 22.9823 112.261 23.7574C112.25 24.8647 112.25 24.8647 111.111 24.8647C109.993 24.8647 109.982 24.8647 109.982 23.7311C109.982 17.0556 109.982 10.3802 109.982 3.71003C109.982 3.52548 109.982 3.3462 109.982 3.16165C110.004 2.70291 110.109 2.58691 110.531 2.56055C110.578 2.56055 110.621 2.56055 110.668 2.56055C112.498 2.57637 114.329 2.52891 116.153 2.61328C119.819 2.79255 123.079 5.65044 123.68 9.42054C124.192 12.6264 123.163 15.2681 120.642 17.3246C120.463 17.4669 120.267 17.5935 120.109 17.7517C119.977 17.8835 119.904 18.0628 120.009 18.2473C120.188 18.5637 120.368 18.8853 120.563 19.1911C121.565 20.773 122.578 22.3443 123.58 23.9262C123.722 24.1529 123.923 24.3585 123.917 24.8067L123.923 24.812Z" fill="white"/>
<path d="M251.884 13.5495C251.884 10.3066 251.884 7.06384 251.884 3.82103C251.884 3.49939 251.884 3.17774 251.921 2.86664C251.932 2.76646 252.064 2.64518 252.169 2.59773C252.285 2.545 252.438 2.56082 252.575 2.56082C254.448 2.57664 256.32 2.51864 258.187 2.62409C261.304 2.7981 263.857 4.15849 265.909 6.50492C267.143 7.91277 267.929 9.5579 268.324 11.3507C268.72 13.1434 268.673 14.9679 268.135 16.7554C267.444 19.049 266.204 20.9578 264.305 22.4448C262.607 23.7788 260.703 24.5803 258.562 24.7806C256.51 24.9705 254.453 24.8492 252.401 24.865C252.074 24.865 251.889 24.7121 251.884 24.3746C251.879 24.0108 251.879 23.6417 251.879 23.2779C251.879 20.0351 251.879 16.7923 251.879 13.5495H251.884Z" fill="white"/>
<path d="M164.24 2.65526C164.551 2.41798 164.878 2.47598 165.195 2.47598C169.309 2.47598 173.423 2.47598 177.537 2.47598C177.721 2.47598 177.901 2.47598 178.085 2.4918C178.338 2.51289 178.528 2.63417 178.539 2.89781C178.56 3.35655 178.56 3.81001 178.539 4.26875C178.528 4.59567 178.317 4.74331 177.996 4.74331C177.674 4.74331 177.357 4.74858 177.036 4.74858C174.108 4.74858 171.186 4.74858 168.259 4.74858C168.032 4.74858 167.8 4.74858 167.573 4.74858C166.397 4.72749 166.403 4.78549 166.408 5.85588C166.418 7.27428 166.408 8.68741 166.408 10.1058C166.408 10.2429 166.408 10.38 166.408 10.5171C166.434 11.0602 166.498 11.1393 167.067 11.1446C169.261 11.1551 171.455 11.1446 173.65 11.1498C174.061 11.1498 174.472 11.1393 174.884 11.1498C175.348 11.1657 175.474 11.2658 175.474 11.7035C175.474 13.5543 175.722 13.3697 173.95 13.375C171.941 13.3803 169.926 13.375 167.916 13.375C167.595 13.375 167.278 13.3644 166.956 13.3855C166.55 13.4119 166.434 13.549 166.413 14.0024C166.408 14.1395 166.413 14.2766 166.413 14.4137C166.413 16.7918 166.413 19.1699 166.413 21.5426C166.413 21.7694 166.413 22.0014 166.434 22.2281C166.455 22.5023 166.64 22.6288 166.888 22.6447C167.252 22.6658 167.621 22.6552 167.985 22.6552C171.002 22.6552 174.019 22.6552 177.036 22.6552C177.357 22.6552 177.674 22.6447 177.996 22.6605C178.418 22.6816 178.523 22.8029 178.549 23.2616C178.56 23.4883 178.56 23.7203 178.549 23.9471C178.539 24.8434 178.539 24.8593 177.626 24.8593C173.423 24.8645 169.214 24.8593 165.01 24.8593C164.826 24.8593 164.636 24.8698 164.467 24.8171C164.361 24.7854 164.24 24.6589 164.214 24.5482C164.166 24.3794 164.177 24.1843 164.177 24.0051C164.177 17.0554 164.177 10.1111 164.177 3.16145C164.177 2.98217 164.214 2.8029 164.23 2.64998L164.24 2.65526Z" fill="white"/>
<path d="M91.4688 13.597C91.4688 10.3542 91.4688 7.11141 91.4688 3.86332C91.4688 3.54168 91.4688 3.22531 91.4793 2.90366C91.4898 2.63475 91.6481 2.49765 91.9118 2.48711C92.0489 2.48184 92.1861 2.47656 92.3232 2.47656C96.5269 2.47656 100.731 2.47656 104.934 2.47656C105.071 2.47656 105.209 2.48184 105.346 2.48711C105.604 2.50293 105.783 2.6242 105.789 2.89312C105.805 3.3044 105.81 3.71568 105.799 4.12697C105.783 4.64371 105.688 4.73862 105.129 4.73862C102.16 4.74389 99.1904 4.72807 96.221 4.75444C95.4193 4.76498 94.5912 4.5488 93.8106 4.92317C93.5838 5.68246 93.7262 6.45757 93.7051 7.22214C93.6787 8.31889 93.6893 9.41564 93.7051 10.5124C93.7104 11.0555 93.7842 11.1293 94.3591 11.1346C95.9151 11.1451 97.4657 11.1346 99.0217 11.1399C100.119 11.1399 101.216 11.1399 102.313 11.1504C102.577 11.1504 102.751 11.2822 102.751 11.5564C102.751 13.6867 103.083 13.3545 101.126 13.3703C99.1166 13.3861 97.1071 13.3703 95.0975 13.3703C94.7758 13.3703 94.4593 13.3703 94.1376 13.3914C93.8686 13.4072 93.7367 13.5812 93.7156 13.8396C93.6998 14.0188 93.7104 14.2034 93.7051 14.388C93.7051 16.8082 93.7051 19.2284 93.7051 21.654C93.7051 21.8385 93.7051 22.0178 93.7209 22.2023C93.742 22.466 93.8897 22.6242 94.1481 22.6347C94.5121 22.6558 94.876 22.6505 95.2452 22.6505C98.3044 22.6505 101.369 22.6505 104.428 22.6505C104.75 22.6505 105.066 22.6558 105.388 22.6663C105.667 22.6769 105.778 22.8562 105.799 23.1093C105.81 23.2464 105.81 23.3834 105.805 23.5205C105.794 24.9758 105.942 24.8598 104.496 24.8598C100.567 24.8598 96.6376 24.8598 92.7082 24.8598C92.434 24.8598 92.1597 24.8598 91.8854 24.8493C91.6059 24.844 91.4846 24.6753 91.4793 24.4169C91.4688 24.0531 91.4688 23.684 91.4688 23.3202C91.4688 20.0774 91.4688 16.8346 91.4688 13.5865V13.597Z" fill="white"/>
<path d="M219.838 2.3334C219.912 2.37558 220.033 2.40195 220.059 2.46522C223.298 9.76286 226.526 17.0658 229.748 24.3687C229.796 24.4794 229.754 24.6323 229.754 24.8063C229.521 24.8274 229.295 24.8643 229.073 24.8591C227.454 24.838 227.797 25.0436 227.164 23.6832C226.879 23.0716 226.826 22.2226 226.225 21.9273C225.703 21.669 224.975 21.8113 224.342 21.8113C220.961 21.8061 217.58 21.8272 214.194 21.7902C213.577 21.785 213.276 22.0117 213.071 22.539C212.823 23.177 212.517 23.7887 212.258 24.4267C212.137 24.722 211.952 24.8643 211.641 24.8643C211.098 24.8643 210.555 24.8643 210.043 24.8643C209.996 24.7431 209.98 24.7061 209.969 24.664C209.964 24.6218 209.953 24.569 209.969 24.5269C210.138 24.105 210.296 23.6779 210.481 23.2614C213.561 16.2907 216.641 9.32521 219.727 2.35449C219.737 2.3334 219.801 2.33867 219.838 2.32812V2.3334Z" fill="white"/>
<path d="M86.8641 10.9657C86.8641 13.2963 86.8641 15.6269 86.8641 17.9575C86.8641 20.905 85.4717 23.0247 82.8714 24.3007C78.2194 26.5839 72.7393 23.5256 72.3859 18.527C72.3596 18.1631 72.3438 17.7993 72.3438 17.4302C72.3438 12.8586 72.3438 8.28707 72.3438 3.7155C72.3438 3.44131 72.3438 3.16712 72.3649 2.89293C72.3859 2.69256 72.5284 2.57129 72.7235 2.54492C72.9028 2.51856 73.0874 2.51856 73.2668 2.51856C74.7647 2.51856 74.6117 2.43419 74.6117 3.8315C74.6117 8.17634 74.6117 12.5159 74.6117 16.8607C74.6117 17.3195 74.6328 17.7729 74.6381 18.2317C74.675 20.9208 77.1804 22.8929 79.8176 22.7874C82.0539 22.6978 83.921 21.2425 84.4907 19.2019C84.6542 18.6166 84.6331 18.026 84.6331 17.4355C84.6331 13.001 84.6331 8.56653 84.6383 4.13205C84.6383 2.32346 84.3904 2.53965 86.2312 2.5291C86.8061 2.5291 86.8536 2.57129 86.8536 3.1513C86.8589 5.75609 86.8536 8.36089 86.8536 10.9657H86.8641Z" fill="white"/>
<path d="M232.46 10.8387C232.46 8.5081 232.46 6.1775 232.46 3.84689C232.46 3.52525 232.46 3.20888 232.476 2.88723C232.486 2.68687 232.607 2.55504 232.818 2.5445C233.14 2.52868 233.457 2.51813 233.778 2.52341C234.664 2.53395 234.686 2.5445 234.686 3.45143C234.686 7.8859 234.686 12.3204 234.686 16.7496C234.686 17.1609 234.691 17.5721 234.686 17.9834C234.659 20.7675 237.059 22.845 239.781 22.7765C241.637 22.729 243.103 21.917 244.106 20.3035C244.559 19.5758 244.68 18.7744 244.733 17.9518C244.765 17.4034 244.744 16.855 244.744 16.3067C244.744 12.1938 244.744 8.081 244.744 3.96817C244.744 3.74144 244.744 3.50943 244.744 3.2827C244.754 2.78705 245.016 2.5322 245.53 2.51813C245.619 2.51813 245.714 2.51813 245.804 2.51813C247.08 2.50759 247.001 2.51813 247.001 3.7098C247.001 8.32355 247.001 12.9426 247.001 17.5563C247.001 19.9291 246.226 21.9486 244.327 23.4461C240.651 26.3515 235.229 25.1703 233.177 21.1261C232.755 20.2982 232.497 19.4335 232.486 18.5054C232.465 16.3594 232.46 14.2081 232.449 12.062C232.449 11.6507 232.449 11.2394 232.449 10.8282L232.46 10.8387Z" fill="white"/>
<path d="M158.686 4.6754C158.285 4.85995 157.974 4.96014 157.715 5.13414C157.035 5.59815 156.481 5.57706 155.774 5.06032C154.54 4.15339 152.478 4.52776 151.407 6.02525C150.706 7.00073 150.584 9.02551 151.987 10.2805C152.33 10.5863 152.726 10.813 153.142 10.9976C154.308 11.5196 155.463 12.0627 156.629 12.5847C157.388 12.9274 158.053 13.4125 158.617 14.0136C161.365 16.9506 160.695 21.074 158.206 23.3308C155.374 25.8987 151.223 25.5717 148.759 22.8404C148.58 22.64 148.438 22.4028 148.279 22.176C148.121 21.9493 148.158 21.7436 148.396 21.6066C148.554 21.5169 148.738 21.4747 148.891 21.3798C149.635 20.9211 150.215 20.9264 150.896 21.6435C152.082 22.8931 153.612 23.0619 155.199 22.5135C156.803 21.9651 157.763 20.8104 158.063 19.1441C158.401 17.3092 157.409 15.432 155.6 14.5198C154.382 13.9029 153.127 13.344 151.892 12.764C150.832 12.2683 149.994 11.5354 149.355 10.5441C147.478 7.63875 149.202 2.98281 153.274 2.37643C155.437 2.05479 157.204 2.81408 158.67 4.66486L158.686 4.6754Z" fill="white"/>
<path d="M199.742 2.63936C199.816 2.93992 199.621 3.16138 199.51 3.39865C197.179 8.35514 194.853 13.3064 192.511 18.2523C192.073 19.175 191.81 20.1031 191.873 21.1418C191.936 22.1911 191.894 23.2404 191.883 24.295C191.878 24.7485 191.773 24.8539 191.303 24.8539C189.262 24.8434 189.515 25.1387 189.494 23.1771C189.494 22.6762 189.494 22.17 189.494 21.6691C189.494 19.5494 189.478 19.5547 188.561 17.6196C186.308 12.8793 184.077 8.13368 181.836 3.38811C181.725 3.15083 181.641 2.89246 181.535 2.62354C181.736 2.57609 181.867 2.52336 181.994 2.52336C184.109 2.54972 183.634 2.19117 184.52 4.05776C186.356 7.93331 188.17 11.8194 190.001 15.7002C190.175 16.0693 190.38 16.4226 190.591 16.8181C190.982 16.6072 191.087 16.2592 191.229 15.9533C193.044 12.12 194.848 8.27605 196.657 4.44268C196.694 4.35831 196.741 4.27922 196.778 4.19486C197.358 2.94695 198.346 2.42669 199.742 2.63409V2.63936Z" fill="white"/>
<path d="M276.997 37.3564C277.055 41.7013 273.547 46.2148 268.051 46.1727C262.993 46.1358 259.169 42.2022 259.227 37.2299C259.296 31.6934 263.8 28.3557 268.178 28.3979C273.167 28.4453 277.086 32.5951 276.997 37.3564Z" fill="white"/>
<path d="M164.489 28.392C169.072 28.3973 173.387 31.8826 173.445 37.2293C173.503 42.0909 169.79 46.1299 164.616 46.1721C159.378 46.2195 155.681 42.0382 155.654 37.3559C155.628 32.431 159.579 28.4764 164.489 28.3867V28.392Z" fill="white"/>
<path d="M293.364 37.393C293.364 40.1349 293.364 42.8768 293.364 45.6134C293.364 45.7821 293.427 46.0141 293.19 46.0669C292.989 46.1143 292.878 45.9298 292.768 45.7927C290.795 43.4568 288.817 41.1209 286.845 38.7903C285.426 37.1188 284.007 35.4473 282.593 33.7758C282.477 33.6387 282.367 33.4911 282.235 33.3645C282.177 33.3118 282.076 33.2749 282.003 33.2802C281.818 33.2855 281.807 33.4489 281.797 33.5755C281.781 33.9393 281.786 34.3084 281.781 34.6722C281.781 38.0047 281.781 41.3424 281.781 44.6748C281.781 44.9965 281.781 45.3128 281.765 45.6345C281.755 45.8349 281.623 45.9878 281.422 45.993C281.059 46.0089 280.695 45.9983 280.331 45.9614C280.23 45.9509 280.104 45.8138 280.056 45.703C280.004 45.587 280.03 45.4341 280.03 45.297C280.03 39.8133 280.03 34.3348 280.03 28.851C280.03 28.7613 280.03 28.6664 280.051 28.5768C280.056 28.5452 280.114 28.5082 280.151 28.503C280.23 28.4924 280.352 28.4713 280.394 28.5135C280.732 28.8826 281.053 29.2675 281.38 29.6472C284.482 33.3013 287.583 36.9554 290.684 40.6147C290.832 40.7887 290.985 40.9575 291.133 41.1315C291.228 41.2369 291.354 41.2949 291.481 41.2317C291.544 41.2 291.607 41.0946 291.613 41.0155C291.634 40.7413 291.639 40.4671 291.639 40.1929C291.639 36.813 291.639 33.4331 291.639 30.0532C291.639 29.7315 291.628 29.4152 291.644 29.0935C291.665 28.5926 291.787 28.4977 292.33 28.4924C292.467 28.4924 292.604 28.4924 292.741 28.4924C293.248 28.5188 293.353 28.6137 293.358 29.1726C293.364 31.9145 293.358 34.6564 293.358 37.393H293.364Z" fill="white"/>
<path d="M235.75 45.9189C235.455 46.0823 235.133 45.9716 234.822 46.019C234.147 46.114 233.741 45.8187 233.403 45.2334C232.786 44.1683 232.095 43.1453 231.441 42.096C231.135 41.6057 230.84 41.3368 230.128 41.4738C229.199 41.6531 228.218 41.5424 227.258 41.5688C226.81 41.5793 226.699 41.6848 226.694 42.1488C226.678 43.2455 226.694 44.3423 226.684 45.439C226.684 45.8925 226.567 45.9927 226.119 46.0085C225.892 46.019 225.66 46.0085 225.433 46.0085C225.085 46.0085 224.954 45.8081 224.954 45.4918C224.954 45.2176 224.954 44.9434 224.954 44.6692C224.954 39.7813 224.954 34.888 224.954 30.0001C224.954 29.7734 224.948 29.5414 224.954 29.3146C224.975 28.587 225.006 28.5448 225.75 28.5395C226.8 28.529 227.854 28.5184 228.904 28.5395C230.244 28.5712 231.531 28.8401 232.691 29.5625C236.098 31.6821 237.069 36.723 233.556 39.9078C233.287 40.1504 232.855 40.2664 232.77 40.6407C232.675 41.0837 233.081 41.3737 233.292 41.7164C234.036 42.9239 234.801 44.1103 235.56 45.3019C235.682 45.4918 235.85 45.6605 235.75 45.9189Z" fill="white"/>
<path d="M189.649 46.2988C188.204 44.601 186.907 43.0771 185.614 41.5533C183.431 38.9748 181.247 36.3964 179.064 33.818C178.916 33.644 178.768 33.47 178.599 33.317C178.552 33.2696 178.425 33.2643 178.357 33.296C178.294 33.3276 178.235 33.4278 178.23 33.4963C178.209 33.7705 178.214 34.0447 178.214 34.3189C178.214 37.7463 178.214 41.1736 178.214 44.601C178.214 44.9648 178.225 45.3339 178.188 45.6977C178.177 45.8032 178.046 45.9772 177.961 45.9825C177.555 46.0088 177.144 46.0035 176.732 45.9719C176.648 45.9666 176.537 45.7874 176.516 45.6766C176.479 45.4552 176.49 45.2232 176.49 44.9912C176.49 39.7341 176.49 34.4824 176.49 29.2253C176.49 29.0038 176.505 28.7771 176.521 28.4766C176.97 28.5293 177.144 28.8826 177.355 29.1251C179.169 31.2395 180.962 33.3698 182.766 35.4947C184.269 37.2717 185.767 39.0539 187.271 40.8309C187.36 40.9363 187.45 41.0418 187.555 41.1262C187.656 41.2105 187.777 41.3107 187.909 41.2C187.967 41.1525 188.019 41.0629 188.025 40.9891C188.041 40.7149 188.041 40.4407 188.041 40.1665C188.041 36.8288 188.041 33.4963 188.041 30.1586C188.041 29.8844 188.041 29.6102 188.041 29.336C188.056 28.5346 188.093 28.4977 188.9 28.4924C189.702 28.4871 189.739 28.5082 189.739 29.3413C189.739 34.7776 189.739 40.2139 189.739 45.6555C189.739 45.7874 189.697 45.9139 189.633 46.3041L189.649 46.2988Z" fill="white"/>
<path d="M276.1 24.8643C274.776 24.8643 273.452 24.8696 272.128 24.8643C271.68 24.8643 271.579 24.7378 271.553 24.2896C271.548 24.1999 271.553 24.105 271.553 24.0154C271.553 22.6075 271.463 22.6814 272.877 22.6497C273.542 22.6339 274.354 22.9714 274.839 22.4441C275.261 21.9853 274.992 21.2155 274.992 20.588C275.008 15.8372 274.997 11.0863 274.997 6.34078C274.997 6.01913 275.008 5.70276 274.997 5.38112C274.976 4.88019 274.865 4.76419 274.322 4.75365C273.594 4.73783 272.861 4.75365 272.128 4.73783C271.701 4.72728 271.585 4.59019 271.558 4.14727C271.553 4.05763 271.558 3.96272 271.558 3.87308C271.574 2.54432 271.374 2.51268 272.877 2.51795C275.071 2.5285 277.26 2.51795 279.454 2.51795C279.728 2.51795 280.003 2.51795 280.277 2.53905C280.483 2.54959 280.609 2.67614 280.62 2.88178C280.636 3.29306 280.651 3.70435 280.641 4.11563C280.625 4.62182 280.509 4.72728 279.976 4.7431C279.291 4.75892 278.605 4.7431 277.919 4.75365C277.355 4.76419 277.271 4.84856 277.249 5.3653C277.239 5.59203 277.249 5.82404 277.249 6.05077C277.249 11.1654 277.249 16.2801 277.249 21.3948C277.249 21.669 277.249 21.9432 277.265 22.2174C277.281 22.481 277.429 22.6392 277.693 22.6445C278.468 22.6603 279.243 22.6445 280.019 22.6655C280.535 22.6761 280.646 22.7763 280.641 23.3247C280.636 25.0805 280.873 24.8538 279.132 24.8696C278.13 24.8749 277.123 24.8696 276.121 24.8696L276.1 24.8643Z" fill="white"/>
<path d="M102.588 45.8715C105.178 39.987 107.725 34.2027 110.294 28.3604C110.452 28.4974 110.594 28.5554 110.642 28.6609C113.073 34.1658 115.494 39.6759 117.921 45.186C117.994 45.3495 118.079 45.5182 118.121 45.6922C118.153 45.8293 118.079 45.9717 117.921 45.9822C117.604 46.0033 117.282 46.0033 116.966 46.0086C116.66 46.0139 116.449 45.8768 116.328 45.5921C116.111 45.0911 115.885 44.5902 115.679 44.084C115.558 43.7887 115.336 43.6727 115.046 43.6516C114.819 43.6358 114.587 43.6411 114.36 43.6411C111.713 43.6411 109.06 43.6411 106.412 43.6411C106.227 43.6411 106.048 43.6411 105.863 43.6411C105.51 43.6411 105.262 43.794 105.125 44.1315C104.914 44.6377 104.677 45.1333 104.466 45.6342C104.365 45.8768 104.186 45.9928 103.943 45.9928C103.537 45.9875 103.126 46.0772 102.593 45.861L102.588 45.8715Z" fill="white"/>
<path d="M221.643 45.7985C221.321 46.0727 221.036 46.0094 220.767 46.0094C217.619 46.0094 214.464 46.0094 211.316 46.0094C211.131 46.0094 210.946 46.02 210.767 45.9883C210.572 45.9567 210.456 45.8301 210.456 45.6192C210.456 45.345 210.445 45.0708 210.445 44.7966C210.445 39.7716 210.445 34.7518 210.445 29.7268C210.445 29.4526 210.43 29.1784 210.461 28.9043C210.488 28.6564 210.646 28.4982 210.915 28.493C211.142 28.493 211.374 28.4824 211.6 28.4824C214.57 28.4824 217.539 28.4824 220.504 28.4824C220.778 28.4824 221.052 28.4824 221.321 28.5246C221.427 28.5457 221.558 28.6775 221.595 28.7882C221.653 28.957 221.648 29.1468 221.653 29.3261C221.664 30.1908 221.606 30.2594 220.736 30.2594C218.362 30.2699 215.989 30.2594 213.61 30.2594C213.288 30.2594 212.972 30.2594 212.65 30.2752C212.397 30.2857 212.207 30.4176 212.202 30.6865C212.196 32.0996 212.202 33.518 212.212 34.9311C212.212 35.1315 212.381 35.2475 212.581 35.258C212.898 35.2739 213.22 35.2791 213.541 35.2791C215.14 35.2791 216.738 35.2739 218.336 35.2791C219.285 35.2844 219.306 35.316 219.29 36.3073C219.29 36.397 219.28 36.4919 219.28 36.5815C219.269 36.7977 219.138 36.919 218.942 36.9348C218.626 36.9612 218.304 36.9717 217.988 36.9717C216.3 36.9717 214.607 36.9717 212.919 36.977C212.297 36.977 212.191 37.0825 212.191 37.6888C212.181 39.6503 212.181 41.6171 212.191 43.5786C212.191 44.2166 212.276 44.301 212.893 44.3063C214.491 44.3168 216.089 44.3063 217.687 44.3115C218.826 44.3115 219.971 44.3115 221.11 44.3115C221.432 44.3115 221.632 44.4592 221.648 44.7861C221.664 45.1447 221.648 45.4979 221.648 45.7774L221.643 45.7985Z" fill="white"/>
<path d="M100.225 35.0733C100.225 36.8556 100.225 38.6378 100.225 40.42C100.225 41.7382 99.8612 42.9404 99.0542 44.0003C97.82 45.619 95.3832 46.7422 92.7724 45.9301C90.8261 45.3238 89.1014 43.6786 88.8535 41.1266C88.8219 40.8102 88.8008 40.4886 88.8008 40.1669C88.8008 36.6446 88.8008 33.1276 88.8008 29.6054C88.8008 29.4208 88.8061 29.2415 88.8008 29.057C88.8008 28.7301 88.9485 28.535 89.2755 28.5192C89.5497 28.5033 89.824 28.5033 90.0983 28.5192C90.3514 28.535 90.5255 28.6774 90.5308 28.9463C90.5413 29.3101 90.5466 29.6792 90.5466 30.043C90.5466 33.2911 90.5466 36.5339 90.5466 39.782C90.5466 40.2355 90.5519 40.6995 90.6204 41.1477C90.8736 42.9088 92.2608 44.2059 94.0224 44.3747C95.9317 44.5539 97.5668 43.5995 98.1997 41.9491C98.4318 41.3375 98.4476 40.6995 98.4476 40.0615C98.4476 36.9083 98.4476 33.7498 98.4476 30.5967C98.4476 30.0483 98.4476 29.4999 98.4634 28.9515C98.4687 28.6826 98.6481 28.5455 98.8959 28.5192C99.0753 28.4981 99.2599 28.5033 99.4445 28.5086C100.141 28.5192 100.215 28.5877 100.215 29.3101C100.22 31.2294 100.215 33.1487 100.215 35.0733H100.225Z" fill="white"/>
<path d="M152.584 31.9146C148.544 28.8458 144.424 30.2484 142.399 32.6053C139.941 35.4632 140.136 39.2544 142.325 41.875C144.256 44.1898 148.422 45.8138 152.531 42.7239C153.976 44.1793 153.786 44.0685 152.241 44.9965C148.291 47.3693 143.385 46.088 140.806 42.803C137.357 38.416 138.612 31.7564 144.124 29.1991C147.294 27.7279 150.342 28.1761 153.169 30.2009C153.549 30.4751 153.581 30.6386 153.328 30.9866C153.111 31.2766 152.874 31.5508 152.584 31.9146Z" fill="white"/>
<path d="M48.1674 28.7039C48.3678 28.6195 48.4047 28.5879 48.4522 28.5826C49.8235 28.4772 49.8341 28.4719 50.3826 29.7058C51.9913 33.3335 53.5894 36.9665 55.1929 40.5942C55.4144 41.0899 55.6465 41.5855 55.8838 42.1075C56.3532 41.9704 56.406 41.575 56.5378 41.2744C57.7984 38.4429 59.0379 35.5955 60.2879 32.7587C60.7679 31.6725 61.2795 30.6021 61.7331 29.5054C62.1867 28.4086 62.2078 28.5352 63.384 28.5457C63.4262 28.5457 63.4736 28.5563 63.5158 28.5668C63.7268 28.6301 63.8112 28.7777 63.7268 28.9728C63.3523 29.8534 62.9673 30.734 62.5823 31.6093C60.5938 36.1175 58.6107 40.6206 56.6169 45.1236C56.4534 45.4927 56.3427 45.8987 55.9313 46.2625C53.2994 40.4149 50.7677 34.5884 48.1621 28.6986L48.1674 28.7039Z" fill="white"/>
<path d="M304.235 30.2161C303.96 30.3743 303.807 30.4745 303.649 30.5588C303.1 30.8488 302.631 30.8963 302.019 30.5219C300.775 29.7626 299.124 30.2846 298.496 31.4974C297.858 32.726 298.369 34.3342 299.667 35.0144C300.474 35.4362 301.323 35.7737 302.156 36.1533C302.995 36.533 303.781 36.9865 304.398 37.6877C306.281 39.8127 305.912 42.8973 304.14 44.6479C301.629 47.1262 298.063 46.4512 296.312 44.147C296.196 43.9941 296.144 43.8306 296.165 43.6039C296.307 43.5248 296.471 43.451 296.618 43.3455C297.235 42.9026 297.7 42.9975 298.253 43.5617C299.514 44.8377 301.587 44.5741 302.752 43.5564C304.345 42.1697 304.266 39.4963 302.383 38.2256C301.581 37.6825 300.664 37.3872 299.815 36.939C299.372 36.7017 298.892 36.5277 298.47 36.2641C296.655 35.1146 296.006 33.1584 296.745 31.1388C297.431 29.267 299.456 28.0806 301.471 28.4444C302.578 28.6395 303.533 29.151 304.229 30.2214L304.235 30.2161Z" fill="white"/>
<path d="M84.2771 30.2482C84.0397 30.3747 83.7865 30.4855 83.5597 30.6331C83.0798 30.9442 82.6895 30.8651 82.1884 30.5698C80.9384 29.8316 79.6303 30.148 78.7812 31.192C78.0269 32.12 78.0427 34.0605 79.6409 34.9674C80.3529 35.3734 81.123 35.6687 81.8667 36.022C82.3203 36.2329 82.8002 36.4121 83.2169 36.6811C85.0313 37.8305 85.9807 39.4757 85.6853 41.6428C85.39 43.8205 84.1241 45.2811 82.0249 45.9929C79.8149 46.7364 77.5258 45.6449 76.4921 44.2793C76.3549 44.0947 76.2283 43.9049 76.2389 43.6307C76.3813 43.5463 76.5395 43.4672 76.6925 43.367C77.299 42.9769 77.7368 42.9979 78.3276 43.5727C80.0839 45.2916 83.4173 44.3847 83.9395 41.5954C84.1821 40.3141 83.6811 39.2595 82.7158 38.4369C82.3414 38.1153 81.8719 37.8991 81.4236 37.6776C80.6061 37.2716 79.7622 36.9236 78.9552 36.5071C77.6683 35.8427 76.8138 34.825 76.5765 33.3592C76.3075 31.7457 77.1619 29.5258 79.3402 28.661C80.9067 28.0388 83.4226 28.5872 84.2771 30.2587V30.2482Z" fill="white"/>
<path d="M238.197 43.7358C238.519 43.3509 238.941 43.2771 239.289 43.082C239.521 42.9502 239.722 42.9924 239.906 43.1716C240.07 43.3298 240.223 43.4986 240.397 43.6515C241.916 44.975 244.305 44.4951 245.37 42.9871C246.473 41.421 246.067 39.2592 244.389 38.1888C243.588 37.6773 242.68 37.3293 241.821 36.9075C241.409 36.7071 240.977 36.5437 240.597 36.2958C237.976 34.5927 238.181 31.8772 239.342 30.2162C240.755 28.1914 243.551 27.7854 245.513 29.3093C245.798 29.5307 246.098 29.7522 246.267 30.2004C245.951 30.5642 245.45 30.6644 245.017 30.849C244.912 30.8964 244.743 30.8542 244.627 30.8068C244.463 30.7382 244.31 30.6222 244.163 30.522C242.765 29.5571 241.009 30.559 240.539 31.5872C239.959 32.8526 240.455 34.4081 241.821 35.062C242.522 35.3994 243.224 35.7158 243.931 36.048C244.342 36.2431 244.769 36.4118 245.165 36.6386C247.628 38.0622 248.445 41.0256 247.079 43.5249C245.75 45.961 242.68 46.9206 240.223 45.6604C239.358 45.2175 238.603 44.6533 238.197 43.7464V43.7358Z" fill="white"/>
<path d="M69.7356 46.009C68.7335 46.009 67.7261 46.0143 66.7239 46.009C66.4813 46.009 66.2862 45.9088 66.2809 45.6136C66.2809 45.3394 66.2703 45.0652 66.2809 44.791C66.2914 44.5326 66.4286 44.3586 66.6976 44.3533C67.2883 44.3375 67.8843 44.3375 68.475 44.327C68.802 44.3217 68.9708 44.1424 68.9761 43.8155C68.9761 43.5888 68.9761 43.3568 68.9761 43.13C68.9761 39.2492 68.9761 35.3737 68.9761 31.4928C68.9761 31.2661 68.9761 31.0341 68.9708 30.8074C68.9656 30.4804 68.802 30.2959 68.475 30.2906C67.9265 30.2801 67.378 30.2906 66.8347 30.2748C66.4022 30.259 66.2967 30.1324 66.2756 29.679C66.2651 29.4944 66.2703 29.3151 66.2756 29.1306C66.2914 28.6666 66.3969 28.5506 66.8189 28.5242C66.9982 28.5137 67.1828 28.5189 67.3674 28.5189C69.0552 28.5189 70.743 28.5137 72.4308 28.5189C73.3802 28.5189 73.396 28.5506 73.3749 29.5419C73.3749 29.5893 73.3749 29.6315 73.3749 29.679C73.3538 30.1483 73.2642 30.259 72.8264 30.2748C72.3253 30.2906 71.8243 30.2748 71.3232 30.2906C70.8221 30.3064 70.7219 30.433 70.6956 30.9708C70.685 31.1976 70.6956 31.4296 70.6956 31.6563C70.6956 35.4422 70.6956 39.2334 70.6956 43.0193C70.6956 43.246 70.6903 43.478 70.6956 43.7048C70.7219 44.211 70.8274 44.3164 71.3707 44.3322C71.9192 44.3533 72.4677 44.3375 73.011 44.3692C73.1218 44.3744 73.3116 44.4957 73.3222 44.5748C73.3591 44.9808 73.3855 45.3974 73.3433 45.7981C73.3275 45.9721 73.0796 46.0196 72.8897 46.0196C71.8401 46.0196 70.7905 46.0196 69.7409 46.0196L69.7356 46.009Z" fill="white"/>
<path d="M253.937 46.0037C252.888 46.0037 251.838 46.0037 250.789 46.0037C250.535 46.0037 250.361 45.8772 250.367 45.5925C250.367 45.3183 250.361 45.0441 250.372 44.7699C250.382 44.5063 250.541 44.3533 250.799 44.3481C251.3 44.3322 251.801 44.3481 252.302 44.3322C252.967 44.3164 253.03 44.2584 253.051 43.6468C253.062 43.3726 253.051 43.0984 253.051 42.8242C253.051 39.1279 253.051 35.4317 253.051 31.7407C253.051 31.5139 253.056 31.2819 253.051 31.0552C253.03 30.3644 252.967 30.3064 252.244 30.2854C251.743 30.2695 251.242 30.2748 250.741 30.2537C250.535 30.2484 250.393 30.1113 250.382 29.9163C250.367 29.5524 250.367 29.1886 250.398 28.83C250.409 28.7299 250.556 28.6297 250.662 28.5611C250.73 28.5189 250.841 28.5242 250.931 28.5242C252.893 28.5242 254.855 28.5137 256.817 28.5242C257.36 28.5242 257.44 28.6297 257.455 29.1675C257.461 29.3942 257.466 29.6262 257.45 29.853C257.429 30.1166 257.26 30.259 257.002 30.2643C256.453 30.2801 255.905 30.2643 255.361 30.2906C254.929 30.3064 254.792 30.4435 254.771 30.8601C254.755 31.1343 254.765 31.4085 254.765 31.6827C254.765 35.4211 254.765 39.1648 254.765 42.9033C254.765 43.1775 254.755 43.4517 254.765 43.7259C254.786 44.1741 254.903 44.3112 255.324 44.3217C255.873 44.3428 256.422 44.327 256.965 44.3375C257.302 44.3375 257.45 44.5326 257.45 44.8595C257.45 45.0863 257.44 45.3183 257.45 45.545C257.471 45.9141 257.239 46.0143 256.938 46.0196C255.936 46.0248 254.929 46.0196 253.927 46.0196V46.009L253.937 46.0037Z" fill="white"/>
<path d="M120.639 37.2132C120.639 34.7455 120.639 32.2831 120.639 29.8154C120.639 29.5412 120.629 29.267 120.65 28.9928C120.66 28.8715 120.724 28.7239 120.808 28.6395C121.009 28.455 122.021 28.4392 122.253 28.6184C122.348 28.6922 122.422 28.8399 122.427 28.9612C122.454 29.325 122.443 29.6888 122.443 30.0579C122.443 34.3975 122.443 38.737 122.443 43.0766C122.443 44.4106 122.417 44.3263 123.725 44.3263C125.508 44.3263 127.285 44.321 129.068 44.3263C129.864 44.3263 129.885 44.3685 129.885 45.2068C129.885 45.3439 129.88 45.481 129.875 45.6181C129.875 45.829 129.759 45.9503 129.553 45.982C129.416 46.003 129.279 46.0136 129.147 46.0136C126.541 46.0136 123.941 46.0189 121.336 46.0136C120.713 46.0136 120.639 45.9345 120.639 45.2965C120.634 42.6021 120.639 39.9076 120.639 37.2132Z" fill="white"/>
<path d="M303.364 13.734C303.279 18.7643 299.371 22.7559 294.281 22.7717C289.149 22.7875 285.13 18.7485 285.156 13.6549C285.183 8.64042 289.096 4.63305 294.223 4.61723C299.376 4.60141 303.311 8.66679 303.358 13.734H303.364Z" fill="#020520"/>
<path d="M112.257 10.765C112.257 9.20953 112.257 7.65931 112.257 6.10382C112.257 5.78745 112.268 5.4658 112.289 5.14943C112.305 4.94906 112.437 4.81197 112.637 4.8067C114.008 4.76979 115.401 4.6116 116.735 4.90161C119.626 5.53962 121.693 7.91768 121.53 11.1816C121.35 14.8357 118.37 16.7761 115.918 16.871C114.868 16.9132 113.818 16.8868 112.769 16.8868C112.431 16.8868 112.273 16.697 112.263 16.3806C112.252 16.059 112.252 15.7426 112.252 15.421C112.252 13.8655 112.252 12.3152 112.252 10.7598L112.257 10.765Z" fill="#020520"/>
<path d="M254.138 13.7291C254.138 11.2614 254.138 8.79897 254.138 6.33127C254.138 5.96745 254.138 5.59835 254.154 5.23452C254.164 4.97615 254.307 4.79687 254.571 4.79687C256.432 4.81796 258.315 4.58069 260.135 5.20288C263.331 6.29436 265.43 8.49842 266.116 11.7623C267.292 17.3726 263.495 21.7438 258.869 22.4768C257.461 22.6982 256.047 22.6244 254.629 22.6139C254.291 22.6139 254.154 22.3924 254.143 22.0813C254.133 21.7597 254.138 21.4433 254.138 21.1216C254.138 18.6539 254.138 16.1915 254.138 13.7238V13.7291Z" fill="#020520"/>
<path d="M225.029 19.2121C224.849 19.3966 224.617 19.3439 224.401 19.3439C221.389 19.3439 218.383 19.3439 215.371 19.3439C215.234 19.3439 215.097 19.3439 214.96 19.3281C214.738 19.307 214.659 19.1594 214.696 18.959C214.723 18.8272 214.781 18.7006 214.833 18.5741C216.279 15.2785 217.718 11.9883 219.169 8.69273C219.317 8.36054 219.475 8.03362 219.644 7.70671C219.733 7.5327 219.997 7.52743 220.076 7.70671C220.424 8.45018 220.767 9.19365 221.099 9.9424C222.339 12.7317 223.573 15.5211 224.797 18.3157C224.918 18.5952 225.155 18.8588 225.023 19.2174L225.029 19.2121Z" fill="#020520"/>
<path d="M268.156 44.4068C264.301 44.4754 260.994 41.3117 260.973 37.3359C260.957 33.8506 263.52 30.2018 268.072 30.1701C272.608 30.1385 275.235 33.7557 275.261 37.2516C275.287 41.2273 272.017 44.4332 268.156 44.4068Z" fill="#020520"/>
<path d="M171.676 37.2976C171.734 41.1679 168.475 44.437 164.514 44.4212C161.096 44.4054 157.462 41.8217 157.415 37.3609C157.372 33.4748 160.226 30.2003 164.519 30.174C169.081 30.1476 171.724 33.8491 171.676 37.3029V37.2976Z" fill="#020520"/>
<path d="M226.693 34.9624C226.693 33.6389 226.683 32.3101 226.693 30.9867C226.693 30.4225 226.794 30.317 227.305 30.3117C228.081 30.3012 228.861 30.3012 229.636 30.3381C231.556 30.4277 233.787 31.92 234.014 34.82C234.178 36.8923 232.717 39.207 230.248 39.6921C229.246 39.8872 228.244 39.824 227.242 39.8345C226.925 39.8345 226.725 39.6763 226.704 39.3494C226.683 39.0752 226.688 38.801 226.688 38.5268C226.688 37.3405 226.688 36.1488 226.688 34.9624H226.693Z" fill="#020520"/>
<path d="M110.363 41.7865C109.219 41.7865 108.08 41.797 106.935 41.7865C106.386 41.7812 106.276 41.6125 106.487 41.1168C107.215 39.4401 107.953 37.7738 108.686 36.1023C109.182 34.974 109.672 33.8456 110.179 32.7172C110.21 32.6539 110.305 32.5801 110.374 32.5801C110.448 32.5801 110.564 32.6328 110.595 32.6961C110.854 33.2286 111.102 33.7665 111.339 34.3096C112.267 36.3924 113.185 38.4804 114.108 40.5685C114.198 40.7794 114.288 40.9903 114.367 41.2012C114.514 41.6072 114.398 41.7654 113.924 41.7812C113.56 41.7918 113.19 41.7812 112.827 41.7812C112.004 41.7812 111.181 41.7812 110.358 41.7812L110.363 41.7865Z" fill="#020520"/>
</svg>
