<svg width="23" height="23" viewBox="0 0 23 23" fill="none" xmlns="http://www.w3.org/2000/svg">
<g clip-path="url(#clip0_104_1085)">
<path fill-rule="evenodd" clip-rule="evenodd" d="M15.793 3.32881C15.793 2.72161 15.3002 2.22881 14.693 2.22881H8.09297C7.48577 2.22881 6.99297 2.72161 6.99297 3.32881V18.7288C6.99297 19.336 7.48577 19.8288 8.09297 19.8288H14.693C15.3002 19.8288 15.793 19.336 15.793 18.7288V3.32881ZM17.993 2.22881V19.8288C17.993 21.0443 17.0085 22.0288 15.793 22.0288H6.99297C5.77747 22.0288 4.79297 21.0443 4.79297 19.8288V2.22881C4.79297 1.01331 5.77747 0.0288086 6.99297 0.0288086H15.793C17.0085 0.0288086 17.993 1.01331 17.993 2.22881ZM12.5161 16.5288C12.5161 17.136 12.0233 17.6288 11.4161 17.6288C10.8089 17.6288 10.3161 17.136 10.3161 16.5288C10.3161 15.9216 10.8089 15.4288 11.4161 15.4288C12.0233 15.4288 12.5161 15.9216 12.5161 16.5288Z" fill="black"/>
</g>
<defs>
<clipPath id="clip0_104_1085">
<rect width="22" height="22" fill="white" transform="translate(0.392578 0.0288086)"/>
</clipPath>
</defs>
</svg>
