<svg width="11" height="25" viewBox="0 0 11 25" fill="none" xmlns="http://www.w3.org/2000/svg">
<path d="M10.3669 8.40357L9.95657 10.6836C9.82247 11.4344 9.17745 12.0224 8.48817 12.0224H7.0989V22.5288C7.0989 23.3568 6.53501 24.0288 5.79076 24.0288H3.76653C3.02227 24.0288 2.41681 23.3553 2.41681 22.528V12.0224H1.74229C0.998038 12.0224 0.392578 11.3497 0.392578 10.5216V8.27082C0.392578 7.44354 0.998038 6.77002 1.74229 6.77002H2.41681V4.53045C2.41681 2.06512 4.21107 0.0588095 6.42438 0.0378089C6.43846 0.0370589 6.45053 0.0288086 6.46528 0.0288086H9.16471C9.53683 0.0288086 9.78089 0.364069 9.78089 0.778082V4.5282C9.78089 4.94296 9.53683 5.28122 9.16471 5.28122H7.1398L7.13913 6.77002H9.16337C9.54287 6.77002 9.89287 6.94927 10.1222 7.26128C10.3522 7.57254 10.4413 7.98956 10.3669 8.40357ZM6.49009 8.27082C6.4807 8.27157 6.47333 8.27682 6.46394 8.27682C6.09114 8.27607 5.78875 7.94006 5.78942 7.52604V7.52079L5.79076 4.53045C5.79076 4.11569 6.09248 3.78043 6.46528 3.78043H8.48952V1.52961H6.49143C6.48003 1.52961 6.47064 1.53636 6.45858 1.53636C4.97409 1.53636 3.76653 2.87965 3.76653 4.53045V7.53204C3.76653 7.94681 3.46413 8.28282 3.09133 8.28282C3.07323 8.28282 3.05781 8.27232 3.03971 8.27082H1.74229V10.5216H3.09133C3.46413 10.5216 3.76653 10.8576 3.76653 11.2724C3.76653 11.3114 3.75177 11.3444 3.74641 11.3819V22.5288L5.79076 22.528V11.2799C5.79076 11.2769 5.78942 11.2747 5.78942 11.2724C5.78942 10.8576 6.09114 10.5216 6.46394 10.5216H8.48817C8.53712 10.5216 8.62429 10.4429 8.633 10.3904L9.01452 8.27082H6.49009Z" fill="white"/>
</svg>
