<svg width="252" height="252" viewBox="0 0 252 252" fill="none" xmlns="http://www.w3.org/2000/svg">
<path d="M195.758 134.305C200.452 134.305 204.258 130.499 204.258 125.805C204.258 121.11 200.452 117.305 195.758 117.305V134.305ZM50.306 119.794C46.9865 123.114 46.9865 128.496 50.306 131.815L104.4 185.909C107.719 189.228 113.101 189.228 116.42 185.909C119.74 182.589 119.74 177.207 116.42 173.888L68.3372 125.805L116.42 77.7214C119.74 74.402 119.74 69.0201 116.42 65.7006C113.101 62.3812 107.719 62.3812 104.4 65.7006L50.306 119.794ZM195.758 117.305L56.3164 117.305V134.305L195.758 134.305V117.305Z" fill="black"/>
<circle cx="126.036" cy="125.806" r="117.806" transform="rotate(-180 126.036 125.806)" stroke="black" stroke-width="16"/>
</svg>
