<svg width="252" height="252" viewBox="0 0 252 252" fill="none" xmlns="http://www.w3.org/2000/svg">
<path d="M56.2578 117.305C51.5634 117.305 47.7578 121.11 47.7578 125.805C47.7578 130.499 51.5634 134.305 56.2578 134.305V117.305ZM201.71 131.815C205.029 128.496 205.029 123.114 201.71 119.794L147.616 65.7006C144.297 62.3812 138.915 62.3812 135.595 65.7006C132.276 69.0201 132.276 74.402 135.595 77.7214L183.678 125.805L135.595 173.888C132.276 177.207 132.276 182.589 135.595 185.909C138.915 189.228 144.297 189.228 147.616 185.909L201.71 131.815ZM56.2578 134.305L195.699 134.305V117.305L56.2578 117.305V134.305Z" fill="black"/>
<circle cx="125.978" cy="125.806" r="117.806" stroke="black" stroke-width="16"/>
</svg>
