<svg width="69" height="85" viewBox="0 0 69 85" fill="none" xmlns="http://www.w3.org/2000/svg">
<g clip-path="url(#clip0_177_7)">
<path d="M64.3585 1.8125H3.66702C1.56288 1.8125 -0.148438 3.51074 -0.148438 5.59814V16.3558V81.875C-0.148438 82.5998 0.444053 83.1875 1.17468 83.1875H66.851C67.5816 83.1875 68.1741 82.5998 68.1741 81.875V16.3558V5.59814C68.174 3.51074 66.4626 1.8125 64.3585 1.8125ZM2.49779 5.59814C2.49779 4.95791 3.02227 4.4375 3.66702 4.4375H64.3584C65.0031 4.4375 65.5277 4.95791 65.5277 5.59814V15.0433H2.49779V5.59814ZM65.5277 80.5625H2.49779V17.6683H65.5279L65.5277 80.5625Z" fill="black"/>
<path d="M11.4067 44.1893H55.7464C57.3008 44.1893 58.5652 42.9344 58.5652 41.3924V35.7073C58.5652 34.1628 57.3008 32.9067 55.7464 32.9067H11.4067C9.85226 32.9067 8.58789 34.1628 8.58789 35.7073V41.3924C8.58789 42.9345 9.85226 44.1893 11.4067 44.1893ZM11.2341 35.7073C11.2341 35.6138 11.3148 35.5317 11.4067 35.5317H55.7464C55.8381 35.5317 55.919 35.6138 55.919 35.7073V41.3924C55.919 41.4841 55.8383 41.5643 55.7464 41.5643H11.4067C11.315 41.5643 11.2341 41.4842 11.2341 41.3924V35.7073Z" fill="black"/>
<path d="M11.4067 59.5253H55.7464C57.3008 59.5253 58.5652 58.2711 58.5652 56.7292V51.0395C58.5652 49.4976 57.3008 48.2427 55.7464 48.2427H11.4067C9.85226 48.2427 8.58789 49.4976 8.58789 51.0395V56.7292C8.58789 58.2711 9.85226 59.5253 11.4067 59.5253ZM11.2341 51.0395C11.2341 50.9497 11.3161 50.8677 11.4067 50.8677H55.7464C55.8369 50.8677 55.919 50.9497 55.919 51.0395V56.7292C55.919 56.8201 55.8383 56.9003 55.7464 56.9003H11.4067C11.315 56.9003 11.2341 56.8203 11.2341 56.7292V51.0395Z" fill="black"/>
<path d="M21.7352 28.1133H45.4188C46.1494 28.1133 46.7419 27.5255 46.7419 26.8008C46.7419 26.076 46.1494 25.4883 45.4188 25.4883H21.7352C21.0046 25.4883 20.4121 26.076 20.4121 26.8008C20.4121 27.5255 21.0046 28.1133 21.7352 28.1133Z" fill="black"/>
<path d="M47.215 8.42822H47.1736C46.4429 8.42822 45.8711 9.01596 45.8711 9.74072C45.8711 10.4655 46.4842 11.0532 47.2149 11.0532C47.9455 11.0532 48.538 10.4655 48.538 9.74072C48.538 9.01596 47.9457 8.42822 47.215 8.42822Z" fill="black"/>
<path d="M53.0705 8.42822H53.029C52.2984 8.42822 51.7266 9.01596 51.7266 9.74072C51.7266 10.4655 52.3397 11.0532 53.0703 11.0532C53.8009 11.0532 54.3934 10.4655 54.3934 9.74072C54.3934 9.01596 53.8012 8.42822 53.0705 8.42822Z" fill="black"/>
<path d="M58.9259 8.42822H58.8845C58.1539 8.42822 57.582 9.01596 57.582 9.74072C57.582 10.4655 58.1952 11.0532 58.9258 11.0532C59.6564 11.0532 60.2489 10.4655 60.2489 9.74072C60.2489 9.01596 59.6567 8.42822 58.9259 8.42822Z" fill="black"/>
<path d="M56.157 63.8833H44.5022C43.1752 63.8833 42.0957 64.9542 42.0957 66.2711V70.3816C42.0957 71.6986 43.1752 72.7695 44.5022 72.7695H56.157C57.4846 72.7695 58.5641 71.6986 58.5641 70.3816V66.2711C58.5642 64.9542 57.4846 63.8833 56.157 63.8833ZM55.918 70.1446H44.7419V66.5083H55.918V70.1446Z" fill="black"/>
</g>
<defs>
<clipPath id="clip0_177_7">
<rect width="68" height="84" fill="white" transform="translate(0.0136719 0.5)"/>
</clipPath>
</defs>
</svg>
