<svg width="85" height="86" viewBox="0 0 85 86" fill="none" xmlns="http://www.w3.org/2000/svg">
<path d="M8.50781 8.75586V76.7293H75.6816V8.75586H8.50781ZM72.8833 11.5874V24.3321H11.3087V11.5874H72.8833ZM11.3061 73.8977V27.1663H72.8807V73.8977H11.3061Z" fill="white"/>
<path d="M29.4961 15.8374H33.6961V20.0847H29.4961V15.8374Z" fill="white"/>
<path d="M50.4902 15.8374H54.6876V20.0847H50.4902V15.8374Z" fill="white"/>
<path d="M32.507 37.2418C32.0056 40.687 30.386 40.7481 27.1258 40.8676L26.6191 40.8862V43.2874H32.1421V58.9965H35.0716V36.7876H32.57L32.507 37.2418Z" fill="white"/>
<path d="M49.0287 43.9165C47.7267 43.9165 46.3906 44.3469 45.3327 45.0667L46.3302 39.8737H55.5571V37.0581H44.1462L41.9202 49.0856H44.4533L44.6082 48.8412C45.4928 47.4467 47.1072 46.5781 48.824 46.5781C51.617 46.5781 53.6435 48.6686 53.6435 51.5453C53.6435 54.1484 52.0291 56.7834 48.9447 56.7834C46.3092 56.7834 44.414 54.9825 44.3352 52.4033L44.3195 51.888H41.3926L41.4057 52.4325C41.5002 56.6294 44.4691 59.4476 48.7977 59.4476C53.1605 59.4476 56.5756 56.0689 56.5756 51.7578C56.5756 47.0669 53.5463 43.9139 49.0366 43.9139L49.0287 43.9165Z" fill="white"/>
</svg>
