<svg width="86" height="87" viewBox="0 0 86 87" fill="none" xmlns="http://www.w3.org/2000/svg">
<g clip-path="url(#clip0_178_94)">
<path d="M80.3445 72.2927C79.6009 72.2927 78.9979 72.8954 78.9979 73.6394V82.4369H62.8218C63.0063 81.9632 63.1085 81.4489 63.1085 80.9107C63.1085 80.1285 62.8939 79.3958 62.5213 78.7669C63.7339 78.0248 64.5448 76.6882 64.5448 75.1653C64.5448 74.5805 64.4249 74.023 64.2089 73.5161C66.0488 73.062 67.4174 71.3981 67.4174 69.42C67.4174 67.0934 65.5248 65.2008 63.1982 65.2008H62.8218C63.0063 64.7271 63.1085 64.2128 63.1085 63.6746C63.1085 61.3481 61.2159 59.4554 58.8893 59.4554H45.2273L48.9822 56.5208C50.8151 55.0882 51.1409 52.4316 49.7087 50.5984C48.2761 48.7655 45.6195 48.4395 43.7861 49.8719L31.5235 59.4552H27.1108V56.4931C27.1108 55.7493 26.508 55.1465 25.7642 55.1465H1.34661C0.603008 55.1465 0 55.7492 0 56.4931V83.7833C0 84.5271 0.60284 85.1299 1.34661 85.1299H25.7642C26.0478 85.1299 26.3105 85.0419 26.5273 84.8924C26.7442 85.0419 27.0069 85.1299 27.2904 85.1299H47.3989H58.8895H80.3445C81.0881 85.1299 81.6911 84.5273 81.6911 83.7833V73.6394C81.6911 72.8954 81.0881 72.2927 80.3445 72.2927ZM24.4176 82.4367H2.69304V57.8397H24.4176V82.4367ZM60.3256 76.6915H58.8893H47.3988C46.6552 76.6915 46.0522 77.2942 46.0522 78.0381C46.0522 78.782 46.655 79.3847 47.3988 79.3847H58.8893C59.7309 79.3847 60.4155 80.0694 60.4155 80.9109C60.4155 81.7524 59.7309 82.437 58.8893 82.437H47.3988H27.2902C27.2292 82.437 27.1696 82.4424 27.1107 82.4503V62.1486H31.9582C32.2512 62.1486 32.5216 62.054 32.7427 61.8951C32.8077 61.8599 32.871 61.8202 32.9311 61.7732L45.4439 51.9942C46.1071 51.4759 47.0679 51.594 47.5862 52.2569C48.1044 52.9199 47.9865 53.8808 47.3235 54.3992L40.6029 59.6514C40.0876 60.0542 39.9457 60.757 40.2304 61.3193C40.4333 61.8063 40.9133 62.1486 41.4737 62.1486H58.8892C59.7307 62.1486 60.4153 62.8332 60.4153 63.6748C60.4153 64.5163 59.7307 65.2009 58.8892 65.2009H47.3986C46.655 65.2009 46.052 65.8036 46.052 66.5475C46.052 67.2913 46.6548 67.8941 47.3986 67.8941H58.8892H63.1981C64.0396 67.8941 64.7242 68.5788 64.7242 69.4203C64.7242 70.2618 64.0396 70.9465 63.1981 70.9465H60.3255H47.3986C46.655 70.9465 46.052 71.5491 46.052 72.2931C46.052 73.037 46.6548 73.6397 47.3986 73.6397H60.3255C61.167 73.6397 61.8516 74.3243 61.8516 75.1658C61.8518 76.0069 61.1672 76.6915 60.3256 76.6915Z" fill="white"/>
<path d="M84.6535 2.00293H1.52629C0.782695 2.00293 0.179688 2.6056 0.179688 3.34954V16.2764C0.179688 17.0202 0.782527 17.623 1.52629 17.623H4.48876V52.0949C4.48876 52.8387 5.0916 53.4415 5.83536 53.4415C6.57896 53.4415 7.18197 52.8388 7.18197 52.0949V17.623H14.3636C15.1072 17.623 15.7102 17.0203 15.7102 16.2764C15.7102 15.5325 15.1074 14.9298 14.3636 14.9298H2.87273V4.69614H83.3069V14.93H20.1087C19.3651 14.93 18.7621 15.5326 18.7621 16.2766C18.7621 17.0205 19.3649 17.6232 20.1087 17.6232H78.998V67.8945C78.998 68.6383 79.6009 69.2412 80.3446 69.2412C81.0882 69.2412 81.6912 68.6385 81.6912 67.8945V17.6232H84.6537C85.3973 17.6232 86.0003 17.0205 86.0003 16.2766V3.3497C86.0001 2.6056 85.3973 2.00293 84.6535 2.00293Z" fill="white"/>
<path d="M71.9051 20.6748H14.4521C13.7085 20.6748 13.1055 21.2775 13.1055 22.0214V39.2574C13.1055 40.0011 13.7083 40.604 14.4521 40.604H71.9051C72.6487 40.604 73.2517 40.0013 73.2517 39.2574V22.0214C73.2517 21.2775 72.6487 20.6748 71.9051 20.6748ZM70.5585 37.9108H15.7987V23.368H70.5587L70.5585 37.9108Z" fill="white"/>
<path d="M23.0712 26.3306C22.3276 26.3306 21.7246 26.9332 21.7246 27.6772V33.4225C21.7246 34.1663 22.3274 34.7691 23.0712 34.7691C23.8148 34.7691 24.4178 34.1665 24.4178 33.4225V27.6772C24.4178 26.9332 23.8148 26.3306 23.0712 26.3306Z" fill="white"/>
<path d="M27.2001 26.3306C26.4565 26.3306 25.8535 26.9332 25.8535 27.6772V33.4225C25.8535 34.1663 26.4564 34.7691 27.2001 34.7691C27.9439 34.7691 28.5467 34.1665 28.5467 33.4225V27.6772C28.5467 26.9332 27.9439 26.3306 27.2001 26.3306Z" fill="white"/>
<path d="M37.4345 26.3306C36.6909 26.3306 36.0879 26.9332 36.0879 27.6772V33.4225C36.0879 34.1663 36.6907 34.7691 37.4345 34.7691C38.1783 34.7691 38.7811 34.1665 38.7811 33.4225V27.6772C38.7811 26.9332 38.1783 26.3306 37.4345 26.3306Z" fill="white"/>
<path d="M43.1786 26.3306C42.435 26.3306 41.832 26.9332 41.832 27.6772V33.4225C41.832 34.1663 42.4349 34.7691 43.1786 34.7691C43.9224 34.7691 44.5252 34.1665 44.5252 33.4225V27.6772C44.5252 26.9332 43.9222 26.3306 43.1786 26.3306Z" fill="white"/>
<path d="M48.9247 26.3306C48.1811 26.3306 47.5781 26.9332 47.5781 27.6772V33.4225C47.5781 34.1663 48.181 34.7691 48.9247 34.7691C49.6685 34.7691 50.2713 34.1665 50.2713 33.4225V27.6772C50.2713 26.9332 49.6685 26.3306 48.9247 26.3306Z" fill="white"/>
<path d="M63.288 26.3306C62.5444 26.3306 61.9414 26.9332 61.9414 27.6772V33.4225C61.9414 34.1663 62.5442 34.7691 63.288 34.7691C64.0318 34.7691 64.6346 34.1665 64.6346 33.4225V27.6772C64.6346 26.9332 64.0316 26.3306 63.288 26.3306Z" fill="white"/>
<path d="M58.7997 26.3306C58.0561 26.3306 57.4531 26.9332 57.4531 27.6772V33.4225C57.4531 34.1663 58.056 34.7691 58.7997 34.7691C59.5435 34.7691 60.1463 34.1665 60.1463 33.4225V27.6772C60.1462 26.9332 59.5433 26.3306 58.7997 26.3306Z" fill="white"/>
<path d="M18.6723 72.293C16.3458 72.293 14.4531 74.1856 14.4531 76.5122C14.4531 78.8387 16.3458 80.7314 18.6723 80.7314C20.9989 80.7314 22.8915 78.8387 22.8915 76.5122C22.8915 74.1856 20.9989 72.293 18.6723 72.293ZM18.6723 78.0383C17.8308 78.0383 17.1462 77.3537 17.1462 76.5122C17.1462 75.6707 17.8308 74.986 18.6723 74.986C19.5139 74.986 20.1985 75.6707 20.1985 76.5122C20.1985 77.3537 19.5139 78.0383 18.6723 78.0383Z" fill="white"/>
<path d="M8.61764 72.293C6.29111 72.293 4.39844 74.1856 4.39844 76.5122C4.39844 78.8387 6.29111 80.7314 8.61764 80.7314C10.9442 80.7314 12.8369 78.8387 12.8369 76.5122C12.8369 74.1856 10.9442 72.293 8.61764 72.293ZM8.61764 78.0383C7.77612 78.0383 7.09148 77.3537 7.09148 76.5122C7.09148 75.6707 7.77612 74.986 8.61764 74.986C9.45917 74.986 10.1438 75.6707 10.1438 76.5122C10.1436 77.3537 9.45917 78.0383 8.61764 78.0383Z" fill="white"/>
</g>
<defs>
<clipPath id="clip0_178_94">
<rect width="86" height="86" fill="white" transform="translate(0 0.566406)"/>
</clipPath>
</defs>
</svg>
