<svg width="88" height="89" viewBox="0 0 88 89" fill="none" xmlns="http://www.w3.org/2000/svg">
<path d="M77.0006 33.5666H69.6673V40.8999H77.0006V33.5666ZM77.0006 29.8999V28.0666C77.0006 25.029 74.5382 22.5666 71.5006 22.5666H69.6673V29.8999H77.0006ZM77.0006 51.8999V44.5666H69.6673V51.8999H77.0006ZM77.0006 55.5666H69.6673V62.8999H71.5006C74.5382 62.8999 77.0006 60.4375 77.0006 57.3999V55.5666ZM11.0007 51.8999H18.334V44.5666H11.0007V51.8999ZM11.0007 55.5666V57.3999C11.0007 60.4375 13.4631 62.8999 16.5007 62.8999H18.334V55.5666H11.0007ZM11.0007 33.5666V40.8999H18.334V33.5666H11.0007ZM11.0007 29.8999H18.334V22.5666H16.5007C13.4631 22.5666 11.0007 25.029 11.0007 28.0666V29.8999ZM22.0007 40.8999H66.0006V22.5666H22.0007V40.8999ZM22.0007 44.5666V62.8999H66.0006V44.5666H22.0007ZM16.5007 18.8999H71.5006C76.5633 18.8999 80.6673 23.004 80.6673 28.0666V57.3999C80.6673 62.4625 76.5633 66.5666 71.5006 66.5666H16.5007C11.438 66.5666 7.33398 62.4625 7.33398 57.3999V28.0666C7.33398 23.004 11.438 18.8999 16.5007 18.8999Z" fill="white"/>
</svg>
