<svg width="87" height="87" viewBox="0 0 87 87" fill="none" xmlns="http://www.w3.org/2000/svg">
<g clip-path="url(#clip0_178_204)">
<path d="M65.2608 80.8599H4.80452C4.7163 80.8599 4.62893 80.8426 4.54742 80.8088C4.4659 80.7751 4.39184 80.7256 4.32945 80.6632C4.26707 80.6009 4.21759 80.5268 4.18385 80.4453C4.15011 80.3638 4.13277 80.2764 4.13281 80.1882V6.29719C4.13277 6.20897 4.15011 6.12161 4.18385 6.04009C4.21759 5.95858 4.26707 5.88451 4.32945 5.82213C4.39184 5.75975 4.4659 5.71027 4.54742 5.67653C4.62893 5.64279 4.7163 5.62544 4.80452 5.62549H8.83493C9.20614 5.62549 9.50664 5.92598 9.50664 6.29719C9.50664 6.66841 9.20614 6.96907 8.83493 6.96907H5.47639V79.5165H64.5891V6.96907H61.2304C60.8592 6.96907 60.5587 6.66857 60.5587 6.29719C60.5587 5.92582 60.8592 5.62549 61.2304 5.62549H65.2608C65.3491 5.62544 65.4364 5.64279 65.5179 5.67653C65.5995 5.71027 65.6735 5.75975 65.7359 5.82213C65.7983 5.88451 65.8478 5.95858 65.8815 6.04009C65.9153 6.12161 65.9326 6.20897 65.9326 6.29719V80.1882C65.9326 80.2764 65.9153 80.3638 65.8816 80.4453C65.8478 80.5268 65.7983 80.6009 65.736 80.6633C65.6736 80.7257 65.5995 80.7751 65.518 80.8089C65.4365 80.8426 65.3491 80.8599 65.2608 80.8599Z" fill="black"/>
<path d="M55.8564 6.96907H51.826C51.4547 6.96907 51.1543 6.66857 51.1543 6.29719C51.1543 5.92582 51.4547 5.62549 51.826 5.62549H55.8564C56.2277 5.62549 56.5281 5.92598 56.5281 6.29719C56.5281 6.66841 56.2277 6.96907 55.8564 6.96907ZM46.4522 6.96907H42.4218C42.0506 6.96907 41.7501 6.66857 41.7501 6.29719C41.7501 5.92582 42.0506 5.62549 42.4218 5.62549H46.4522C46.8234 5.62549 47.1239 5.92598 47.1239 6.29719C47.1239 6.66841 46.8234 6.96907 46.4522 6.96907ZM37.048 6.96907H33.0176C32.6462 6.96907 32.3459 6.66857 32.3459 6.29719C32.3459 5.92582 32.6462 5.62549 33.0176 5.62549H37.048C37.4192 5.62549 37.7197 5.92598 37.7197 6.29719C37.7197 6.66841 37.4192 6.96907 37.048 6.96907ZM27.6437 6.96907H23.6133C23.2419 6.96907 22.9415 6.66857 22.9415 6.29719C22.9415 5.92582 23.2419 5.62549 23.6133 5.62549H27.6437C28.0149 5.62549 28.3154 5.92598 28.3154 6.29719C28.3154 6.66841 28.0149 6.96907 27.6437 6.96907ZM18.2393 6.96907H14.2089C13.8375 6.96907 13.537 6.66857 13.537 6.29719C13.537 5.92582 13.8375 5.62549 14.2089 5.62549H18.2393C18.4175 5.62549 18.5884 5.69627 18.7144 5.82225C18.8403 5.94824 18.9111 6.11911 18.9111 6.29728C18.9111 6.47545 18.8403 6.64632 18.7144 6.77231C18.5884 6.89829 18.4175 6.96907 18.2393 6.96907ZM64.5891 83.5469H4.80452C4.7163 83.5469 4.62893 83.5296 4.54742 83.4958C4.4659 83.4621 4.39184 83.4126 4.32945 83.3502C4.26707 83.2878 4.21759 83.2138 4.18385 83.1323C4.15011 83.0508 4.13277 82.9634 4.13281 82.8752C4.13277 82.7869 4.15011 82.6996 4.18385 82.6181C4.21759 82.5365 4.26707 82.4625 4.32945 82.4001C4.39184 82.3377 4.4659 82.2882 4.54742 82.2545C4.62893 82.2208 4.7163 82.2034 4.80452 82.2035H64.589C64.6772 82.2034 64.7646 82.2207 64.8461 82.2545C64.9276 82.2882 65.0017 82.3377 65.0641 82.4C65.1265 82.4624 65.176 82.5365 65.2097 82.618C65.2434 82.6996 65.2607 82.7869 65.2607 82.8752C65.2608 82.9634 65.2435 83.0508 65.2097 83.1323C65.176 83.2138 65.1266 83.2879 65.0642 83.3503C65.0018 83.4127 64.9278 83.4621 64.8462 83.4959C64.7647 83.5296 64.6774 83.5469 64.5891 83.5469ZM64.5891 86.2339H4.80452C4.71628 86.2339 4.6289 86.2166 4.54738 86.1828C4.46585 86.1491 4.39178 86.0996 4.32939 86.0372C4.26701 85.9748 4.21754 85.9007 4.18381 85.8191C4.15007 85.7376 4.13275 85.6502 4.13281 85.562C4.13277 85.4738 4.15011 85.3864 4.18385 85.3049C4.21759 85.2234 4.26707 85.1493 4.32945 85.0869C4.39184 85.0245 4.4659 84.9751 4.54742 84.9413C4.62893 84.9076 4.7163 84.8902 4.80452 84.8903H64.589C64.6772 84.8902 64.7646 84.9076 64.8461 84.9413C64.9276 84.9751 65.0017 85.0245 65.064 85.0869C65.1264 85.1493 65.1759 85.2234 65.2096 85.3049C65.2434 85.3864 65.2607 85.4738 65.2607 85.562C65.2608 85.6502 65.2435 85.7376 65.2098 85.8192C65.1761 85.9007 65.1266 85.9748 65.0643 86.0372C65.0019 86.0996 64.9278 86.1491 64.8463 86.1829C64.7648 86.2166 64.6774 86.2339 64.5891 86.2339Z" fill="black"/>
<path d="M11.5211 12.3429C10.4099 12.3429 9.50586 11.4389 9.50586 10.3276V2.26675C9.50586 1.15547 10.4099 0.251465 11.5211 0.251465C12.6324 0.251465 13.5364 1.15547 13.5364 2.26675V10.3276C13.5364 11.4389 12.6324 12.3429 11.5211 12.3429ZM11.5211 1.59505C11.343 1.59527 11.1723 1.66613 11.0464 1.79209C10.9204 1.91805 10.8496 2.08881 10.8494 2.26692V10.3277C10.8494 10.6985 11.1511 10.9996 11.5211 10.9996C11.6993 10.9996 11.8702 10.9288 11.9961 10.8028C12.1221 10.6768 12.1929 10.5059 12.1929 10.3277V2.26692C12.1929 2.08876 12.1221 1.91789 11.9961 1.79189C11.8702 1.6659 11.6993 1.59509 11.5211 1.59505ZM20.9254 12.3429C19.8141 12.3429 18.9103 11.4389 18.9103 10.3276V2.26675C18.9103 1.15547 19.8141 0.251465 20.9254 0.251465C22.0367 0.251465 22.9407 1.15547 22.9407 2.26675V10.3276C22.9407 11.4389 22.0368 12.3429 20.9254 12.3429ZM20.9254 1.59505C20.7473 1.59527 20.5765 1.66613 20.4506 1.79209C20.3247 1.91805 20.2539 2.08881 20.2537 2.26692V10.3277C20.2537 10.6985 20.5555 10.9996 20.9254 10.9996C21.1035 10.9996 21.2744 10.9288 21.4004 10.8028C21.5263 10.6768 21.5971 10.5059 21.5971 10.3277V2.26692C21.5971 2.08876 21.5263 1.91789 21.4004 1.79189C21.2744 1.6659 21.1035 1.59509 20.9254 1.59505ZM30.3298 12.3429C29.2187 12.3429 28.3147 11.4389 28.3147 10.3276V2.26675C28.3147 1.15547 29.2187 0.251465 30.3298 0.251465C31.4411 0.251465 32.3451 1.15547 32.3451 2.26675V10.3276C32.3451 11.4389 31.4411 12.3429 30.3298 12.3429ZM30.3298 1.59505C30.1517 1.59527 29.9809 1.66613 29.855 1.79209C29.7291 1.91805 29.6583 2.08881 29.6581 2.26692V10.3277C29.6581 10.6985 29.9599 10.9996 30.3298 10.9996C30.508 10.9996 30.6789 10.9288 30.8049 10.8028C30.9309 10.6768 31.0017 10.5059 31.0017 10.3277V2.26692C31.0017 2.08873 30.9309 1.91784 30.8049 1.79183C30.6789 1.66583 30.508 1.59505 30.3298 1.59505ZM39.734 12.3429C38.6227 12.3429 37.7187 11.4389 37.7187 10.3276V2.26675C37.7187 1.15547 38.6227 0.251465 39.734 0.251465C40.8453 0.251465 41.7493 1.15564 41.7493 2.26692V10.3277C41.7493 11.4389 40.8453 12.3429 39.734 12.3429ZM39.734 1.59505C39.364 1.59505 39.0621 1.89605 39.0621 2.26692V10.3277C39.0621 10.6985 39.364 10.9996 39.734 10.9996C39.9122 10.9996 40.083 10.9288 40.209 10.8028C40.335 10.6768 40.4057 10.5059 40.4057 10.3277V2.26692C40.4057 2.08876 40.335 1.91789 40.209 1.79189C40.083 1.6659 39.9122 1.59509 39.734 1.59505ZM49.1384 12.3429C48.0271 12.3429 47.1231 11.4389 47.1231 10.3276V2.26675C47.1231 1.15547 48.0271 0.251465 49.1384 0.251465C50.2495 0.251465 51.1535 1.15547 51.1535 2.26675V10.3276C51.1535 11.4389 50.2495 12.3429 49.1384 12.3429ZM49.1384 1.59505C48.7684 1.59505 48.4665 1.89605 48.4665 2.26692V10.3277C48.4665 10.6985 48.7684 10.9996 49.1384 10.9996C49.3166 10.9996 49.4874 10.9288 49.6134 10.8028C49.7394 10.6768 49.8101 10.5059 49.8101 10.3277V2.26692C49.8101 2.08876 49.7394 1.91789 49.6134 1.79189C49.4874 1.6659 49.3166 1.59509 49.1384 1.59505ZM58.5427 12.3429C57.4314 12.3429 56.5274 11.4389 56.5274 10.3276V2.26675C56.5274 1.15547 57.4314 0.251465 58.5427 0.251465C59.6538 0.251465 60.5578 1.15547 60.5578 2.26675V10.3276C60.5579 11.4389 59.6539 12.3429 58.5427 12.3429ZM58.5427 1.59505C58.1726 1.59505 57.8708 1.89605 57.8708 2.26692V10.3277C57.8708 10.6985 58.1726 10.9996 58.5427 10.9996C58.7208 10.9996 58.8917 10.9288 59.0176 10.8028C59.1436 10.6768 59.2144 10.5059 59.2144 10.3277V2.26692C59.2144 2.08876 59.1436 1.91789 59.0176 1.79189C58.8917 1.6659 58.7208 1.59509 58.5427 1.59505ZM77.3526 76.8296C77.2418 76.8298 77.1327 76.8026 77.0349 76.7504C76.9371 76.6982 76.8538 76.6226 76.7923 76.5304L74.1055 72.5C74.049 72.4148 74.0127 72.3178 73.9993 72.2164C73.9859 72.1151 73.9957 72.012 74.028 71.915L75.336 67.9882V66.7535C75.336 66.6653 75.3533 66.5779 75.3871 66.4963C75.4208 66.4148 75.4703 66.3407 75.5327 66.2784C75.5951 66.216 75.6692 66.1665 75.7507 66.1328C75.8323 66.099 75.9196 66.0817 76.0079 66.0818C76.0961 66.0817 76.1835 66.0991 76.265 66.1328C76.3465 66.1666 76.4206 66.216 76.4829 66.2784C76.5453 66.3408 76.5948 66.4149 76.6285 66.4964C76.6623 66.5779 76.6796 66.6653 76.6796 66.7535V68.0969C76.6796 68.1691 76.6678 68.2412 76.6455 68.3096L75.4055 72.0279L77.9101 75.7853C77.9592 75.8587 77.9933 75.941 78.0105 76.0275C78.0277 76.1141 78.0277 76.2032 78.0104 76.2897C77.9931 76.3763 77.9589 76.4586 77.9098 76.5319C77.8606 76.6052 77.7975 76.668 77.724 76.7169C77.614 76.7902 77.4848 76.8294 77.3526 76.8296Z" fill="black"/>
<path d="M77.3528 76.8298C77.2313 76.8298 77.112 76.7967 77.0077 76.7343C76.9034 76.6718 76.818 76.5821 76.7606 76.475C76.7032 76.3678 76.676 76.247 76.6819 76.1256C76.6877 76.0041 76.7264 75.8865 76.7938 75.7854L79.2986 72.0279L78.06 68.3096C78.0364 68.2412 78.0244 68.1693 78.0245 68.0969V66.7535C78.0245 66.6653 78.0419 66.5779 78.0756 66.4964C78.1093 66.4149 78.1588 66.3408 78.2212 66.2784C78.2836 66.2161 78.3576 66.1666 78.4392 66.1328C78.5207 66.0991 78.608 66.0818 78.6963 66.0818C78.7845 66.0818 78.8718 66.0991 78.9534 66.1328C79.0349 66.1666 79.1089 66.2161 79.1713 66.2784C79.2337 66.3408 79.2832 66.4149 79.3169 66.4964C79.3507 66.5779 79.368 66.6653 79.368 66.7535V67.9882L80.6774 71.915C80.7099 72.0121 80.7196 72.1153 80.706 72.2167C80.6923 72.3181 80.6556 72.415 80.5987 72.5001L77.9117 76.5305C77.8505 76.6227 77.7675 76.6983 77.67 76.7505C77.5724 76.8028 77.4635 76.83 77.3528 76.8298ZM80.0397 56.6776H74.6659C74.5776 56.6776 74.4903 56.6603 74.4087 56.6265C74.3272 56.5928 74.2532 56.5433 74.1908 56.4809C74.1284 56.4185 74.0789 56.3445 74.0452 56.263C74.0114 56.1814 73.9941 56.0941 73.9941 56.0059C73.9941 55.6345 74.2946 55.334 74.6659 55.334H80.0397C80.4111 55.334 80.7115 55.6345 80.7115 56.0059C80.7116 56.0941 80.6942 56.1815 80.6605 56.263C80.6267 56.3445 80.5772 56.4186 80.5148 56.481C80.4524 56.5434 80.3784 56.5928 80.2968 56.6266C80.2153 56.6603 80.1279 56.6776 80.0397 56.6776Z" fill="black"/>
<path d="M74.6648 56.6772C74.4913 56.6769 74.3247 56.6096 74.1997 56.4893C74.0748 56.369 74.0012 56.205 73.9944 56.0317L72.651 22.4441C72.6473 22.356 72.661 22.2679 72.6914 22.1851C72.7218 22.1022 72.7683 22.0262 72.8281 21.9614C72.888 21.8965 72.96 21.8441 73.0402 21.8072C73.1203 21.7703 73.207 21.7496 73.2951 21.7462C73.6625 21.6997 73.9774 22.0198 73.9931 22.3904L75.3365 55.9793C75.3432 56.1571 75.2791 56.3304 75.1584 56.4612C75.0377 56.5919 74.8701 56.6696 74.6923 56.6772H74.6648ZM80.0399 56.6772H80.0124C79.6412 56.6614 79.3524 56.3491 79.3682 55.9793L80.7118 22.3904C80.7262 22.0198 81.0372 21.7004 81.4097 21.7462C81.5876 21.7535 81.7554 21.831 81.8762 21.9619C81.997 22.0927 82.0609 22.2662 82.0539 22.4441L80.7105 56.0317C80.7037 56.205 80.6301 56.369 80.5051 56.4893C80.3801 56.6096 80.2134 56.6769 80.0399 56.6772Z" fill="black"/>
<path d="M81.3829 23.0893C81.2947 23.0894 81.2073 23.072 81.1258 23.0383C81.0443 23.0046 80.9702 22.9551 80.9078 22.8927C80.8454 22.8303 80.7959 22.7563 80.7622 22.6747C80.7285 22.5932 80.7111 22.5058 80.7112 22.4176C80.7112 19.2978 79.5815 17.7155 77.3525 17.7155C75.1247 17.7155 73.9938 19.2978 73.9938 22.4176C73.9938 22.789 73.6933 23.0893 73.3221 23.0893C72.9509 23.0893 72.6504 22.789 72.6504 22.4176C72.6504 18.5755 74.3652 16.3721 77.3525 16.3721C80.3412 16.3721 82.0546 18.5755 82.0546 22.4176C82.0547 22.5058 82.0373 22.5932 82.0036 22.6747C81.9698 22.7562 81.9204 22.8303 81.858 22.8927C81.7956 22.9551 81.7215 23.0045 81.64 23.0383C81.5585 23.072 81.4711 23.0894 81.3829 23.0893Z" fill="black"/>
<path d="M78.6963 17.7155H76.0094C75.6381 17.7155 75.3376 17.415 75.3376 17.0438C75.3376 16.6726 75.6381 16.3721 76.0094 16.3721H78.6963C79.0676 16.3721 79.368 16.6726 79.368 17.0438C79.368 17.415 79.0676 17.7155 78.6963 17.7155ZM77.3528 40.5545C77.2646 40.5546 77.1772 40.5373 77.0957 40.5035C77.0142 40.4698 76.9401 40.4203 76.8777 40.3579C76.8153 40.2956 76.7659 40.2215 76.7321 40.14C76.6984 40.0584 76.6811 39.9711 76.6811 39.8828V19.7308C76.6811 19.3596 76.9815 19.0591 77.3528 19.0591C77.7242 19.0591 78.0246 19.3596 78.0246 19.7308V39.8828C78.0246 39.9711 78.0073 40.0584 77.9736 40.14C77.9398 40.2215 77.8904 40.2956 77.828 40.3579C77.7656 40.4203 77.6915 40.4698 77.61 40.5035C77.5284 40.5373 77.4411 40.5546 77.3528 40.5545ZM80.0397 59.3645H74.6659C74.5776 59.3646 74.4902 59.3472 74.4087 59.3135C74.3272 59.2797 74.2531 59.2302 74.1907 59.1678C74.1283 59.1054 74.0789 59.0313 74.0451 58.9498C74.0114 58.8683 73.9941 58.7809 73.9941 58.6926C73.9941 58.6044 74.0114 58.5171 74.0452 58.4355C74.0789 58.354 74.1284 58.28 74.1908 58.2176C74.2532 58.1552 74.3272 58.1057 74.4087 58.072C74.4903 58.0382 74.5776 58.0209 74.6659 58.0209H80.0397C80.4111 58.0209 80.7115 58.3214 80.7115 58.6926C80.7115 59.064 80.4111 59.3645 80.0397 59.3645Z" fill="black"/>
<path d="M80.0397 59.3646C79.9514 59.3646 79.8641 59.3473 79.7825 59.3135C79.701 59.2798 79.6269 59.2303 79.5645 59.1679C79.5022 59.1055 79.4527 59.0314 79.419 58.9498C79.3852 58.8683 79.3679 58.7809 79.368 58.6927V56.0059C79.368 55.6345 79.6685 55.334 80.0397 55.334C80.4111 55.334 80.7115 55.6345 80.7115 56.0059V58.6927C80.7115 59.0641 80.4111 59.3646 80.0397 59.3646ZM74.6659 59.3646C74.5776 59.3646 74.4902 59.3473 74.4087 59.3135C74.3272 59.2798 74.2531 59.2303 74.1907 59.1679C74.1283 59.1055 74.0789 59.0314 74.0451 58.9498C74.0114 58.8683 73.9941 58.7809 73.9941 58.6927V56.0059C73.9941 55.6345 74.2946 55.334 74.6659 55.334C74.7541 55.3339 74.8415 55.3513 74.923 55.385C75.0045 55.4188 75.0786 55.4683 75.141 55.5307C75.2034 55.5931 75.2528 55.6672 75.2866 55.7487C75.3203 55.8302 75.3376 55.9176 75.3376 56.0059V58.6927C75.3376 59.0641 75.0372 59.3646 74.6659 59.3646ZM80.0397 67.4254H74.6659C74.5776 67.4254 74.4903 67.4081 74.4087 67.3743C74.3272 67.3406 74.2532 67.2911 74.1908 67.2287C74.1284 67.1664 74.0789 67.0923 74.0452 67.0108C74.0114 66.9293 73.9941 66.8419 73.9941 66.7537C73.9941 66.6655 74.0114 66.5781 74.0452 66.4966C74.0789 66.4151 74.1284 66.341 74.1908 66.2786C74.2532 66.2162 74.3272 66.1668 74.4087 66.133C74.4903 66.0993 74.5776 66.0819 74.6659 66.082H80.0397C80.4111 66.082 80.7115 66.3825 80.7115 66.7537C80.7116 66.8419 80.6942 66.9293 80.6605 67.0108C80.6267 67.0923 80.5772 67.1664 80.5148 67.2288C80.4524 67.2912 80.3784 67.3407 80.2968 67.3744C80.2153 67.4081 80.1279 67.4254 80.0397 67.4254Z" fill="black"/>
<path d="M80.0388 67.4251C79.9506 67.4251 79.8632 67.4078 79.7817 67.374C79.7002 67.3403 79.6261 67.2908 79.5637 67.2284C79.5014 67.166 79.4519 67.092 79.4182 67.0104C79.3844 66.9289 79.3671 66.8416 79.3671 66.7533V58.6925C79.3671 58.6043 79.3844 58.5169 79.4182 58.4354C79.4519 58.3539 79.5014 58.2798 79.5637 58.2175C79.6261 58.1551 79.7002 58.1056 79.7817 58.0719C79.8632 58.0381 79.9506 58.0208 80.0388 58.0208C80.4102 58.0208 80.7107 58.3213 80.7107 58.6925V66.7533C80.7107 66.8416 80.6934 66.929 80.6596 67.0105C80.6259 67.092 80.5764 67.1661 80.514 67.2285C80.4516 67.2909 80.3775 67.3403 80.296 67.3741C80.2144 67.4078 80.1271 67.4251 80.0388 67.4251ZM74.665 67.4251C74.5768 67.4251 74.4894 67.4078 74.4079 67.374C74.3264 67.3403 74.2523 67.2908 74.1899 67.2284C74.1275 67.166 74.0781 67.092 74.0443 67.0104C74.0106 66.9289 73.9932 66.8416 73.9933 66.7533V58.6925C73.9932 58.6043 74.0106 58.5169 74.0443 58.4354C74.0781 58.3539 74.1275 58.2798 74.1899 58.2175C74.2523 58.1551 74.3264 58.1056 74.4079 58.0719C74.4894 58.0381 74.5768 58.0208 74.665 58.0208C74.7532 58.0208 74.8406 58.0381 74.9221 58.0719C75.0036 58.1056 75.0777 58.1551 75.1401 58.2175C75.2024 58.2798 75.2519 58.3539 75.2857 58.4354C75.3194 58.5169 75.3367 58.6043 75.3367 58.6925V66.7533C75.3368 66.8416 75.3194 66.929 75.2857 67.0105C75.252 67.092 75.2025 67.1661 75.1401 67.2285C75.0777 67.2909 75.0036 67.3403 74.9221 67.3741C74.8406 67.4078 74.7532 67.4251 74.665 67.4251ZM16.8957 31.1514C16.8075 31.1514 16.7201 31.1341 16.6386 31.1004C16.5572 31.0666 16.4831 31.0171 16.4208 30.9547L13.7338 28.2677C13.6715 28.2053 13.622 28.1313 13.5882 28.0498C13.5545 27.9683 13.5371 27.881 13.5371 27.7927C13.5371 27.7045 13.5545 27.6172 13.5882 27.5357C13.622 27.4542 13.6715 27.3802 13.7338 27.3178C13.7962 27.2554 13.8702 27.206 13.9517 27.1722C14.0332 27.1385 14.1206 27.1211 14.2088 27.1211C14.297 27.1211 14.3843 27.1385 14.4658 27.1722C14.5473 27.206 14.6213 27.2554 14.6837 27.3178L17.3707 30.0048C17.4647 30.0987 17.5287 30.2184 17.5546 30.3487C17.5806 30.479 17.5673 30.6141 17.5164 30.7369C17.4656 30.8596 17.3794 30.9645 17.2689 31.0383C17.1584 31.1121 17.0285 31.1514 16.8957 31.1514Z" fill="black"/>
<path d="M16.8963 31.1514C16.7635 31.1514 16.6336 31.112 16.5231 31.0382C16.4126 30.9644 16.3265 30.8595 16.2757 30.7368C16.2249 30.614 16.2116 30.479 16.2375 30.3487C16.2635 30.2184 16.3275 30.0987 16.4215 30.0048L21.7953 24.6308C21.9212 24.5048 22.0921 24.4341 22.2702 24.4341C22.4484 24.4341 22.6192 24.5048 22.7452 24.6308C22.8711 24.7568 22.9419 24.9276 22.9419 25.1057C22.9419 25.2839 22.8711 25.4547 22.7452 25.5807L17.3713 30.9547C17.309 31.0171 17.2349 31.0666 17.1534 31.1004C17.0719 31.1341 16.9845 31.1514 16.8963 31.1514Z" fill="black"/>
<path d="M16.8957 48.6167C16.8075 48.6168 16.7201 48.5994 16.6386 48.5657C16.5571 48.5319 16.4831 48.4823 16.4208 48.4198L13.7338 45.733C13.6079 45.6071 13.5371 45.4362 13.5371 45.2581C13.5371 45.0799 13.6079 44.9091 13.7338 44.7832C13.8598 44.6572 14.0306 44.5864 14.2088 44.5864C14.3869 44.5864 14.5577 44.6572 14.6837 44.7832L17.3707 47.47C17.4647 47.5639 17.5288 47.6836 17.5548 47.8139C17.5807 47.9443 17.5675 48.0794 17.5166 48.2022C17.4657 48.3249 17.3796 48.4299 17.269 48.5037C17.1585 48.5775 17.0286 48.6168 16.8957 48.6167Z" fill="black"/>
<path d="M16.8965 48.6163C16.7636 48.6164 16.6337 48.577 16.5232 48.5032C16.4127 48.4294 16.3265 48.3245 16.2757 48.2017C16.2249 48.0789 16.2116 47.9438 16.2376 47.8135C16.2635 47.6832 16.3276 47.5635 16.4216 47.4696L21.7955 42.0971C21.9214 41.9712 22.0923 41.9004 22.2704 41.9004C22.4485 41.9004 22.6194 41.9712 22.7453 42.0971C22.8713 42.2231 22.942 42.3939 22.942 42.572C22.942 42.7502 22.8713 42.921 22.7453 43.047L17.3715 48.4195C17.3092 48.482 17.2352 48.5316 17.1537 48.5654C17.0721 48.5991 16.9847 48.6165 16.8965 48.6163Z" fill="black"/>
<path d="M55.8554 24.4341H28.9862C28.615 24.4341 28.3145 24.1336 28.3145 23.7622C28.3145 23.3908 28.615 23.0903 28.9862 23.0903H55.8556C56.2268 23.0903 56.5273 23.3908 56.5273 23.7622C56.5273 24.1336 56.2267 24.4341 55.8554 24.4341Z" fill="black"/>
<path d="M55.8554 28.4647H28.9862C28.615 28.4647 28.3145 28.1642 28.3145 27.793C28.3145 27.4218 28.615 27.1211 28.9862 27.1211H55.8556C56.2268 27.1211 56.5273 27.4216 56.5273 27.793C56.5273 28.1643 56.2267 28.4647 55.8554 28.4647Z" fill="black"/>
<path d="M42.4208 32.4949H28.9862C28.8979 32.495 28.8105 32.4776 28.729 32.4439C28.6475 32.4101 28.5734 32.3606 28.511 32.2982C28.4486 32.2358 28.3992 32.1618 28.3654 32.0802C28.3317 31.9987 28.3144 31.9113 28.3145 31.8231C28.3144 31.7349 28.3318 31.6475 28.3655 31.566C28.3992 31.4845 28.4487 31.4104 28.5111 31.348C28.5735 31.2856 28.6475 31.2361 28.7291 31.2024C28.8106 31.1687 28.8979 31.1513 28.9862 31.1514H42.4208C42.509 31.1513 42.5964 31.1687 42.6779 31.2024C42.7594 31.2361 42.8335 31.2856 42.8959 31.348C42.9583 31.4104 43.0077 31.4845 43.0415 31.566C43.0752 31.6475 43.0926 31.7349 43.0925 31.8231C43.0925 32.1946 42.792 32.4949 42.4208 32.4949Z" fill="black"/>
<path d="M55.8554 41.8992H28.9862C28.615 41.8992 28.3145 41.5987 28.3145 41.2275C28.3145 40.8563 28.615 40.5557 28.9862 40.5557H55.8556C56.2268 40.5557 56.5273 40.8562 56.5273 41.2275C56.5273 41.5989 56.2267 41.8992 55.8554 41.8992Z" fill="black"/>
<path d="M55.8554 45.9294H28.9862C28.8979 45.9294 28.8106 45.9121 28.7291 45.8783C28.6475 45.8446 28.5735 45.7951 28.5111 45.7327C28.4487 45.6703 28.3992 45.5963 28.3655 45.5147C28.3318 45.4332 28.3144 45.3459 28.3145 45.2576C28.3144 45.1694 28.3318 45.0821 28.3655 45.0005C28.3992 44.919 28.4487 44.845 28.5111 44.7826C28.5735 44.7202 28.6475 44.6707 28.7291 44.637C28.8106 44.6032 28.8979 44.5859 28.9862 44.5859H55.8556C55.9438 44.5859 56.0312 44.6032 56.1127 44.637C56.1942 44.6707 56.2683 44.7202 56.3307 44.7826C56.3931 44.845 56.4425 44.919 56.4763 45.0005C56.51 45.0821 56.5274 45.1694 56.5273 45.2576C56.5273 45.3459 56.51 45.4332 56.4762 45.5148C56.4425 45.5963 56.393 45.6703 56.3306 45.7327C56.2682 45.7951 56.1941 45.8446 56.1126 45.8783C56.0311 45.9121 55.9437 45.9294 55.8554 45.9294Z" fill="black"/>
<path d="M42.4208 49.9603H28.9862C28.8979 49.9603 28.8105 49.943 28.729 49.9092C28.6475 49.8755 28.5734 49.826 28.511 49.7636C28.4486 49.7012 28.3992 49.6271 28.3654 49.5456C28.3317 49.464 28.3144 49.3766 28.3145 49.2884C28.3144 49.2002 28.3318 49.1128 28.3655 49.0313C28.3992 48.9498 28.4487 48.8757 28.5111 48.8133C28.5735 48.751 28.6475 48.7015 28.7291 48.6677C28.8106 48.634 28.8979 48.6167 28.9862 48.6167H42.4208C42.509 48.6167 42.5964 48.634 42.6779 48.6677C42.7594 48.7015 42.8335 48.751 42.8959 48.8133C42.9583 48.8757 43.0077 48.9498 43.0415 49.0313C43.0752 49.1128 43.0926 49.2002 43.0925 49.2884C43.0925 49.6598 42.792 49.9603 42.4208 49.9603Z" fill="black"/>
<path d="M16.8957 66.0815C16.8075 66.0816 16.7201 66.0643 16.6386 66.0305C16.5571 65.9967 16.4831 65.9472 16.4208 65.8847L13.7338 63.1979C13.6715 63.1355 13.622 63.0614 13.5882 62.98C13.5545 62.8985 13.5371 62.8111 13.5371 62.7229C13.5371 62.6347 13.5545 62.5474 13.5882 62.4659C13.622 62.3844 13.6715 62.3104 13.7338 62.248C13.7962 62.1856 13.8702 62.1362 13.9517 62.1024C14.0332 62.0686 14.1206 62.0513 14.2088 62.0513C14.297 62.0513 14.3843 62.0686 14.4658 62.1024C14.5473 62.1362 14.6213 62.1856 14.6837 62.248L17.3707 64.9348C17.4647 65.0287 17.5288 65.1484 17.5548 65.2788C17.5807 65.4091 17.5675 65.5442 17.5166 65.667C17.4657 65.7898 17.3796 65.8947 17.269 65.9685C17.1585 66.0423 17.0286 66.0816 16.8957 66.0815Z" fill="black"/>
<path d="M16.8965 66.0815C16.7636 66.0816 16.6337 66.0422 16.5232 65.9684C16.4127 65.8946 16.3265 65.7897 16.2757 65.6669C16.2249 65.5441 16.2116 65.409 16.2376 65.2787C16.2635 65.1484 16.3276 65.0287 16.4216 64.9348L21.7955 59.561C21.9214 59.435 22.0923 59.3643 22.2704 59.3643C22.4485 59.3643 22.6194 59.435 22.7453 59.561C22.8713 59.6869 22.942 59.8578 22.942 60.0359C22.942 60.214 22.8713 60.3849 22.7453 60.5108L17.3715 65.8847C17.3092 65.9472 17.2352 65.9967 17.1536 66.0305C17.0721 66.0643 16.9847 66.0816 16.8965 66.0815Z" fill="black"/>
<path d="M55.8554 59.3641H28.9862C28.8979 59.3641 28.8105 59.3468 28.729 59.313C28.6475 59.2793 28.5734 59.2298 28.511 59.1674C28.4486 59.105 28.3992 59.0309 28.3654 58.9494C28.3317 58.8678 28.3144 58.7805 28.3145 58.6922C28.3144 58.604 28.3318 58.5166 28.3655 58.4351C28.3992 58.3536 28.4487 58.2795 28.5111 58.2172C28.5735 58.1548 28.6475 58.1053 28.7291 58.0716C28.8106 58.0378 28.8979 58.0205 28.9862 58.0205H55.8556C55.9438 58.0205 56.0312 58.0378 56.1127 58.0716C56.1942 58.1053 56.2683 58.1548 56.3307 58.2172C56.3931 58.2795 56.4425 58.3536 56.4763 58.4351C56.51 58.5166 56.5274 58.604 56.5273 58.6922C56.5273 58.7805 56.51 58.8678 56.4762 58.9494C56.4425 59.0309 56.393 59.105 56.3306 59.1674C56.2682 59.2297 56.1941 59.2792 56.1126 59.313C56.0311 59.3467 55.9437 59.3641 55.8554 59.3641Z" fill="black"/>
<path d="M55.8554 63.3947H28.9862C28.8979 63.3947 28.8106 63.3774 28.7291 63.3436C28.6475 63.3099 28.5735 63.2604 28.5111 63.198C28.4487 63.1357 28.3992 63.0616 28.3655 62.9801C28.3318 62.8986 28.3144 62.8112 28.3145 62.723C28.3144 62.6348 28.3318 62.5474 28.3655 62.4659C28.3992 62.3844 28.4487 62.3103 28.5111 62.2479C28.5735 62.1855 28.6475 62.1361 28.7291 62.1023C28.8106 62.0686 28.8979 62.0512 28.9862 62.0513H55.8556C55.9438 62.0512 56.0312 62.0686 56.1127 62.1023C56.1942 62.1361 56.2683 62.1855 56.3307 62.2479C56.3931 62.3103 56.4425 62.3844 56.4763 62.4659C56.51 62.5474 56.5274 62.6348 56.5273 62.723C56.5273 62.8112 56.51 62.8986 56.4762 62.9801C56.4425 63.0616 56.393 63.1357 56.3306 63.1981C56.2682 63.2604 56.1941 63.3099 56.1126 63.3436C56.0311 63.3774 55.9437 63.3947 55.8554 63.3947Z" fill="black"/>
<path d="M42.4208 67.425H28.9862C28.8979 67.425 28.8106 67.4077 28.7291 67.3739C28.6475 67.3402 28.5735 67.2907 28.5111 67.2283C28.4487 67.1659 28.3992 67.0919 28.3655 67.0104C28.3318 66.9288 28.3144 66.8415 28.3145 66.7533C28.3144 66.665 28.3318 66.5777 28.3655 66.4961C28.3992 66.4146 28.4487 66.3406 28.5111 66.2782C28.5735 66.2158 28.6475 66.1663 28.7291 66.1326C28.8106 66.0988 28.8979 66.0815 28.9862 66.0815H42.4208C42.509 66.0815 42.5964 66.0988 42.6779 66.1326C42.7594 66.1663 42.8335 66.2158 42.8959 66.2782C42.9583 66.3406 43.0077 66.4146 43.0415 66.4961C43.0752 66.5777 43.0926 66.665 43.0925 66.7533C43.0926 66.8415 43.0752 66.9288 43.0415 67.0104C43.0077 67.0919 42.9583 67.1659 42.8959 67.2283C42.8335 67.2907 42.7594 67.3402 42.6779 67.3739C42.5964 67.4077 42.509 67.425 42.4208 67.425Z" fill="black"/>
</g>
<defs>
<clipPath id="clip0_178_204">
<rect width="86" height="86" fill="white" transform="translate(0.09375 0.242676)"/>
</clipPath>
</defs>
</svg>
