<svg width="85" height="89" viewBox="0 0 85 89" fill="none" xmlns="http://www.w3.org/2000/svg">
<g clip-path="url(#clip0_178_135)">
<path fill-rule="evenodd" clip-rule="evenodd" d="M80.2778 71.938C55.5853 77.7508 29.4336 77.7508 4.72224 71.938V22.0371C29.4147 16.2241 55.5664 16.2193 80.2778 22.0371V71.938ZM83.1867 17.7201C56.61 11.1397 28.3617 11.1446 1.81333 17.7201L0 18.17V75.8051L1.81333 76.2548C15.0969 79.545 28.7867 81.2073 42.5 81.2073C56.2181 81.2073 69.9125 79.545 83.1867 76.2548L85 75.8051V18.17L83.1867 17.7201ZM37.7778 36.6368L54.4378 46.9865L37.7778 57.3363V36.6368ZM33.0556 65.9701L63.6178 46.9865L33.0556 28.0029V65.9701Z" fill="black"/>
</g>
<defs>
<clipPath id="clip0_178_135">
<rect width="85" height="88" fill="white" transform="translate(0 0.566406)"/>
</clipPath>
</defs>
</svg>
