<svg width="87" height="86" viewBox="0 0 87 86" fill="none" xmlns="http://www.w3.org/2000/svg">
<g clip-path="url(#clip0_178_324)">
<path d="M83.4062 18.8364H2.78125C2.06848 18.8364 1.3849 19.1163 0.880901 19.6144C0.376897 20.1126 0.09375 20.7882 0.09375 21.4927L0.09375 63.9927C0.09375 64.6972 0.376897 65.3728 0.880901 65.8709C1.3849 66.3691 2.06848 66.6489 2.78125 66.6489H83.4062C84.119 66.6489 84.8026 66.3691 85.3066 65.8709C85.8106 65.3728 86.0938 64.6972 86.0938 63.9927V21.4927C86.0938 20.7882 85.8106 20.1126 85.3066 19.6144C84.8026 19.1163 84.119 18.8364 83.4062 18.8364ZM67.5231 61.3364H18.6644C18.1043 58.0787 16.5335 55.0736 14.1694 52.737C11.8053 50.4004 8.76482 48.8478 5.46875 48.2942V37.1911C8.76482 36.6375 11.8053 35.085 14.1694 32.7484C16.5335 30.4118 18.1043 27.4067 18.6644 24.1489H67.5231C68.0832 27.4067 69.654 30.4118 72.0181 32.7484C74.3822 35.085 77.4227 36.6375 80.7188 37.1911V48.2942C77.4227 48.8478 74.3822 50.4004 72.0181 52.737C69.654 55.0736 68.0832 58.0787 67.5231 61.3364ZM80.7188 31.7458C78.8701 31.2688 77.1835 30.3136 75.8326 28.9783C74.4816 27.643 73.5151 25.976 73.0325 24.1489H80.7188V31.7458ZM13.155 24.1489C12.6724 25.976 11.7059 27.643 10.3549 28.9783C9.00398 30.3136 7.31737 31.2688 5.46875 31.7458V24.1489H13.155ZM5.46875 53.7395C7.31737 54.2165 9.00398 55.1718 10.3549 56.507C11.7059 57.8423 12.6724 59.5093 13.155 61.3364H5.46875V53.7395ZM73.0325 61.3364C73.5151 59.5093 74.4816 57.8423 75.8326 56.507C77.1835 55.1718 78.8701 54.2165 80.7188 53.7395V61.3364H73.0325Z" fill="black"/>
<path d="M20.2768 2.1286C19.9708 1.95373 19.6329 1.84025 19.2824 1.79467C18.9319 1.74909 18.5757 1.7723 18.2343 1.86297C17.5458 2.03976 16.9563 2.47916 16.595 3.08485L11.22 12.1958C10.8636 12.8087 10.7681 13.5364 10.9546 14.2189C11.1411 14.9013 11.5942 15.4826 12.2143 15.8348C12.8345 16.1871 13.5707 16.2814 14.2612 16.0971C14.9517 15.9128 15.5398 15.4649 15.8962 14.852L19.9275 8.05204L33.5531 15.8348C34.1732 16.1871 34.9095 16.2814 35.6 16.0971C36.2905 15.9128 36.8786 15.4649 37.235 14.852C37.5913 14.2391 37.6868 13.5114 37.5003 12.829C37.3138 12.1465 36.8607 11.5652 36.2406 11.213L20.2768 2.1286Z" fill="black"/>
<path d="M65.9115 83.3568C66.3184 83.5955 66.782 83.7238 67.2552 83.7287C67.4865 83.7673 67.7227 83.7673 67.954 83.7287C68.6425 83.5519 69.232 83.1125 69.5933 82.5068L74.9683 73.3959C75.3247 72.783 75.4202 72.0552 75.2337 71.3728C75.0472 70.6903 74.5941 70.1091 73.974 69.7568C73.3538 69.4046 72.6176 69.3102 71.9271 69.4945C71.2366 69.6789 70.6485 70.1267 70.2921 70.7396L66.3146 77.5396L52.689 69.7568C52.0688 69.4046 51.3326 69.3102 50.6421 69.4945C49.9516 69.6789 49.3635 70.1267 49.0071 70.7396C48.6507 71.3525 48.5552 72.0802 48.7417 72.7627C48.9282 73.4452 49.3813 74.0264 50.0015 74.3787L65.9115 83.3568Z" fill="black"/>
<path d="M43.0938 26.8052C39.9045 26.8052 36.7869 27.7399 34.1352 29.4911C31.4834 31.2424 29.4167 33.7315 28.1962 36.6437C26.9757 39.5559 26.6564 42.7604 27.2786 45.8519C27.9008 48.9435 29.4365 51.7833 31.6917 54.0122C33.9468 56.2411 36.82 57.759 39.9479 58.3739C43.0759 58.9889 46.3181 58.6733 49.2645 57.467C52.211 56.2607 54.7294 54.218 56.5012 51.5971C58.273 48.9762 59.2188 45.8948 59.2188 42.7427C59.2188 38.5158 57.5199 34.462 54.4959 31.4732C51.4718 28.4843 47.3704 26.8052 43.0938 26.8052ZM43.0938 53.3677C40.9676 53.3677 38.8892 52.7445 37.1214 51.577C35.3535 50.4095 33.9757 48.7501 33.1621 46.8087C32.3484 44.8672 32.1355 42.7309 32.5503 40.6698C32.9651 38.6088 33.9889 36.7156 35.4924 35.2297C36.9958 33.7437 38.9112 32.7318 40.9965 32.3218C43.0818 31.9119 45.2433 32.1223 47.2076 32.9265C49.1719 33.7306 50.8508 35.0925 52.0321 36.8397C53.2133 38.587 53.8438 40.6412 53.8438 42.7427C53.8438 45.5606 52.7112 48.2631 50.6952 50.2557C48.6791 52.2483 45.9448 53.3677 43.0938 53.3677Z" fill="black"/>
</g>
<defs>
<clipPath id="clip0_178_324">
<rect width="86" height="85" fill="white" transform="translate(0.09375 0.242676)"/>
</clipPath>
</defs>
</svg>
