<svg width="81" height="83" viewBox="0 0 81 83" fill="none" xmlns="http://www.w3.org/2000/svg">
<g clip-path="url(#clip0_177_45)">
<path d="M78.959 0.900307C78.4376 0.365913 77.5949 0.365913 77.0735 0.900307L72.1293 5.96679H41.0851L2.05647 46.3005C1.16709 47.2108 0.677734 48.4231 0.677734 49.7105C0.677734 50.998 1.16709 52.2103 2.05647 53.1205L29.3458 81.0921C30.2619 82.0311 31.4633 82.4999 32.6673 82.4999C33.8754 82.4999 35.0861 82.027 36.0115 81.0785L74.0147 41.0727V7.89936L78.9576 2.83287C79.479 2.29848 79.479 1.4347 78.959 0.900307ZM31.2313 79.1596L3.9419 51.188C3.55654 50.793 3.34453 50.2681 3.34453 49.7105C3.34453 49.1529 3.55654 48.6281 3.9459 48.229L15.7465 36.0336L45.808 66.848L34.1127 79.1596C33.3194 79.9728 32.026 79.9728 31.2313 79.1596ZM71.3493 39.963L47.6694 64.8895L17.6252 34.0928L42.1958 8.70026H69.4638L63.0195 15.3057C61.9648 14.5895 60.7047 14.1672 59.3487 14.1672C55.6725 14.1672 52.6817 17.2328 52.6817 21.0009C52.6817 24.769 55.6725 27.8346 59.3487 27.8346C63.0248 27.8346 66.0157 24.769 66.0157 21.0009C66.0157 19.6109 65.6036 18.3193 64.9049 17.2383L71.3493 10.6328V39.963ZM63.3489 21.0009C63.3489 23.2615 61.5541 25.1011 59.3487 25.1011C57.1432 25.1011 55.3485 23.2615 55.3485 21.0009C55.3485 18.7403 57.1432 16.9007 59.3487 16.9007C59.9647 16.9007 60.5407 17.0565 61.0621 17.3121L58.4059 20.0346C57.8846 20.569 57.8846 21.4328 58.4059 21.9672C58.666 22.2337 59.0073 22.3676 59.3487 22.3676C59.69 22.3676 60.0314 22.2337 60.2914 21.9672L62.9475 19.2446C63.1969 19.779 63.3489 20.3694 63.3489 21.0009Z" fill="white"/>
</g>
<defs>
<clipPath id="clip0_177_45">
<rect width="80" height="82" fill="white" transform="translate(0.0136719 0.5)"/>
</clipPath>
</defs>
</svg>
