<svg width="99" height="97" viewBox="0 0 99 97" fill="none" xmlns="http://www.w3.org/2000/svg">
<path d="M15.5098 3.81931C15.4256 3.83447 15.3414 3.8572 15.2648 3.87994C14.3537 4.08455 13.7106 4.89541 13.7336 5.81994V23.2799H31.3736C32.078 23.2875 32.7364 22.9238 33.0962 22.3175C33.4484 21.7113 33.4484 20.9686 33.0962 20.3624C32.7364 19.7561 32.078 19.3924 31.3736 19.3999H20.2261C27.6527 12.2083 37.7972 7.75994 49.0136 7.75994C71.768 7.75994 90.1736 25.9777 90.1736 48.4999C90.1736 71.0221 71.768 89.2399 49.0136 89.2399C26.2592 89.2399 7.85359 71.0221 7.85359 48.4999C7.85359 41.763 9.53031 35.4201 12.4473 29.8274L8.95609 28.0693C5.75578 34.1924 3.93359 41.1416 3.93359 48.4999C3.93359 73.1213 24.1384 93.1199 49.0136 93.1199C73.8887 93.1199 94.0936 73.1213 94.0936 48.4999C94.0936 23.8786 73.8887 3.87994 49.0136 3.87994C36.8095 3.87994 25.7692 8.73751 17.6536 16.5506V5.81994C17.6766 5.25916 17.4469 4.72111 17.0411 4.3422C16.6277 3.95572 16.0687 3.76626 15.5098 3.81931ZM49.0136 9.69994C47.9341 9.69994 47.0536 10.5714 47.0536 11.6399C47.0536 12.7085 47.9341 13.5799 49.0136 13.5799C50.0931 13.5799 50.9736 12.7085 50.9736 11.6399C50.9736 10.5714 50.0931 9.69994 49.0136 9.69994ZM67.3273 14.6712C66.7684 14.747 66.2248 15.0577 65.9186 15.5806C65.375 16.5051 65.7195 17.71 66.6536 18.2481C67.5877 18.7861 68.805 18.4451 69.3486 17.5206C69.8922 16.596 69.5477 15.4517 68.6136 14.9137C68.3762 14.7773 68.1312 14.7015 67.8786 14.6712C67.6872 14.6485 67.5111 14.6485 67.3273 14.6712ZM81.0473 28.1299C80.7947 28.1602 80.4884 28.236 80.2511 28.3724C79.317 28.9105 79.0337 30.1154 79.5773 31.0399C80.1209 31.9645 81.277 32.3055 82.2111 31.7674C83.1452 31.2294 83.4897 30.0245 82.9461 29.0999C82.5403 28.4027 81.8053 28.039 81.0473 28.1299ZM33.3336 35.9506C27.5608 35.9506 24.2073 40.5126 24.2073 48.2574C24.2073 51.0462 24.6744 53.3348 25.6161 55.1687C27.1167 58.2227 29.7887 59.9581 33.2111 59.9581C38.1034 59.9581 41.5411 56.6085 41.5411 51.9556C41.5411 47.5375 38.3867 44.3168 34.0073 44.3168C31.2741 44.3168 29.0614 45.5748 27.9436 47.7724H27.6373C27.7139 42.2783 29.7811 39.1031 33.3336 39.1031C35.4314 39.1031 37.0469 40.2625 37.6211 42.1343H41.2348C40.5305 38.3983 37.4144 35.9506 33.3336 35.9506ZM54.2811 35.9506C48.9217 35.9506 45.7061 40.3989 45.7061 47.9543C45.7061 55.5552 48.8911 59.8974 54.2811 59.8974C59.6558 59.8974 62.7336 55.54 62.7336 47.9543C62.7336 40.3838 59.6098 35.9506 54.2811 35.9506ZM54.2811 39.1031C57.3819 39.1031 59.1198 42.2252 59.1198 47.9543C59.1198 53.7516 57.4202 56.8056 54.2811 56.8056C51.142 56.8056 49.3198 53.7364 49.3198 47.9543C49.3198 42.2404 51.1803 39.1031 54.2811 39.1031ZM71.7373 45.7112C68.6748 45.7112 66.5311 47.4011 66.5311 49.7731C66.5311 51.7661 67.6948 52.8649 70.2673 53.4712L72.6561 54.0168C74.0112 54.3351 74.6161 54.8504 74.6161 55.6537C74.6161 56.7222 73.4677 57.4724 71.7986 57.4724C70.1831 57.4724 69.1342 56.8662 68.7973 55.8356H66.1636C66.4009 58.2151 68.5141 59.6549 71.7373 59.6549C74.9759 59.6549 77.3111 57.9347 77.3111 55.4112C77.3111 53.4409 76.0861 52.3648 73.5136 51.7737L71.3086 51.2281C69.8386 50.8946 69.1648 50.3945 69.1648 49.5912C69.1648 48.5454 70.2444 47.8331 71.7373 47.8331C73.2533 47.8331 74.2409 48.4848 74.4936 49.4699H77.0661C76.8058 47.1056 74.7845 45.7112 71.7373 45.7112ZM11.7736 46.5599C10.6941 46.5599 9.81359 47.4314 9.81359 48.4999C9.81359 49.5685 10.6941 50.4399 11.7736 50.4399C12.8531 50.4399 13.7336 49.5685 13.7336 48.4999C13.7336 47.4314 12.8531 46.5599 11.7736 46.5599ZM86.2536 46.5599C85.1741 46.5599 84.2936 47.4314 84.2936 48.4999C84.2936 49.5685 85.1741 50.4399 86.2536 50.4399C87.3331 50.4399 88.2136 49.5685 88.2136 48.4999C88.2136 47.4314 87.3331 46.5599 86.2536 46.5599ZM33.2111 47.3481C36.0439 47.3481 37.9886 49.3032 37.9886 52.0768C37.9886 54.767 35.8984 56.8056 33.1498 56.8056C30.4012 56.8056 28.3111 54.7367 28.3111 52.0162C28.3111 49.3108 30.3936 47.3481 33.2111 47.3481ZM16.5511 64.9899C16.2984 65.0202 15.9922 65.096 15.7548 65.2324C14.8208 65.7705 14.5375 66.9754 15.0811 67.8999C15.6247 68.8245 16.7808 69.1655 17.7148 68.6274C18.6489 68.0894 18.9934 66.8845 18.4498 65.9599C18.0441 65.2627 17.3091 64.899 16.5511 64.9899ZM80.9248 64.9899C80.3812 65.0885 79.8836 65.437 79.5773 65.9599C79.0337 66.8845 79.3783 68.0894 80.3123 68.6274C81.2464 69.1655 82.4025 68.8245 82.9461 67.8999C83.4897 66.9754 83.2064 65.7705 82.2723 65.2324C82.035 65.096 81.7287 65.0202 81.4761 64.9899C81.2847 64.9672 81.1086 64.9596 80.9248 64.9899ZM30.0873 78.5093C29.5284 78.6078 28.9848 78.9564 28.6786 79.4793C28.135 80.4038 28.4795 81.5481 29.4136 82.0862C30.3477 82.6242 31.565 82.3438 32.1086 81.4193C32.6522 80.4948 32.3077 79.2899 31.3736 78.7518C31.1362 78.6154 30.8912 78.5396 30.6386 78.5093C30.4472 78.4866 30.2711 78.479 30.0873 78.5093ZM67.3886 78.5093C67.1359 78.5396 66.8909 78.6154 66.6536 78.7518C65.7195 79.2899 65.375 80.4948 65.9186 81.4193C66.4622 82.3438 67.6795 82.6242 68.6136 82.0862C69.5477 81.5481 69.8922 80.4038 69.3486 79.4793C68.9428 78.7821 68.1466 78.4184 67.3886 78.5093ZM49.0136 83.4199C47.9341 83.4199 47.0536 84.2914 47.0536 85.3599C47.0536 86.4285 47.9341 87.2999 49.0136 87.2999C50.0931 87.2999 50.9736 86.4285 50.9736 85.3599C50.9736 84.2914 50.0931 83.4199 49.0136 83.4199Z" fill="black"/>
</svg>
